%FSLAX45Y45*%
G04 Gerber Fmt 4.5, Leading zero omitted, Abs format (unit mm)*
G04 Created by KiCad (PCBNEW (5.1.10)-1) date 2021-06-27 18:35:32*
%MOMM*%
%LPD*%
G01*
G04 APERTURE LIST*
%TA.AperFunction,Profile*%
%ADD10C,0.100000*%
%TD*%
%ADD11C,0.200000*%
%ADD12C,0.300000*%
G04 APERTURE END LIST*
D10*
X18958600Y-6872000D02*
X16787200Y-6872000D01*
X22082800Y-6872000D02*
X19936800Y-6872000D01*
X26202400Y-6872000D02*
X23022600Y-6872000D01*
X18958600Y-9335800D02*
X16788000Y-9335800D01*
X22082800Y-9335800D02*
X19937600Y-9335800D01*
X26200000Y-9335800D02*
X23022600Y-9335800D01*
X26502400Y-7172000D02*
G75*
G03*
X26202400Y-6872000I-300000J0D01*
G01*
X26200000Y-9335800D02*
G75*
G03*
X26500000Y-9035800I0J300000D01*
G01*
X23022600Y-6872000D02*
G75*
G03*
X22730200Y-7165200I400J-292800D01*
G01*
X22730200Y-7165200D02*
X22729400Y-9043400D01*
X22729400Y-9043400D02*
G75*
G03*
X23022600Y-9335800I292800J400D01*
G01*
X22082800Y-9335800D02*
G75*
G03*
X22375200Y-9042600I-400J292800D01*
G01*
X22375200Y-9042600D02*
X22376000Y-7164400D01*
X22376000Y-7164400D02*
G75*
G03*
X22082800Y-6872000I-292800J-400D01*
G01*
X19644400Y-9043400D02*
X19644400Y-7165200D01*
X19936800Y-6872000D02*
G75*
G03*
X19644400Y-7165200I400J-292800D01*
G01*
X19251800Y-7164400D02*
G75*
G03*
X18958600Y-6872000I-292800J-400D01*
G01*
X19251000Y-9042600D02*
X19251800Y-7164400D01*
X18958600Y-9335800D02*
G75*
G03*
X19251000Y-9042600I-400J292800D01*
G01*
X19644400Y-9043400D02*
G75*
G03*
X19937600Y-9335800I292800J400D01*
G01*
X16787200Y-6872000D02*
G75*
G03*
X16494800Y-7165200I400J-292800D01*
G01*
X16494800Y-9043400D02*
G75*
G03*
X16788000Y-9335800I292800J400D01*
G01*
X26500000Y-9035800D02*
X26502400Y-7172000D01*
X16494800Y-9043400D02*
X16494800Y-7165200D01*
X20000087Y-11400000D02*
X20000087Y-13000000D01*
X24400000Y-14600000D02*
X24400000Y-13100000D01*
X24600000Y-13100000D02*
X24600000Y-14600000D01*
X24600000Y-13100000D02*
G75*
G03*
X24400000Y-13100000I-100000J0D01*
G01*
X24400000Y-14600000D02*
G75*
G03*
X24600000Y-14600000I100000J0D01*
G01*
X20050000Y-11350000D02*
G75*
G03*
X20000087Y-11400000I87J-50000D01*
G01*
X20450000Y-13050000D02*
G75*
G03*
X20500000Y-13000000I0J50000D01*
G01*
X20000000Y-13000000D02*
G75*
G03*
X20050000Y-13050000I50000J0D01*
G01*
X20500000Y-11400000D02*
G75*
G03*
X20450000Y-11350000I-50000J0D01*
G01*
X26500000Y-9700000D02*
G75*
G03*
X26200000Y-9400000I-300000J0D01*
G01*
X26200000Y-15000000D02*
G75*
G03*
X26500000Y-14700000I0J300000D01*
G01*
X16500000Y-14704800D02*
G75*
G03*
X16794800Y-15000000I295200J0D01*
G01*
X16800000Y-9400000D02*
G75*
G03*
X16494800Y-9705200I0J-305200D01*
G01*
X26200000Y-9400000D02*
X16800000Y-9400000D01*
X20450000Y-13050000D02*
X20050000Y-13050000D01*
X20500000Y-11400000D02*
X20500000Y-13000000D01*
X20050000Y-11350000D02*
X20450000Y-11350000D01*
X26500000Y-14700000D02*
X26500000Y-9700000D01*
X16794800Y-15000000D02*
X26200000Y-15000000D01*
X16494800Y-9705200D02*
X16500000Y-14704800D01*
D11*
X16817800Y-11279400D02*
X16947800Y-11409400D01*
X16947800Y-11279400D02*
X16817800Y-11409400D01*
X18621200Y-7211400D02*
X18751200Y-7341400D01*
X18751200Y-7211400D02*
X18621200Y-7341400D01*
X20131200Y-7211400D02*
X20261200Y-7341400D01*
X20261200Y-7211400D02*
X20131200Y-7341400D01*
X20564000Y-13697400D02*
X20694000Y-13827400D01*
X20694000Y-13697400D02*
X20564000Y-13827400D01*
X20564000Y-14510200D02*
X20694000Y-14640200D01*
X20694000Y-14510200D02*
X20564000Y-14640200D01*
X23662800Y-13697400D02*
X23792800Y-13827400D01*
X23792800Y-13697400D02*
X23662800Y-13827400D01*
X23662800Y-14510200D02*
X23792800Y-14640200D01*
X23792800Y-14510200D02*
X23662800Y-14640200D01*
X25961800Y-8104400D02*
X26091800Y-8234400D01*
X26091800Y-8104400D02*
X25961800Y-8234400D01*
X25961800Y-10746000D02*
X26091800Y-10876000D01*
X26091800Y-10746000D02*
X25961800Y-10876000D01*
X16979800Y-9750000D02*
G75*
G03*
X16979800Y-9750000I-135000J0D01*
G01*
X16985000Y-14654800D02*
G75*
G03*
X16985000Y-14654800I-135000J0D01*
G01*
X17010800Y-7253000D02*
G75*
G03*
X17010800Y-7253000I-135000J0D01*
G01*
X18992000Y-8980200D02*
G75*
G03*
X18992000Y-8980200I-135000J0D01*
G01*
X20160400Y-8980200D02*
G75*
G03*
X20160400Y-8980200I-135000J0D01*
G01*
X22090800Y-7253000D02*
G75*
G03*
X22090800Y-7253000I-135000J0D01*
G01*
X23233800Y-7227600D02*
G75*
G03*
X23233800Y-7227600I-135000J0D01*
G01*
X23233800Y-8904000D02*
G75*
G03*
X23233800Y-8904000I-135000J0D01*
G01*
X26180200Y-7227600D02*
G75*
G03*
X26180200Y-7227600I-135000J0D01*
G01*
X26205600Y-8904000D02*
G75*
G03*
X26205600Y-8904000I-135000J0D01*
G01*
X26285000Y-9750000D02*
G75*
G03*
X26285000Y-9750000I-135000J0D01*
G01*
X26285000Y-14650000D02*
G75*
G03*
X26285000Y-14650000I-135000J0D01*
G01*
D12*
X16776228Y-15470714D02*
X16776228Y-15170714D01*
X16847657Y-15170714D01*
X16890514Y-15185000D01*
X16919085Y-15213571D01*
X16933371Y-15242143D01*
X16947657Y-15299286D01*
X16947657Y-15342143D01*
X16933371Y-15399286D01*
X16919085Y-15427857D01*
X16890514Y-15456429D01*
X16847657Y-15470714D01*
X16776228Y-15470714D01*
X17076228Y-15470714D02*
X17076228Y-15270714D01*
X17076228Y-15327857D02*
X17090514Y-15299286D01*
X17104800Y-15285000D01*
X17133371Y-15270714D01*
X17161942Y-15270714D01*
X17261942Y-15470714D02*
X17261942Y-15270714D01*
X17261942Y-15170714D02*
X17247657Y-15185000D01*
X17261942Y-15199286D01*
X17276228Y-15185000D01*
X17261942Y-15170714D01*
X17261942Y-15199286D01*
X17447657Y-15470714D02*
X17419085Y-15456429D01*
X17404800Y-15427857D01*
X17404800Y-15170714D01*
X17604800Y-15470714D02*
X17576228Y-15456429D01*
X17561942Y-15427857D01*
X17561942Y-15170714D01*
X17947657Y-15470714D02*
X17947657Y-15170714D01*
X18047657Y-15385000D01*
X18147657Y-15170714D01*
X18147657Y-15470714D01*
X18419085Y-15470714D02*
X18419085Y-15313571D01*
X18404800Y-15285000D01*
X18376228Y-15270714D01*
X18319085Y-15270714D01*
X18290514Y-15285000D01*
X18419085Y-15456429D02*
X18390514Y-15470714D01*
X18319085Y-15470714D01*
X18290514Y-15456429D01*
X18276228Y-15427857D01*
X18276228Y-15399286D01*
X18290514Y-15370714D01*
X18319085Y-15356429D01*
X18390514Y-15356429D01*
X18419085Y-15342143D01*
X18561942Y-15270714D02*
X18561942Y-15570714D01*
X18561942Y-15285000D02*
X18590514Y-15270714D01*
X18647657Y-15270714D01*
X18676228Y-15285000D01*
X18690514Y-15299286D01*
X18704800Y-15327857D01*
X18704800Y-15413571D01*
X18690514Y-15442143D01*
X18676228Y-15456429D01*
X18647657Y-15470714D01*
X18590514Y-15470714D01*
X18561942Y-15456429D01*
X18833371Y-15442143D02*
X18847657Y-15456429D01*
X18833371Y-15470714D01*
X18819085Y-15456429D01*
X18833371Y-15442143D01*
X18833371Y-15470714D01*
X18833371Y-15285000D02*
X18847657Y-15299286D01*
X18833371Y-15313571D01*
X18819085Y-15299286D01*
X18833371Y-15285000D01*
X18833371Y-15313571D01*
X16359800Y-15900000D02*
X16489800Y-16030000D01*
X16489800Y-15900000D02*
X16359800Y-16030000D01*
X16933371Y-16100714D02*
X16761942Y-16100714D01*
X16847657Y-16100714D02*
X16847657Y-15800714D01*
X16819085Y-15843571D01*
X16790514Y-15872143D01*
X16761942Y-15886429D01*
X17061942Y-16072143D02*
X17076228Y-16086429D01*
X17061942Y-16100714D01*
X17047657Y-16086429D01*
X17061942Y-16072143D01*
X17061942Y-16100714D01*
X17176228Y-15800714D02*
X17361942Y-15800714D01*
X17261942Y-15915000D01*
X17304800Y-15915000D01*
X17333371Y-15929286D01*
X17347657Y-15943571D01*
X17361942Y-15972143D01*
X17361942Y-16043571D01*
X17347657Y-16072143D01*
X17333371Y-16086429D01*
X17304800Y-16100714D01*
X17219085Y-16100714D01*
X17190514Y-16086429D01*
X17176228Y-16072143D01*
X17547657Y-15800714D02*
X17576228Y-15800714D01*
X17604800Y-15815000D01*
X17619085Y-15829286D01*
X17633371Y-15857857D01*
X17647657Y-15915000D01*
X17647657Y-15986429D01*
X17633371Y-16043571D01*
X17619085Y-16072143D01*
X17604800Y-16086429D01*
X17576228Y-16100714D01*
X17547657Y-16100714D01*
X17519085Y-16086429D01*
X17504800Y-16072143D01*
X17490514Y-16043571D01*
X17476228Y-15986429D01*
X17476228Y-15915000D01*
X17490514Y-15857857D01*
X17504800Y-15829286D01*
X17519085Y-15815000D01*
X17547657Y-15800714D01*
X17833371Y-15800714D02*
X17861942Y-15800714D01*
X17890514Y-15815000D01*
X17904800Y-15829286D01*
X17919085Y-15857857D01*
X17933371Y-15915000D01*
X17933371Y-15986429D01*
X17919085Y-16043571D01*
X17904800Y-16072143D01*
X17890514Y-16086429D01*
X17861942Y-16100714D01*
X17833371Y-16100714D01*
X17804800Y-16086429D01*
X17790514Y-16072143D01*
X17776228Y-16043571D01*
X17761942Y-15986429D01*
X17761942Y-15915000D01*
X17776228Y-15857857D01*
X17790514Y-15829286D01*
X17804800Y-15815000D01*
X17833371Y-15800714D01*
X18061942Y-16100714D02*
X18061942Y-15900714D01*
X18061942Y-15929286D02*
X18076228Y-15915000D01*
X18104800Y-15900714D01*
X18147657Y-15900714D01*
X18176228Y-15915000D01*
X18190514Y-15943571D01*
X18190514Y-16100714D01*
X18190514Y-15943571D02*
X18204800Y-15915000D01*
X18233371Y-15900714D01*
X18276228Y-15900714D01*
X18304800Y-15915000D01*
X18319085Y-15943571D01*
X18319085Y-16100714D01*
X18461942Y-16100714D02*
X18461942Y-15900714D01*
X18461942Y-15929286D02*
X18476228Y-15915000D01*
X18504800Y-15900714D01*
X18547657Y-15900714D01*
X18576228Y-15915000D01*
X18590514Y-15943571D01*
X18590514Y-16100714D01*
X18590514Y-15943571D02*
X18604800Y-15915000D01*
X18633371Y-15900714D01*
X18676228Y-15900714D01*
X18704800Y-15915000D01*
X18719085Y-15943571D01*
X18719085Y-16100714D01*
X19304800Y-15786429D02*
X19047657Y-16172143D01*
X19690514Y-15800714D02*
X19719085Y-15800714D01*
X19747657Y-15815000D01*
X19761942Y-15829286D01*
X19776228Y-15857857D01*
X19790514Y-15915000D01*
X19790514Y-15986429D01*
X19776228Y-16043571D01*
X19761942Y-16072143D01*
X19747657Y-16086429D01*
X19719085Y-16100714D01*
X19690514Y-16100714D01*
X19661942Y-16086429D01*
X19647657Y-16072143D01*
X19633371Y-16043571D01*
X19619085Y-15986429D01*
X19619085Y-15915000D01*
X19633371Y-15857857D01*
X19647657Y-15829286D01*
X19661942Y-15815000D01*
X19690514Y-15800714D01*
X19919085Y-16072143D02*
X19933371Y-16086429D01*
X19919085Y-16100714D01*
X19904800Y-16086429D01*
X19919085Y-16072143D01*
X19919085Y-16100714D01*
X20119085Y-15800714D02*
X20147657Y-15800714D01*
X20176228Y-15815000D01*
X20190514Y-15829286D01*
X20204800Y-15857857D01*
X20219085Y-15915000D01*
X20219085Y-15986429D01*
X20204800Y-16043571D01*
X20190514Y-16072143D01*
X20176228Y-16086429D01*
X20147657Y-16100714D01*
X20119085Y-16100714D01*
X20090514Y-16086429D01*
X20076228Y-16072143D01*
X20061942Y-16043571D01*
X20047657Y-15986429D01*
X20047657Y-15915000D01*
X20061942Y-15857857D01*
X20076228Y-15829286D01*
X20090514Y-15815000D01*
X20119085Y-15800714D01*
X20490514Y-15800714D02*
X20347657Y-15800714D01*
X20333371Y-15943571D01*
X20347657Y-15929286D01*
X20376228Y-15915000D01*
X20447657Y-15915000D01*
X20476228Y-15929286D01*
X20490514Y-15943571D01*
X20504800Y-15972143D01*
X20504800Y-16043571D01*
X20490514Y-16072143D01*
X20476228Y-16086429D01*
X20447657Y-16100714D01*
X20376228Y-16100714D01*
X20347657Y-16086429D01*
X20333371Y-16072143D01*
X20790514Y-16100714D02*
X20619085Y-16100714D01*
X20704800Y-16100714D02*
X20704800Y-15800714D01*
X20676228Y-15843571D01*
X20647657Y-15872143D01*
X20619085Y-15886429D01*
X20904800Y-15829286D02*
X20919085Y-15815000D01*
X20947657Y-15800714D01*
X21019085Y-15800714D01*
X21047657Y-15815000D01*
X21061942Y-15829286D01*
X21076228Y-15857857D01*
X21076228Y-15886429D01*
X21061942Y-15929286D01*
X20890514Y-16100714D01*
X21076228Y-16100714D01*
X21190514Y-15800714D02*
X21190514Y-15857857D01*
X21304800Y-15800714D02*
X21304800Y-15857857D01*
X21747657Y-16215000D02*
X21733371Y-16200714D01*
X21704800Y-16157857D01*
X21690514Y-16129286D01*
X21676228Y-16086429D01*
X21661942Y-16015000D01*
X21661942Y-15957857D01*
X21676228Y-15886429D01*
X21690514Y-15843571D01*
X21704800Y-15815000D01*
X21733371Y-15772143D01*
X21747657Y-15757857D01*
X21876228Y-16100714D02*
X21933371Y-16100714D01*
X21961942Y-16086429D01*
X21976228Y-16072143D01*
X22004800Y-16029286D01*
X22019085Y-15972143D01*
X22019085Y-15857857D01*
X22004800Y-15829286D01*
X21990514Y-15815000D01*
X21961942Y-15800714D01*
X21904800Y-15800714D01*
X21876228Y-15815000D01*
X21861942Y-15829286D01*
X21847657Y-15857857D01*
X21847657Y-15929286D01*
X21861942Y-15957857D01*
X21876228Y-15972143D01*
X21904800Y-15986429D01*
X21961942Y-15986429D01*
X21990514Y-15972143D01*
X22004800Y-15957857D01*
X22019085Y-15929286D01*
X22376228Y-16100714D02*
X22376228Y-15800714D01*
X22504800Y-16100714D02*
X22504800Y-15943571D01*
X22490514Y-15915000D01*
X22461942Y-15900714D01*
X22419085Y-15900714D01*
X22390514Y-15915000D01*
X22376228Y-15929286D01*
X22690514Y-16100714D02*
X22661942Y-16086429D01*
X22647657Y-16072143D01*
X22633371Y-16043571D01*
X22633371Y-15957857D01*
X22647657Y-15929286D01*
X22661942Y-15915000D01*
X22690514Y-15900714D01*
X22733371Y-15900714D01*
X22761942Y-15915000D01*
X22776228Y-15929286D01*
X22790514Y-15957857D01*
X22790514Y-16043571D01*
X22776228Y-16072143D01*
X22761942Y-16086429D01*
X22733371Y-16100714D01*
X22690514Y-16100714D01*
X22961942Y-16100714D02*
X22933371Y-16086429D01*
X22919085Y-16057857D01*
X22919085Y-15800714D01*
X23190514Y-16086429D02*
X23161942Y-16100714D01*
X23104800Y-16100714D01*
X23076228Y-16086429D01*
X23061942Y-16057857D01*
X23061942Y-15943571D01*
X23076228Y-15915000D01*
X23104800Y-15900714D01*
X23161942Y-15900714D01*
X23190514Y-15915000D01*
X23204800Y-15943571D01*
X23204800Y-15972143D01*
X23061942Y-16000714D01*
X23319085Y-16086429D02*
X23347657Y-16100714D01*
X23404800Y-16100714D01*
X23433371Y-16086429D01*
X23447657Y-16057857D01*
X23447657Y-16043571D01*
X23433371Y-16015000D01*
X23404800Y-16000714D01*
X23361942Y-16000714D01*
X23333371Y-15986429D01*
X23319085Y-15957857D01*
X23319085Y-15943571D01*
X23333371Y-15915000D01*
X23361942Y-15900714D01*
X23404800Y-15900714D01*
X23433371Y-15915000D01*
X23547657Y-16215000D02*
X23561942Y-16200714D01*
X23590514Y-16157857D01*
X23604800Y-16129286D01*
X23619085Y-16086429D01*
X23633371Y-16015000D01*
X23633371Y-15957857D01*
X23619085Y-15886429D01*
X23604800Y-15843571D01*
X23590514Y-15815000D01*
X23561942Y-15772143D01*
X23547657Y-15757857D01*
X24090514Y-16215000D02*
X24076228Y-16200714D01*
X24047657Y-16157857D01*
X24033371Y-16129286D01*
X24019085Y-16086429D01*
X24004800Y-16015000D01*
X24004800Y-15957857D01*
X24019085Y-15886429D01*
X24033371Y-15843571D01*
X24047657Y-15815000D01*
X24076228Y-15772143D01*
X24090514Y-15757857D01*
X24204800Y-15900714D02*
X24204800Y-16100714D01*
X24204800Y-15929286D02*
X24219085Y-15915000D01*
X24247657Y-15900714D01*
X24290514Y-15900714D01*
X24319085Y-15915000D01*
X24333371Y-15943571D01*
X24333371Y-16100714D01*
X24519085Y-16100714D02*
X24490514Y-16086429D01*
X24476228Y-16072143D01*
X24461942Y-16043571D01*
X24461942Y-15957857D01*
X24476228Y-15929286D01*
X24490514Y-15915000D01*
X24519085Y-15900714D01*
X24561942Y-15900714D01*
X24590514Y-15915000D01*
X24604800Y-15929286D01*
X24619085Y-15957857D01*
X24619085Y-16043571D01*
X24604800Y-16072143D01*
X24590514Y-16086429D01*
X24561942Y-16100714D01*
X24519085Y-16100714D01*
X24704800Y-15900714D02*
X24819085Y-15900714D01*
X24747657Y-15800714D02*
X24747657Y-16057857D01*
X24761942Y-16086429D01*
X24790514Y-16100714D01*
X24819085Y-16100714D01*
X25147657Y-15900714D02*
X25147657Y-16200714D01*
X25147657Y-15915000D02*
X25176228Y-15900714D01*
X25233371Y-15900714D01*
X25261942Y-15915000D01*
X25276228Y-15929286D01*
X25290514Y-15957857D01*
X25290514Y-16043571D01*
X25276228Y-16072143D01*
X25261942Y-16086429D01*
X25233371Y-16100714D01*
X25176228Y-16100714D01*
X25147657Y-16086429D01*
X25461942Y-16100714D02*
X25433371Y-16086429D01*
X25419085Y-16057857D01*
X25419085Y-15800714D01*
X25704800Y-16100714D02*
X25704800Y-15943571D01*
X25690514Y-15915000D01*
X25661942Y-15900714D01*
X25604800Y-15900714D01*
X25576228Y-15915000D01*
X25704800Y-16086429D02*
X25676228Y-16100714D01*
X25604800Y-16100714D01*
X25576228Y-16086429D01*
X25561942Y-16057857D01*
X25561942Y-16029286D01*
X25576228Y-16000714D01*
X25604800Y-15986429D01*
X25676228Y-15986429D01*
X25704800Y-15972143D01*
X25804800Y-15900714D02*
X25919085Y-15900714D01*
X25847657Y-15800714D02*
X25847657Y-16057857D01*
X25861942Y-16086429D01*
X25890514Y-16100714D01*
X25919085Y-16100714D01*
X26133371Y-16086429D02*
X26104800Y-16100714D01*
X26047657Y-16100714D01*
X26019085Y-16086429D01*
X26004800Y-16057857D01*
X26004800Y-15943571D01*
X26019085Y-15915000D01*
X26047657Y-15900714D01*
X26104800Y-15900714D01*
X26133371Y-15915000D01*
X26147657Y-15943571D01*
X26147657Y-15972143D01*
X26004800Y-16000714D01*
X26404800Y-16100714D02*
X26404800Y-15800714D01*
X26404800Y-16086429D02*
X26376228Y-16100714D01*
X26319085Y-16100714D01*
X26290514Y-16086429D01*
X26276228Y-16072143D01*
X26261942Y-16043571D01*
X26261942Y-15957857D01*
X26276228Y-15929286D01*
X26290514Y-15915000D01*
X26319085Y-15900714D01*
X26376228Y-15900714D01*
X26404800Y-15915000D01*
X26519085Y-16215000D02*
X26533371Y-16200714D01*
X26561942Y-16157857D01*
X26576228Y-16129286D01*
X26590514Y-16086429D01*
X26604800Y-16015000D01*
X26604800Y-15957857D01*
X26590514Y-15886429D01*
X26576228Y-15843571D01*
X26561942Y-15815000D01*
X26533371Y-15772143D01*
X26519085Y-15757857D01*
X16489800Y-16361000D02*
G75*
G03*
X16489800Y-16361000I-135000J0D01*
G01*
X16761942Y-16225286D02*
X16776228Y-16211000D01*
X16804800Y-16196714D01*
X16876228Y-16196714D01*
X16904800Y-16211000D01*
X16919085Y-16225286D01*
X16933371Y-16253857D01*
X16933371Y-16282429D01*
X16919085Y-16325286D01*
X16747657Y-16496714D01*
X16933371Y-16496714D01*
X17061942Y-16468143D02*
X17076228Y-16482429D01*
X17061942Y-16496714D01*
X17047657Y-16482429D01*
X17061942Y-16468143D01*
X17061942Y-16496714D01*
X17176228Y-16196714D02*
X17376228Y-16196714D01*
X17247657Y-16496714D01*
X17547657Y-16196714D02*
X17576228Y-16196714D01*
X17604800Y-16211000D01*
X17619085Y-16225286D01*
X17633371Y-16253857D01*
X17647657Y-16311000D01*
X17647657Y-16382429D01*
X17633371Y-16439571D01*
X17619085Y-16468143D01*
X17604800Y-16482429D01*
X17576228Y-16496714D01*
X17547657Y-16496714D01*
X17519085Y-16482429D01*
X17504800Y-16468143D01*
X17490514Y-16439571D01*
X17476228Y-16382429D01*
X17476228Y-16311000D01*
X17490514Y-16253857D01*
X17504800Y-16225286D01*
X17519085Y-16211000D01*
X17547657Y-16196714D01*
X17833371Y-16196714D02*
X17861942Y-16196714D01*
X17890514Y-16211000D01*
X17904800Y-16225286D01*
X17919085Y-16253857D01*
X17933371Y-16311000D01*
X17933371Y-16382429D01*
X17919085Y-16439571D01*
X17904800Y-16468143D01*
X17890514Y-16482429D01*
X17861942Y-16496714D01*
X17833371Y-16496714D01*
X17804800Y-16482429D01*
X17790514Y-16468143D01*
X17776228Y-16439571D01*
X17761942Y-16382429D01*
X17761942Y-16311000D01*
X17776228Y-16253857D01*
X17790514Y-16225286D01*
X17804800Y-16211000D01*
X17833371Y-16196714D01*
X18061942Y-16496714D02*
X18061942Y-16296714D01*
X18061942Y-16325286D02*
X18076228Y-16311000D01*
X18104800Y-16296714D01*
X18147657Y-16296714D01*
X18176228Y-16311000D01*
X18190514Y-16339571D01*
X18190514Y-16496714D01*
X18190514Y-16339571D02*
X18204800Y-16311000D01*
X18233371Y-16296714D01*
X18276228Y-16296714D01*
X18304800Y-16311000D01*
X18319085Y-16339571D01*
X18319085Y-16496714D01*
X18461942Y-16496714D02*
X18461942Y-16296714D01*
X18461942Y-16325286D02*
X18476228Y-16311000D01*
X18504800Y-16296714D01*
X18547657Y-16296714D01*
X18576228Y-16311000D01*
X18590514Y-16339571D01*
X18590514Y-16496714D01*
X18590514Y-16339571D02*
X18604800Y-16311000D01*
X18633371Y-16296714D01*
X18676228Y-16296714D01*
X18704800Y-16311000D01*
X18719085Y-16339571D01*
X18719085Y-16496714D01*
X19304800Y-16182429D02*
X19047657Y-16568143D01*
X19690514Y-16196714D02*
X19719085Y-16196714D01*
X19747657Y-16211000D01*
X19761942Y-16225286D01*
X19776228Y-16253857D01*
X19790514Y-16311000D01*
X19790514Y-16382429D01*
X19776228Y-16439571D01*
X19761942Y-16468143D01*
X19747657Y-16482429D01*
X19719085Y-16496714D01*
X19690514Y-16496714D01*
X19661942Y-16482429D01*
X19647657Y-16468143D01*
X19633371Y-16439571D01*
X19619085Y-16382429D01*
X19619085Y-16311000D01*
X19633371Y-16253857D01*
X19647657Y-16225286D01*
X19661942Y-16211000D01*
X19690514Y-16196714D01*
X19919085Y-16468143D02*
X19933371Y-16482429D01*
X19919085Y-16496714D01*
X19904800Y-16482429D01*
X19919085Y-16468143D01*
X19919085Y-16496714D01*
X20219085Y-16496714D02*
X20047657Y-16496714D01*
X20133371Y-16496714D02*
X20133371Y-16196714D01*
X20104800Y-16239571D01*
X20076228Y-16268143D01*
X20047657Y-16282429D01*
X20404800Y-16196714D02*
X20433371Y-16196714D01*
X20461942Y-16211000D01*
X20476228Y-16225286D01*
X20490514Y-16253857D01*
X20504800Y-16311000D01*
X20504800Y-16382429D01*
X20490514Y-16439571D01*
X20476228Y-16468143D01*
X20461942Y-16482429D01*
X20433371Y-16496714D01*
X20404800Y-16496714D01*
X20376228Y-16482429D01*
X20361942Y-16468143D01*
X20347657Y-16439571D01*
X20333371Y-16382429D01*
X20333371Y-16311000D01*
X20347657Y-16253857D01*
X20361942Y-16225286D01*
X20376228Y-16211000D01*
X20404800Y-16196714D01*
X20761942Y-16196714D02*
X20704800Y-16196714D01*
X20676228Y-16211000D01*
X20661942Y-16225286D01*
X20633371Y-16268143D01*
X20619085Y-16325286D01*
X20619085Y-16439571D01*
X20633371Y-16468143D01*
X20647657Y-16482429D01*
X20676228Y-16496714D01*
X20733371Y-16496714D01*
X20761942Y-16482429D01*
X20776228Y-16468143D01*
X20790514Y-16439571D01*
X20790514Y-16368143D01*
X20776228Y-16339571D01*
X20761942Y-16325286D01*
X20733371Y-16311000D01*
X20676228Y-16311000D01*
X20647657Y-16325286D01*
X20633371Y-16339571D01*
X20619085Y-16368143D01*
X20890514Y-16196714D02*
X21076228Y-16196714D01*
X20976228Y-16311000D01*
X21019085Y-16311000D01*
X21047657Y-16325286D01*
X21061942Y-16339571D01*
X21076228Y-16368143D01*
X21076228Y-16439571D01*
X21061942Y-16468143D01*
X21047657Y-16482429D01*
X21019085Y-16496714D01*
X20933371Y-16496714D01*
X20904800Y-16482429D01*
X20890514Y-16468143D01*
X21190514Y-16196714D02*
X21190514Y-16253857D01*
X21304800Y-16196714D02*
X21304800Y-16253857D01*
X21747657Y-16611000D02*
X21733371Y-16596714D01*
X21704800Y-16553857D01*
X21690514Y-16525286D01*
X21676228Y-16482429D01*
X21661942Y-16411000D01*
X21661942Y-16353857D01*
X21676228Y-16282429D01*
X21690514Y-16239571D01*
X21704800Y-16211000D01*
X21733371Y-16168143D01*
X21747657Y-16153857D01*
X22019085Y-16496714D02*
X21847657Y-16496714D01*
X21933371Y-16496714D02*
X21933371Y-16196714D01*
X21904800Y-16239571D01*
X21876228Y-16268143D01*
X21847657Y-16282429D01*
X22133371Y-16225286D02*
X22147657Y-16211000D01*
X22176228Y-16196714D01*
X22247657Y-16196714D01*
X22276228Y-16211000D01*
X22290514Y-16225286D01*
X22304800Y-16253857D01*
X22304800Y-16282429D01*
X22290514Y-16325286D01*
X22119085Y-16496714D01*
X22304800Y-16496714D01*
X22661942Y-16496714D02*
X22661942Y-16196714D01*
X22790514Y-16496714D02*
X22790514Y-16339571D01*
X22776228Y-16311000D01*
X22747657Y-16296714D01*
X22704800Y-16296714D01*
X22676228Y-16311000D01*
X22661942Y-16325286D01*
X22976228Y-16496714D02*
X22947657Y-16482429D01*
X22933371Y-16468143D01*
X22919085Y-16439571D01*
X22919085Y-16353857D01*
X22933371Y-16325286D01*
X22947657Y-16311000D01*
X22976228Y-16296714D01*
X23019085Y-16296714D01*
X23047657Y-16311000D01*
X23061942Y-16325286D01*
X23076228Y-16353857D01*
X23076228Y-16439571D01*
X23061942Y-16468143D01*
X23047657Y-16482429D01*
X23019085Y-16496714D01*
X22976228Y-16496714D01*
X23247657Y-16496714D02*
X23219085Y-16482429D01*
X23204800Y-16453857D01*
X23204800Y-16196714D01*
X23476228Y-16482429D02*
X23447657Y-16496714D01*
X23390514Y-16496714D01*
X23361942Y-16482429D01*
X23347657Y-16453857D01*
X23347657Y-16339571D01*
X23361942Y-16311000D01*
X23390514Y-16296714D01*
X23447657Y-16296714D01*
X23476228Y-16311000D01*
X23490514Y-16339571D01*
X23490514Y-16368143D01*
X23347657Y-16396714D01*
X23604800Y-16482429D02*
X23633371Y-16496714D01*
X23690514Y-16496714D01*
X23719085Y-16482429D01*
X23733371Y-16453857D01*
X23733371Y-16439571D01*
X23719085Y-16411000D01*
X23690514Y-16396714D01*
X23647657Y-16396714D01*
X23619085Y-16382429D01*
X23604800Y-16353857D01*
X23604800Y-16339571D01*
X23619085Y-16311000D01*
X23647657Y-16296714D01*
X23690514Y-16296714D01*
X23719085Y-16311000D01*
X23833371Y-16611000D02*
X23847657Y-16596714D01*
X23876228Y-16553857D01*
X23890514Y-16525286D01*
X23904800Y-16482429D01*
X23919085Y-16411000D01*
X23919085Y-16353857D01*
X23904800Y-16282429D01*
X23890514Y-16239571D01*
X23876228Y-16211000D01*
X23847657Y-16168143D01*
X23833371Y-16153857D01*
X24376228Y-16611000D02*
X24361942Y-16596714D01*
X24333371Y-16553857D01*
X24319085Y-16525286D01*
X24304800Y-16482429D01*
X24290514Y-16411000D01*
X24290514Y-16353857D01*
X24304800Y-16282429D01*
X24319085Y-16239571D01*
X24333371Y-16211000D01*
X24361942Y-16168143D01*
X24376228Y-16153857D01*
X24490514Y-16296714D02*
X24490514Y-16496714D01*
X24490514Y-16325286D02*
X24504800Y-16311000D01*
X24533371Y-16296714D01*
X24576228Y-16296714D01*
X24604800Y-16311000D01*
X24619085Y-16339571D01*
X24619085Y-16496714D01*
X24804800Y-16496714D02*
X24776228Y-16482429D01*
X24761942Y-16468143D01*
X24747657Y-16439571D01*
X24747657Y-16353857D01*
X24761942Y-16325286D01*
X24776228Y-16311000D01*
X24804800Y-16296714D01*
X24847657Y-16296714D01*
X24876228Y-16311000D01*
X24890514Y-16325286D01*
X24904800Y-16353857D01*
X24904800Y-16439571D01*
X24890514Y-16468143D01*
X24876228Y-16482429D01*
X24847657Y-16496714D01*
X24804800Y-16496714D01*
X24990514Y-16296714D02*
X25104800Y-16296714D01*
X25033371Y-16196714D02*
X25033371Y-16453857D01*
X25047657Y-16482429D01*
X25076228Y-16496714D01*
X25104800Y-16496714D01*
X25433371Y-16296714D02*
X25433371Y-16596714D01*
X25433371Y-16311000D02*
X25461942Y-16296714D01*
X25519085Y-16296714D01*
X25547657Y-16311000D01*
X25561942Y-16325286D01*
X25576228Y-16353857D01*
X25576228Y-16439571D01*
X25561942Y-16468143D01*
X25547657Y-16482429D01*
X25519085Y-16496714D01*
X25461942Y-16496714D01*
X25433371Y-16482429D01*
X25747657Y-16496714D02*
X25719085Y-16482429D01*
X25704800Y-16453857D01*
X25704800Y-16196714D01*
X25990514Y-16496714D02*
X25990514Y-16339571D01*
X25976228Y-16311000D01*
X25947657Y-16296714D01*
X25890514Y-16296714D01*
X25861942Y-16311000D01*
X25990514Y-16482429D02*
X25961942Y-16496714D01*
X25890514Y-16496714D01*
X25861942Y-16482429D01*
X25847657Y-16453857D01*
X25847657Y-16425286D01*
X25861942Y-16396714D01*
X25890514Y-16382429D01*
X25961942Y-16382429D01*
X25990514Y-16368143D01*
X26090514Y-16296714D02*
X26204800Y-16296714D01*
X26133371Y-16196714D02*
X26133371Y-16453857D01*
X26147657Y-16482429D01*
X26176228Y-16496714D01*
X26204800Y-16496714D01*
X26419085Y-16482429D02*
X26390514Y-16496714D01*
X26333371Y-16496714D01*
X26304800Y-16482429D01*
X26290514Y-16453857D01*
X26290514Y-16339571D01*
X26304800Y-16311000D01*
X26333371Y-16296714D01*
X26390514Y-16296714D01*
X26419085Y-16311000D01*
X26433371Y-16339571D01*
X26433371Y-16368143D01*
X26290514Y-16396714D01*
X26690514Y-16496714D02*
X26690514Y-16196714D01*
X26690514Y-16482429D02*
X26661942Y-16496714D01*
X26604800Y-16496714D01*
X26576228Y-16482429D01*
X26561942Y-16468143D01*
X26547657Y-16439571D01*
X26547657Y-16353857D01*
X26561942Y-16325286D01*
X26576228Y-16311000D01*
X26604800Y-16296714D01*
X26661942Y-16296714D01*
X26690514Y-16311000D01*
X26804800Y-16611000D02*
X26819085Y-16596714D01*
X26847657Y-16553857D01*
X26861942Y-16525286D01*
X26876228Y-16482429D01*
X26890514Y-16411000D01*
X26890514Y-16353857D01*
X26876228Y-16282429D01*
X26861942Y-16239571D01*
X26847657Y-16211000D01*
X26819085Y-16168143D01*
X26804800Y-16153857D01*
M02*
