M48
; DRILL file {KiCad (5.1.10)-1} date 06/28/21 12:49:36
; FORMAT={-:-/ absolute / metric / decimal}
; #@! TF.CreationDate,2021-06-28T12:49:36+02:00
; #@! TF.GenerationSoftware,Kicad,Pcbnew,(5.1.10)-1
; #@! TF.FileFunction,Plated,1,2,PTH
FMAT,2
METRIC
T1C0.600
T2C0.762
T3C0.765
T4C0.800
T5C1.000
T6C1.200
T7C1.250
T8C1.600
%
G90
G05
T1
X180.442Y-144.666
X185.268Y-105.804
X186.538Y-105.804
X206.096Y-106.566
X207.112Y-106.566
X208.636Y-133.744
X211.938Y-100.47
X214.478Y-100.47
X216.256Y-120.282
X217.526Y-125.362
X221.336Y-117.234
X221.59Y-104.026
X221.59Y-107.582
X224.13Y-137.3
X226.924Y-118.758
X227.178Y-141.11
X231.227Y-127.14
X231.75Y-102.756
X231.75Y-118.504
X232.004Y-110.884
X232.004Y-112.154
X232.004Y-128.126
X232.258Y-129.68
X234.305Y-102.672
X234.305Y-103.772
X235.654Y-129.568
X235.681Y-127.867
X236.068Y-130.696
X236.505Y-128.595
X236.57Y-127.041
X236.576Y-110.884
X236.576Y-112.154
X237.846Y-115.71
X237.846Y-119.774
X237.846Y-123.838
X238.113Y-114.643
X241.656Y-126.124
X243.18Y-110.122
X244.564Y-114.282
X245.212Y-116.255
X245.33Y-113.403
X245.72Y-111.123
X247.244Y-119.266
X248.496Y-113.678
X250.546Y-117.996
X252.324Y-117.488
X252.578Y-119.774
X255.626Y-122.06
X255.88Y-115.71
X257.15Y-118.758
T2
X177.648Y-148.73
X180.188Y-148.73
X182.728Y-148.73
X185.268Y-148.73
X187.808Y-148.73
X190.348Y-148.73
X192.126Y-119.012
X192.126Y-121.552
X192.126Y-124.092
X192.126Y-126.632
X192.126Y-129.172
X192.888Y-148.73
X236.83Y-104.28
X239.37Y-104.28
X241.91Y-104.28
X244.45Y-104.28
X246.99Y-104.28
X249.53Y-104.28
X252.07Y-104.28
X253.179Y-81.792
X253.263Y-75.762
X253.263Y-77.772
X253.263Y-79.782
X253.263Y-83.802
X253.263Y-85.812
X254.61Y-104.28
X258.674Y-117.742
X258.674Y-120.282
X258.674Y-122.822
X258.674Y-125.362
X258.674Y-127.902
X258.674Y-130.442
X258.674Y-132.982
X258.674Y-135.522
X258.674Y-138.062
X258.674Y-140.602
T3
X178.466Y-81.42
X185.466Y-81.42
X203.104Y-81.674
X210.104Y-81.674
T4
X167.488Y-107.328
X175.108Y-107.328
T5
X208.37Y-96.23
X208.37Y-98.77
X210.91Y-96.23
X210.91Y-98.77
X213.45Y-96.23
X213.45Y-98.77
X215.99Y-96.23
X215.99Y-98.77
X218.53Y-96.23
X218.53Y-98.77
X221.07Y-96.23
X221.07Y-98.77
X223.61Y-96.23
X223.61Y-98.77
X226.15Y-96.23
X226.15Y-98.77
X228.69Y-96.23
X228.69Y-98.77
X231.23Y-96.23
X231.23Y-98.77
X233.77Y-96.23
X233.77Y-98.77
X236.31Y-96.23
X236.31Y-98.77
X238.85Y-96.23
X238.85Y-98.77
X241.39Y-96.23
X241.39Y-98.77
X243.93Y-96.23
X243.93Y-98.77
X246.47Y-96.23
X246.47Y-98.77
X249.01Y-96.23
X249.01Y-98.77
X251.55Y-96.23
X251.55Y-98.77
X254.09Y-96.23
X254.09Y-98.77
X256.63Y-96.23
X256.63Y-98.77
T6
X167.488Y-112.194
X167.488Y-114.694
X171.728Y-80.404
X172.351Y-78.079
X172.351Y-82.729
X174.053Y-76.377
X174.053Y-84.431
X176.378Y-75.754
X176.378Y-85.054
X178.703Y-76.377
X178.703Y-84.431
X180.405Y-78.079
X180.405Y-82.729
X181.028Y-80.404
X185.522Y-71.514
X185.522Y-74.014
X185.522Y-76.514
X202.54Y-136.284
X202.54Y-144.412
X203.302Y-71.514
X203.302Y-74.014
X203.302Y-76.514
X205.04Y-136.284
X205.04Y-144.412
X207.54Y-136.284
X207.54Y-144.412
X207.542Y-80.404
X208.165Y-78.079
X208.165Y-82.729
X209.867Y-76.377
X209.867Y-84.431
X210.04Y-136.284
X210.04Y-144.412
X212.192Y-75.754
X212.192Y-85.054
X214.517Y-76.377
X214.517Y-84.431
X216.219Y-78.079
X216.219Y-82.729
X216.842Y-80.404
X233.528Y-136.284
X233.528Y-144.412
X236.028Y-136.284
X236.028Y-144.412
X238.528Y-136.284
X238.528Y-144.412
X241.028Y-136.284
X241.028Y-144.412
X258.928Y-77.944
X258.928Y-80.444
X258.928Y-82.944
X258.928Y-104.36
X258.928Y-106.86
X258.928Y-109.36
T7
X174.854Y-102.248
X177.394Y-102.248
X179.934Y-102.248
X182.474Y-102.248
X185.014Y-102.248
X187.554Y-102.248
X190.094Y-102.248
X192.634Y-102.248
X195.174Y-102.248
X197.714Y-102.248
X200.254Y-102.248
X202.794Y-102.248
T8
X176.378Y-77.989
X176.378Y-82.819
X212.192Y-77.989
X212.192Y-82.819
T0
M30
