M48
; DRILL file {KiCad (5.1.10)-1} date 06/28/21 12:49:36
; FORMAT={-:-/ absolute / metric / decimal}
; #@! TF.CreationDate,2021-06-28T12:49:36+02:00
; #@! TF.GenerationSoftware,Kicad,Pcbnew,(5.1.10)-1
; #@! TF.FileFunction,NonPlated,1,2,NPTH
FMAT,2
METRIC
T1C1.300
T2C2.700
%
G90
G05
T1
X168.828Y-113.444
X186.862Y-72.764
X201.962Y-72.764
X206.29Y-137.624
X206.29Y-145.752
X237.278Y-137.624
X237.278Y-145.752
X260.268Y-81.694
X260.268Y-108.11
T2
X168.448Y-97.5
X168.5Y-146.548
X168.758Y-72.53
X188.57Y-89.802
X200.254Y-89.802
X219.558Y-72.53
X230.988Y-72.276
X230.988Y-89.04
X260.452Y-72.276
X260.706Y-89.04
X261.5Y-97.5
X261.5Y-146.5
T0
M30
