%FSLAX45Y45*%
G04 Gerber Fmt 4.5, Leading zero omitted, Abs format (unit mm)*
G04 Created by KiCad (PCBNEW (5.1.10)-1) date 2021-06-27 18:35:32*
%MOMM*%
%LPD*%
G01*
G04 APERTURE LIST*
%TA.AperFunction,Profile*%
%ADD10C,0.100000*%
%TD*%
%ADD11C,0.200000*%
%ADD12C,0.300000*%
G04 APERTURE END LIST*
D10*
X18958600Y-6872000D02*
X16787200Y-6872000D01*
X22082800Y-6872000D02*
X19936800Y-6872000D01*
X26202400Y-6872000D02*
X23022600Y-6872000D01*
X18958600Y-9335800D02*
X16788000Y-9335800D01*
X22082800Y-9335800D02*
X19937600Y-9335800D01*
X26200000Y-9335800D02*
X23022600Y-9335800D01*
X26502400Y-7172000D02*
G75*
G03*
X26202400Y-6872000I-300000J0D01*
G01*
X26200000Y-9335800D02*
G75*
G03*
X26500000Y-9035800I0J300000D01*
G01*
X23022600Y-6872000D02*
G75*
G03*
X22730200Y-7165200I400J-292800D01*
G01*
X22730200Y-7165200D02*
X22729400Y-9043400D01*
X22729400Y-9043400D02*
G75*
G03*
X23022600Y-9335800I292800J400D01*
G01*
X22082800Y-9335800D02*
G75*
G03*
X22375200Y-9042600I-400J292800D01*
G01*
X22375200Y-9042600D02*
X22376000Y-7164400D01*
X22376000Y-7164400D02*
G75*
G03*
X22082800Y-6872000I-292800J-400D01*
G01*
X19644400Y-9043400D02*
X19644400Y-7165200D01*
X19936800Y-6872000D02*
G75*
G03*
X19644400Y-7165200I400J-292800D01*
G01*
X19251800Y-7164400D02*
G75*
G03*
X18958600Y-6872000I-292800J-400D01*
G01*
X19251000Y-9042600D02*
X19251800Y-7164400D01*
X18958600Y-9335800D02*
G75*
G03*
X19251000Y-9042600I-400J292800D01*
G01*
X19644400Y-9043400D02*
G75*
G03*
X19937600Y-9335800I292800J400D01*
G01*
X16787200Y-6872000D02*
G75*
G03*
X16494800Y-7165200I400J-292800D01*
G01*
X16494800Y-9043400D02*
G75*
G03*
X16788000Y-9335800I292800J400D01*
G01*
X26500000Y-9035800D02*
X26502400Y-7172000D01*
X16494800Y-9043400D02*
X16494800Y-7165200D01*
X20000087Y-11400000D02*
X20000087Y-13000000D01*
X24400000Y-14600000D02*
X24400000Y-13100000D01*
X24600000Y-13100000D02*
X24600000Y-14600000D01*
X24600000Y-13100000D02*
G75*
G03*
X24400000Y-13100000I-100000J0D01*
G01*
X24400000Y-14600000D02*
G75*
G03*
X24600000Y-14600000I100000J0D01*
G01*
X20050000Y-11350000D02*
G75*
G03*
X20000087Y-11400000I87J-50000D01*
G01*
X20450000Y-13050000D02*
G75*
G03*
X20500000Y-13000000I0J50000D01*
G01*
X20000000Y-13000000D02*
G75*
G03*
X20050000Y-13050000I50000J0D01*
G01*
X20500000Y-11400000D02*
G75*
G03*
X20450000Y-11350000I-50000J0D01*
G01*
X26500000Y-9700000D02*
G75*
G03*
X26200000Y-9400000I-300000J0D01*
G01*
X26200000Y-15000000D02*
G75*
G03*
X26500000Y-14700000I0J300000D01*
G01*
X16500000Y-14704800D02*
G75*
G03*
X16794800Y-15000000I295200J0D01*
G01*
X16800000Y-9400000D02*
G75*
G03*
X16494800Y-9705200I0J-305200D01*
G01*
X26200000Y-9400000D02*
X16800000Y-9400000D01*
X20450000Y-13050000D02*
X20050000Y-13050000D01*
X20500000Y-11400000D02*
X20500000Y-13000000D01*
X20050000Y-11350000D02*
X20450000Y-11350000D01*
X26500000Y-14700000D02*
X26500000Y-9700000D01*
X16794800Y-15000000D02*
X26200000Y-15000000D01*
X16494800Y-9705200D02*
X16500000Y-14704800D01*
D11*
X18014200Y-14436600D02*
X18074200Y-14496600D01*
X18074200Y-14436600D02*
X18014200Y-14496600D01*
X18496800Y-10550400D02*
X18556800Y-10610400D01*
X18556800Y-10550400D02*
X18496800Y-10610400D01*
X18623800Y-10550400D02*
X18683800Y-10610400D01*
X18683800Y-10550400D02*
X18623800Y-10610400D01*
X20579600Y-10626600D02*
X20639600Y-10686600D01*
X20639600Y-10626600D02*
X20579600Y-10686600D01*
X20681200Y-10626600D02*
X20741200Y-10686600D01*
X20741200Y-10626600D02*
X20681200Y-10686600D01*
X20833600Y-13344400D02*
X20893600Y-13404400D01*
X20893600Y-13344400D02*
X20833600Y-13404400D01*
X21163800Y-10017000D02*
X21223800Y-10077000D01*
X21223800Y-10017000D02*
X21163800Y-10077000D01*
X21417800Y-10017000D02*
X21477800Y-10077000D01*
X21477800Y-10017000D02*
X21417800Y-10077000D01*
X21595600Y-11998200D02*
X21655600Y-12058200D01*
X21655600Y-11998200D02*
X21595600Y-12058200D01*
X21722600Y-12506200D02*
X21782600Y-12566200D01*
X21782600Y-12506200D02*
X21722600Y-12566200D01*
X22103600Y-11693400D02*
X22163600Y-11753400D01*
X22163600Y-11693400D02*
X22103600Y-11753400D01*
X22129000Y-10372600D02*
X22189000Y-10432600D01*
X22189000Y-10372600D02*
X22129000Y-10432600D01*
X22129000Y-10728200D02*
X22189000Y-10788200D01*
X22189000Y-10728200D02*
X22129000Y-10788200D01*
X22383000Y-13700000D02*
X22443000Y-13760000D01*
X22443000Y-13700000D02*
X22383000Y-13760000D01*
X22662400Y-11845800D02*
X22722400Y-11905800D01*
X22722400Y-11845800D02*
X22662400Y-11905800D01*
X22687800Y-14081000D02*
X22747800Y-14141000D01*
X22747800Y-14081000D02*
X22687800Y-14141000D01*
X23092699Y-12684000D02*
X23152699Y-12744000D01*
X23152699Y-12684000D02*
X23092699Y-12744000D01*
X23145000Y-10245600D02*
X23205000Y-10305600D01*
X23205000Y-10245600D02*
X23145000Y-10305600D01*
X23145000Y-11820400D02*
X23205000Y-11880400D01*
X23205000Y-11820400D02*
X23145000Y-11880400D01*
X23170400Y-11058400D02*
X23230400Y-11118400D01*
X23230400Y-11058400D02*
X23170400Y-11118400D01*
X23170400Y-11185400D02*
X23230400Y-11245400D01*
X23230400Y-11185400D02*
X23170400Y-11245400D01*
X23170400Y-12782599D02*
X23230400Y-12842599D01*
X23230400Y-12782599D02*
X23170400Y-12842599D01*
X23195800Y-12938000D02*
X23255800Y-12998000D01*
X23255800Y-12938000D02*
X23195800Y-12998000D01*
X23400501Y-10237199D02*
X23460501Y-10297199D01*
X23460501Y-10237199D02*
X23400501Y-10297199D01*
X23400501Y-10347200D02*
X23460501Y-10407200D01*
X23460501Y-10347200D02*
X23400501Y-10407200D01*
X23535353Y-12926840D02*
X23595353Y-12986840D01*
X23595353Y-12926840D02*
X23535353Y-12986840D01*
X23538083Y-12756737D02*
X23598083Y-12816737D01*
X23598083Y-12756737D02*
X23538083Y-12816737D01*
X23576800Y-13039600D02*
X23636800Y-13099600D01*
X23636800Y-13039600D02*
X23576800Y-13099600D01*
X23620545Y-12829539D02*
X23680545Y-12889539D01*
X23680545Y-12829539D02*
X23620545Y-12889539D01*
X23626953Y-12674138D02*
X23686953Y-12734138D01*
X23686953Y-12674138D02*
X23626953Y-12734138D01*
X23627600Y-11058400D02*
X23687600Y-11118400D01*
X23687600Y-11058400D02*
X23627600Y-11118400D01*
X23627600Y-11185400D02*
X23687600Y-11245400D01*
X23687600Y-11185400D02*
X23627600Y-11245400D01*
X23754600Y-11541000D02*
X23814600Y-11601000D01*
X23814600Y-11541000D02*
X23754600Y-11601000D01*
X23754600Y-11947400D02*
X23814600Y-12007400D01*
X23814600Y-11947400D02*
X23754600Y-12007400D01*
X23754600Y-12353800D02*
X23814600Y-12413800D01*
X23814600Y-12353800D02*
X23754600Y-12413800D01*
X23781279Y-11434283D02*
X23841279Y-11494283D01*
X23841279Y-11434283D02*
X23781279Y-11494283D01*
X24135600Y-12582400D02*
X24195600Y-12642400D01*
X24195600Y-12582400D02*
X24135600Y-12642400D01*
X24288000Y-10982200D02*
X24348000Y-11042200D01*
X24348000Y-10982200D02*
X24288000Y-11042200D01*
X24426445Y-11398169D02*
X24486445Y-11458169D01*
X24486445Y-11398169D02*
X24426445Y-11458169D01*
X24491200Y-11595550D02*
X24551200Y-11655550D01*
X24551200Y-11595550D02*
X24491200Y-11655550D01*
X24502960Y-11310322D02*
X24562960Y-11370322D01*
X24562960Y-11310322D02*
X24502960Y-11370322D01*
X24542000Y-11082299D02*
X24602000Y-11142299D01*
X24602000Y-11082299D02*
X24542000Y-11142299D01*
X24694400Y-11896600D02*
X24754400Y-11956600D01*
X24754400Y-11896600D02*
X24694400Y-11956600D01*
X24819559Y-11337800D02*
X24879559Y-11397800D01*
X24879559Y-11337800D02*
X24819559Y-11397800D01*
X25024600Y-11769600D02*
X25084600Y-11829600D01*
X25084600Y-11769600D02*
X25024600Y-11829600D01*
X25202400Y-11718800D02*
X25262400Y-11778800D01*
X25262400Y-11718800D02*
X25202400Y-11778800D01*
X25227800Y-11947400D02*
X25287800Y-12007400D01*
X25287800Y-11947400D02*
X25227800Y-12007400D01*
X25532600Y-12176000D02*
X25592600Y-12236000D01*
X25592600Y-12176000D02*
X25532600Y-12236000D01*
X25558000Y-11541000D02*
X25618000Y-11601000D01*
X25618000Y-11541000D02*
X25558000Y-11601000D01*
X25685000Y-11845800D02*
X25745000Y-11905800D01*
X25745000Y-11845800D02*
X25685000Y-11905800D01*
X17802900Y-14873000D02*
G75*
G03*
X17802900Y-14873000I-38100J0D01*
G01*
X18056900Y-14873000D02*
G75*
G03*
X18056900Y-14873000I-38100J0D01*
G01*
X18310900Y-14873000D02*
G75*
G03*
X18310900Y-14873000I-38100J0D01*
G01*
X18564900Y-14873000D02*
G75*
G03*
X18564900Y-14873000I-38100J0D01*
G01*
X18818900Y-14873000D02*
G75*
G03*
X18818900Y-14873000I-38100J0D01*
G01*
X19072900Y-14873000D02*
G75*
G03*
X19072900Y-14873000I-38100J0D01*
G01*
X19250700Y-11901200D02*
G75*
G03*
X19250700Y-11901200I-38100J0D01*
G01*
X19250700Y-12155200D02*
G75*
G03*
X19250700Y-12155200I-38100J0D01*
G01*
X19250700Y-12409200D02*
G75*
G03*
X19250700Y-12409200I-38100J0D01*
G01*
X19250700Y-12663200D02*
G75*
G03*
X19250700Y-12663200I-38100J0D01*
G01*
X19250700Y-12917200D02*
G75*
G03*
X19250700Y-12917200I-38100J0D01*
G01*
X19326900Y-14873000D02*
G75*
G03*
X19326900Y-14873000I-38100J0D01*
G01*
X23721100Y-10428000D02*
G75*
G03*
X23721100Y-10428000I-38100J0D01*
G01*
X23975100Y-10428000D02*
G75*
G03*
X23975100Y-10428000I-38100J0D01*
G01*
X24229100Y-10428000D02*
G75*
G03*
X24229100Y-10428000I-38100J0D01*
G01*
X24483100Y-10428000D02*
G75*
G03*
X24483100Y-10428000I-38100J0D01*
G01*
X24737100Y-10428000D02*
G75*
G03*
X24737100Y-10428000I-38100J0D01*
G01*
X24991100Y-10428000D02*
G75*
G03*
X24991100Y-10428000I-38100J0D01*
G01*
X25245100Y-10428000D02*
G75*
G03*
X25245100Y-10428000I-38100J0D01*
G01*
X25356000Y-8179200D02*
G75*
G03*
X25356000Y-8179200I-38100J0D01*
G01*
X25364400Y-7576200D02*
G75*
G03*
X25364400Y-7576200I-38100J0D01*
G01*
X25364400Y-7777200D02*
G75*
G03*
X25364400Y-7777200I-38100J0D01*
G01*
X25364400Y-7978200D02*
G75*
G03*
X25364400Y-7978200I-38100J0D01*
G01*
X25364400Y-8380200D02*
G75*
G03*
X25364400Y-8380200I-38100J0D01*
G01*
X25364400Y-8581200D02*
G75*
G03*
X25364400Y-8581200I-38100J0D01*
G01*
X25499100Y-10428000D02*
G75*
G03*
X25499100Y-10428000I-38100J0D01*
G01*
X25905500Y-11774200D02*
G75*
G03*
X25905500Y-11774200I-38100J0D01*
G01*
X25905500Y-12028200D02*
G75*
G03*
X25905500Y-12028200I-38100J0D01*
G01*
X25905500Y-12282200D02*
G75*
G03*
X25905500Y-12282200I-38100J0D01*
G01*
X25905500Y-12536200D02*
G75*
G03*
X25905500Y-12536200I-38100J0D01*
G01*
X25905500Y-12790200D02*
G75*
G03*
X25905500Y-12790200I-38100J0D01*
G01*
X25905500Y-13044200D02*
G75*
G03*
X25905500Y-13044200I-38100J0D01*
G01*
X25905500Y-13298200D02*
G75*
G03*
X25905500Y-13298200I-38100J0D01*
G01*
X25905500Y-13552200D02*
G75*
G03*
X25905500Y-13552200I-38100J0D01*
G01*
X25905500Y-13806200D02*
G75*
G03*
X25905500Y-13806200I-38100J0D01*
G01*
X25905500Y-14060200D02*
G75*
G03*
X25905500Y-14060200I-38100J0D01*
G01*
X17846600Y-8103750D02*
X17846600Y-8180250D01*
X17808350Y-8142000D02*
X17884850Y-8142000D01*
X18546600Y-8103750D02*
X18546600Y-8180250D01*
X18508350Y-8142000D02*
X18584850Y-8142000D01*
X20310400Y-8129150D02*
X20310400Y-8205650D01*
X20272150Y-8167400D02*
X20348650Y-8167400D01*
X21010400Y-8129150D02*
X21010400Y-8205650D01*
X20972150Y-8167400D02*
X21048650Y-8167400D01*
X16777084Y-10761085D02*
X16777084Y-10704516D01*
X16720515Y-10704516D01*
X16720515Y-10761085D01*
X16777084Y-10761085D01*
X17539085Y-10761085D02*
X17539085Y-10704516D01*
X17482516Y-10704516D01*
X17482516Y-10761085D01*
X17539085Y-10761085D01*
X20837000Y-9673000D02*
X20887000Y-9623000D01*
X20837000Y-9573000D01*
X20787000Y-9623000D01*
X20837000Y-9673000D01*
X20837000Y-9927000D02*
X20887000Y-9877000D01*
X20837000Y-9827000D01*
X20787000Y-9877000D01*
X20837000Y-9927000D01*
X21091000Y-9673000D02*
X21141000Y-9623000D01*
X21091000Y-9573000D01*
X21041000Y-9623000D01*
X21091000Y-9673000D01*
X21091000Y-9927000D02*
X21141000Y-9877000D01*
X21091000Y-9827000D01*
X21041000Y-9877000D01*
X21091000Y-9927000D01*
X21345000Y-9673000D02*
X21395000Y-9623000D01*
X21345000Y-9573000D01*
X21295000Y-9623000D01*
X21345000Y-9673000D01*
X21345000Y-9927000D02*
X21395000Y-9877000D01*
X21345000Y-9827000D01*
X21295000Y-9877000D01*
X21345000Y-9927000D01*
X21599000Y-9673000D02*
X21649000Y-9623000D01*
X21599000Y-9573000D01*
X21549000Y-9623000D01*
X21599000Y-9673000D01*
X21599000Y-9927000D02*
X21649000Y-9877000D01*
X21599000Y-9827000D01*
X21549000Y-9877000D01*
X21599000Y-9927000D01*
X21853000Y-9673000D02*
X21903000Y-9623000D01*
X21853000Y-9573000D01*
X21803000Y-9623000D01*
X21853000Y-9673000D01*
X21853000Y-9927000D02*
X21903000Y-9877000D01*
X21853000Y-9827000D01*
X21803000Y-9877000D01*
X21853000Y-9927000D01*
X22107000Y-9673000D02*
X22157000Y-9623000D01*
X22107000Y-9573000D01*
X22057000Y-9623000D01*
X22107000Y-9673000D01*
X22107000Y-9927000D02*
X22157000Y-9877000D01*
X22107000Y-9827000D01*
X22057000Y-9877000D01*
X22107000Y-9927000D01*
X22361000Y-9673000D02*
X22411000Y-9623000D01*
X22361000Y-9573000D01*
X22311000Y-9623000D01*
X22361000Y-9673000D01*
X22361000Y-9927000D02*
X22411000Y-9877000D01*
X22361000Y-9827000D01*
X22311000Y-9877000D01*
X22361000Y-9927000D01*
X22615000Y-9673000D02*
X22665000Y-9623000D01*
X22615000Y-9573000D01*
X22565000Y-9623000D01*
X22615000Y-9673000D01*
X22615000Y-9927000D02*
X22665000Y-9877000D01*
X22615000Y-9827000D01*
X22565000Y-9877000D01*
X22615000Y-9927000D01*
X22869000Y-9673000D02*
X22919000Y-9623000D01*
X22869000Y-9573000D01*
X22819000Y-9623000D01*
X22869000Y-9673000D01*
X22869000Y-9927000D02*
X22919000Y-9877000D01*
X22869000Y-9827000D01*
X22819000Y-9877000D01*
X22869000Y-9927000D01*
X23123000Y-9673000D02*
X23173000Y-9623000D01*
X23123000Y-9573000D01*
X23073000Y-9623000D01*
X23123000Y-9673000D01*
X23123000Y-9927000D02*
X23173000Y-9877000D01*
X23123000Y-9827000D01*
X23073000Y-9877000D01*
X23123000Y-9927000D01*
X23377000Y-9673000D02*
X23427000Y-9623000D01*
X23377000Y-9573000D01*
X23327000Y-9623000D01*
X23377000Y-9673000D01*
X23377000Y-9927000D02*
X23427000Y-9877000D01*
X23377000Y-9827000D01*
X23327000Y-9877000D01*
X23377000Y-9927000D01*
X23631000Y-9673000D02*
X23681000Y-9623000D01*
X23631000Y-9573000D01*
X23581000Y-9623000D01*
X23631000Y-9673000D01*
X23631000Y-9927000D02*
X23681000Y-9877000D01*
X23631000Y-9827000D01*
X23581000Y-9877000D01*
X23631000Y-9927000D01*
X23885000Y-9673000D02*
X23935000Y-9623000D01*
X23885000Y-9573000D01*
X23835000Y-9623000D01*
X23885000Y-9673000D01*
X23885000Y-9927000D02*
X23935000Y-9877000D01*
X23885000Y-9827000D01*
X23835000Y-9877000D01*
X23885000Y-9927000D01*
X24139000Y-9673000D02*
X24189000Y-9623000D01*
X24139000Y-9573000D01*
X24089000Y-9623000D01*
X24139000Y-9673000D01*
X24139000Y-9927000D02*
X24189000Y-9877000D01*
X24139000Y-9827000D01*
X24089000Y-9877000D01*
X24139000Y-9927000D01*
X24393000Y-9673000D02*
X24443000Y-9623000D01*
X24393000Y-9573000D01*
X24343000Y-9623000D01*
X24393000Y-9673000D01*
X24393000Y-9927000D02*
X24443000Y-9877000D01*
X24393000Y-9827000D01*
X24343000Y-9877000D01*
X24393000Y-9927000D01*
X24647000Y-9673000D02*
X24697000Y-9623000D01*
X24647000Y-9573000D01*
X24597000Y-9623000D01*
X24647000Y-9673000D01*
X24647000Y-9927000D02*
X24697000Y-9877000D01*
X24647000Y-9827000D01*
X24597000Y-9877000D01*
X24647000Y-9927000D01*
X24901000Y-9673000D02*
X24951000Y-9623000D01*
X24901000Y-9573000D01*
X24851000Y-9623000D01*
X24901000Y-9673000D01*
X24901000Y-9927000D02*
X24951000Y-9877000D01*
X24901000Y-9827000D01*
X24851000Y-9877000D01*
X24901000Y-9927000D01*
X25155000Y-9673000D02*
X25205000Y-9623000D01*
X25155000Y-9573000D01*
X25105000Y-9623000D01*
X25155000Y-9673000D01*
X25155000Y-9927000D02*
X25205000Y-9877000D01*
X25155000Y-9827000D01*
X25105000Y-9877000D01*
X25155000Y-9927000D01*
X25409000Y-9673000D02*
X25459000Y-9623000D01*
X25409000Y-9573000D01*
X25359000Y-9623000D01*
X25409000Y-9673000D01*
X25409000Y-9927000D02*
X25459000Y-9877000D01*
X25409000Y-9827000D01*
X25359000Y-9877000D01*
X25409000Y-9927000D01*
X25663000Y-9673000D02*
X25713000Y-9623000D01*
X25663000Y-9573000D01*
X25613000Y-9623000D01*
X25663000Y-9673000D01*
X25663000Y-9927000D02*
X25713000Y-9877000D01*
X25663000Y-9827000D01*
X25613000Y-9877000D01*
X25663000Y-9927000D01*
X16688800Y-11159400D02*
X16808800Y-11279400D01*
X16808800Y-11159400D02*
X16688800Y-11279400D01*
X16808800Y-11219400D02*
G75*
G03*
X16808800Y-11219400I-60000J0D01*
G01*
X16688800Y-11409400D02*
X16808800Y-11529400D01*
X16808800Y-11409400D02*
X16688800Y-11529400D01*
X16808800Y-11469400D02*
G75*
G03*
X16808800Y-11469400I-60000J0D01*
G01*
X17112800Y-7980400D02*
X17232800Y-8100400D01*
X17232800Y-7980400D02*
X17112800Y-8100400D01*
X17232800Y-8040400D02*
G75*
G03*
X17232800Y-8040400I-60000J0D01*
G01*
X17175100Y-7747900D02*
X17295100Y-7867900D01*
X17295100Y-7747900D02*
X17175100Y-7867900D01*
X17295100Y-7807900D02*
G75*
G03*
X17295100Y-7807900I-60000J0D01*
G01*
X17175100Y-8212900D02*
X17295100Y-8332900D01*
X17295100Y-8212900D02*
X17175100Y-8332900D01*
X17295100Y-8272900D02*
G75*
G03*
X17295100Y-8272900I-60000J0D01*
G01*
X17345300Y-7577700D02*
X17465300Y-7697700D01*
X17465300Y-7577700D02*
X17345300Y-7697700D01*
X17465300Y-7637700D02*
G75*
G03*
X17465300Y-7637700I-60000J0D01*
G01*
X17345300Y-8383100D02*
X17465300Y-8503100D01*
X17465300Y-8383100D02*
X17345300Y-8503100D01*
X17465300Y-8443100D02*
G75*
G03*
X17465300Y-8443100I-60000J0D01*
G01*
X17577800Y-7515400D02*
X17697800Y-7635400D01*
X17697800Y-7515400D02*
X17577800Y-7635400D01*
X17697800Y-7575400D02*
G75*
G03*
X17697800Y-7575400I-60000J0D01*
G01*
X17577800Y-8445400D02*
X17697800Y-8565400D01*
X17697800Y-8445400D02*
X17577800Y-8565400D01*
X17697800Y-8505400D02*
G75*
G03*
X17697800Y-8505400I-60000J0D01*
G01*
X17810300Y-7577700D02*
X17930300Y-7697700D01*
X17930300Y-7577700D02*
X17810300Y-7697700D01*
X17930300Y-7637700D02*
G75*
G03*
X17930300Y-7637700I-60000J0D01*
G01*
X17810300Y-8383100D02*
X17930300Y-8503100D01*
X17930300Y-8383100D02*
X17810300Y-8503100D01*
X17930300Y-8443100D02*
G75*
G03*
X17930300Y-8443100I-60000J0D01*
G01*
X17980500Y-7747900D02*
X18100500Y-7867900D01*
X18100500Y-7747900D02*
X17980500Y-7867900D01*
X18100500Y-7807900D02*
G75*
G03*
X18100500Y-7807900I-60000J0D01*
G01*
X17980500Y-8212900D02*
X18100500Y-8332900D01*
X18100500Y-8212900D02*
X17980500Y-8332900D01*
X18100500Y-8272900D02*
G75*
G03*
X18100500Y-8272900I-60000J0D01*
G01*
X18042800Y-7980400D02*
X18162800Y-8100400D01*
X18162800Y-7980400D02*
X18042800Y-8100400D01*
X18162800Y-8040400D02*
G75*
G03*
X18162800Y-8040400I-60000J0D01*
G01*
X18492200Y-7091400D02*
X18612200Y-7211400D01*
X18612200Y-7091400D02*
X18492200Y-7211400D01*
X18612200Y-7151400D02*
G75*
G03*
X18612200Y-7151400I-60000J0D01*
G01*
X18492200Y-7341400D02*
X18612200Y-7461400D01*
X18612200Y-7341400D02*
X18492200Y-7461400D01*
X18612200Y-7401400D02*
G75*
G03*
X18612200Y-7401400I-60000J0D01*
G01*
X18492200Y-7591400D02*
X18612200Y-7711400D01*
X18612200Y-7591400D02*
X18492200Y-7711400D01*
X18612200Y-7651400D02*
G75*
G03*
X18612200Y-7651400I-60000J0D01*
G01*
X20194000Y-13568400D02*
X20314000Y-13688400D01*
X20314000Y-13568400D02*
X20194000Y-13688400D01*
X20314000Y-13628400D02*
G75*
G03*
X20314000Y-13628400I-60000J0D01*
G01*
X20194000Y-14381200D02*
X20314000Y-14501200D01*
X20314000Y-14381200D02*
X20194000Y-14501200D01*
X20314000Y-14441200D02*
G75*
G03*
X20314000Y-14441200I-60000J0D01*
G01*
X20270200Y-7091400D02*
X20390200Y-7211400D01*
X20390200Y-7091400D02*
X20270200Y-7211400D01*
X20390200Y-7151400D02*
G75*
G03*
X20390200Y-7151400I-60000J0D01*
G01*
X20270200Y-7341400D02*
X20390200Y-7461400D01*
X20390200Y-7341400D02*
X20270200Y-7461400D01*
X20390200Y-7401400D02*
G75*
G03*
X20390200Y-7401400I-60000J0D01*
G01*
X20270200Y-7591400D02*
X20390200Y-7711400D01*
X20390200Y-7591400D02*
X20270200Y-7711400D01*
X20390200Y-7651400D02*
G75*
G03*
X20390200Y-7651400I-60000J0D01*
G01*
X20444000Y-13568400D02*
X20564000Y-13688400D01*
X20564000Y-13568400D02*
X20444000Y-13688400D01*
X20564000Y-13628400D02*
G75*
G03*
X20564000Y-13628400I-60000J0D01*
G01*
X20444000Y-14381200D02*
X20564000Y-14501200D01*
X20564000Y-14381200D02*
X20444000Y-14501200D01*
X20564000Y-14441200D02*
G75*
G03*
X20564000Y-14441200I-60000J0D01*
G01*
X20694000Y-13568400D02*
X20814000Y-13688400D01*
X20814000Y-13568400D02*
X20694000Y-13688400D01*
X20814000Y-13628400D02*
G75*
G03*
X20814000Y-13628400I-60000J0D01*
G01*
X20694000Y-14381200D02*
X20814000Y-14501200D01*
X20814000Y-14381200D02*
X20694000Y-14501200D01*
X20814000Y-14441200D02*
G75*
G03*
X20814000Y-14441200I-60000J0D01*
G01*
X20694200Y-7980400D02*
X20814200Y-8100400D01*
X20814200Y-7980400D02*
X20694200Y-8100400D01*
X20814200Y-8040400D02*
G75*
G03*
X20814200Y-8040400I-60000J0D01*
G01*
X20756500Y-7747900D02*
X20876500Y-7867900D01*
X20876500Y-7747900D02*
X20756500Y-7867900D01*
X20876500Y-7807900D02*
G75*
G03*
X20876500Y-7807900I-60000J0D01*
G01*
X20756500Y-8212900D02*
X20876500Y-8332900D01*
X20876500Y-8212900D02*
X20756500Y-8332900D01*
X20876500Y-8272900D02*
G75*
G03*
X20876500Y-8272900I-60000J0D01*
G01*
X20926700Y-7577700D02*
X21046700Y-7697700D01*
X21046700Y-7577700D02*
X20926700Y-7697700D01*
X21046700Y-7637700D02*
G75*
G03*
X21046700Y-7637700I-60000J0D01*
G01*
X20926700Y-8383100D02*
X21046700Y-8503100D01*
X21046700Y-8383100D02*
X20926700Y-8503100D01*
X21046700Y-8443100D02*
G75*
G03*
X21046700Y-8443100I-60000J0D01*
G01*
X20944000Y-13568400D02*
X21064000Y-13688400D01*
X21064000Y-13568400D02*
X20944000Y-13688400D01*
X21064000Y-13628400D02*
G75*
G03*
X21064000Y-13628400I-60000J0D01*
G01*
X20944000Y-14381200D02*
X21064000Y-14501200D01*
X21064000Y-14381200D02*
X20944000Y-14501200D01*
X21064000Y-14441200D02*
G75*
G03*
X21064000Y-14441200I-60000J0D01*
G01*
X21159200Y-7515400D02*
X21279200Y-7635400D01*
X21279200Y-7515400D02*
X21159200Y-7635400D01*
X21279200Y-7575400D02*
G75*
G03*
X21279200Y-7575400I-60000J0D01*
G01*
X21159200Y-8445400D02*
X21279200Y-8565400D01*
X21279200Y-8445400D02*
X21159200Y-8565400D01*
X21279200Y-8505400D02*
G75*
G03*
X21279200Y-8505400I-60000J0D01*
G01*
X21391700Y-7577700D02*
X21511700Y-7697700D01*
X21511700Y-7577700D02*
X21391700Y-7697700D01*
X21511700Y-7637700D02*
G75*
G03*
X21511700Y-7637700I-60000J0D01*
G01*
X21391700Y-8383100D02*
X21511700Y-8503100D01*
X21511700Y-8383100D02*
X21391700Y-8503100D01*
X21511700Y-8443100D02*
G75*
G03*
X21511700Y-8443100I-60000J0D01*
G01*
X21561900Y-7747900D02*
X21681900Y-7867900D01*
X21681900Y-7747900D02*
X21561900Y-7867900D01*
X21681900Y-7807900D02*
G75*
G03*
X21681900Y-7807900I-60000J0D01*
G01*
X21561900Y-8212900D02*
X21681900Y-8332900D01*
X21681900Y-8212900D02*
X21561900Y-8332900D01*
X21681900Y-8272900D02*
G75*
G03*
X21681900Y-8272900I-60000J0D01*
G01*
X21624200Y-7980400D02*
X21744200Y-8100400D01*
X21744200Y-7980400D02*
X21624200Y-8100400D01*
X21744200Y-8040400D02*
G75*
G03*
X21744200Y-8040400I-60000J0D01*
G01*
X23292800Y-13568400D02*
X23412800Y-13688400D01*
X23412800Y-13568400D02*
X23292800Y-13688400D01*
X23412800Y-13628400D02*
G75*
G03*
X23412800Y-13628400I-60000J0D01*
G01*
X23292800Y-14381200D02*
X23412800Y-14501200D01*
X23412800Y-14381200D02*
X23292800Y-14501200D01*
X23412800Y-14441200D02*
G75*
G03*
X23412800Y-14441200I-60000J0D01*
G01*
X23542800Y-13568400D02*
X23662800Y-13688400D01*
X23662800Y-13568400D02*
X23542800Y-13688400D01*
X23662800Y-13628400D02*
G75*
G03*
X23662800Y-13628400I-60000J0D01*
G01*
X23542800Y-14381200D02*
X23662800Y-14501200D01*
X23662800Y-14381200D02*
X23542800Y-14501200D01*
X23662800Y-14441200D02*
G75*
G03*
X23662800Y-14441200I-60000J0D01*
G01*
X23792800Y-13568400D02*
X23912800Y-13688400D01*
X23912800Y-13568400D02*
X23792800Y-13688400D01*
X23912800Y-13628400D02*
G75*
G03*
X23912800Y-13628400I-60000J0D01*
G01*
X23792800Y-14381200D02*
X23912800Y-14501200D01*
X23912800Y-14381200D02*
X23792800Y-14501200D01*
X23912800Y-14441200D02*
G75*
G03*
X23912800Y-14441200I-60000J0D01*
G01*
X24042800Y-13568400D02*
X24162800Y-13688400D01*
X24162800Y-13568400D02*
X24042800Y-13688400D01*
X24162800Y-13628400D02*
G75*
G03*
X24162800Y-13628400I-60000J0D01*
G01*
X24042800Y-14381200D02*
X24162800Y-14501200D01*
X24162800Y-14381200D02*
X24042800Y-14501200D01*
X24162800Y-14441200D02*
G75*
G03*
X24162800Y-14441200I-60000J0D01*
G01*
X25832800Y-7734400D02*
X25952800Y-7854400D01*
X25952800Y-7734400D02*
X25832800Y-7854400D01*
X25952800Y-7794400D02*
G75*
G03*
X25952800Y-7794400I-60000J0D01*
G01*
X25832800Y-7984400D02*
X25952800Y-8104400D01*
X25952800Y-7984400D02*
X25832800Y-8104400D01*
X25952800Y-8044400D02*
G75*
G03*
X25952800Y-8044400I-60000J0D01*
G01*
X25832800Y-8234400D02*
X25952800Y-8354400D01*
X25952800Y-8234400D02*
X25832800Y-8354400D01*
X25952800Y-8294400D02*
G75*
G03*
X25952800Y-8294400I-60000J0D01*
G01*
X25832800Y-10376000D02*
X25952800Y-10496000D01*
X25952800Y-10376000D02*
X25832800Y-10496000D01*
X25952800Y-10436000D02*
G75*
G03*
X25952800Y-10436000I-60000J0D01*
G01*
X25832800Y-10626000D02*
X25952800Y-10746000D01*
X25952800Y-10626000D02*
X25832800Y-10746000D01*
X25952800Y-10686000D02*
G75*
G03*
X25952800Y-10686000I-60000J0D01*
G01*
X25832800Y-10876000D02*
X25952800Y-10996000D01*
X25952800Y-10876000D02*
X25832800Y-10996000D01*
X25952800Y-10936000D02*
G75*
G03*
X25952800Y-10936000I-60000J0D01*
G01*
X17422900Y-10162300D02*
X17547900Y-10287300D01*
X17547900Y-10162300D02*
X17422900Y-10287300D01*
X17485400Y-10162300D02*
X17485400Y-10287300D01*
X17422900Y-10224800D02*
X17547900Y-10224800D01*
X17676900Y-10162300D02*
X17801900Y-10287300D01*
X17801900Y-10162300D02*
X17676900Y-10287300D01*
X17739400Y-10162300D02*
X17739400Y-10287300D01*
X17676900Y-10224800D02*
X17801900Y-10224800D01*
X17930900Y-10162300D02*
X18055900Y-10287300D01*
X18055900Y-10162300D02*
X17930900Y-10287300D01*
X17993400Y-10162300D02*
X17993400Y-10287300D01*
X17930900Y-10224800D02*
X18055900Y-10224800D01*
X18184900Y-10162300D02*
X18309900Y-10287300D01*
X18309900Y-10162300D02*
X18184900Y-10287300D01*
X18247400Y-10162300D02*
X18247400Y-10287300D01*
X18184900Y-10224800D02*
X18309900Y-10224800D01*
X18438900Y-10162300D02*
X18563900Y-10287300D01*
X18563900Y-10162300D02*
X18438900Y-10287300D01*
X18501400Y-10162300D02*
X18501400Y-10287300D01*
X18438900Y-10224800D02*
X18563900Y-10224800D01*
X18692900Y-10162300D02*
X18817900Y-10287300D01*
X18817900Y-10162300D02*
X18692900Y-10287300D01*
X18755400Y-10162300D02*
X18755400Y-10287300D01*
X18692900Y-10224800D02*
X18817900Y-10224800D01*
X18946900Y-10162300D02*
X19071900Y-10287300D01*
X19071900Y-10162300D02*
X18946900Y-10287300D01*
X19009400Y-10162300D02*
X19009400Y-10287300D01*
X18946900Y-10224800D02*
X19071900Y-10224800D01*
X19200900Y-10162300D02*
X19325900Y-10287300D01*
X19325900Y-10162300D02*
X19200900Y-10287300D01*
X19263400Y-10162300D02*
X19263400Y-10287300D01*
X19200900Y-10224800D02*
X19325900Y-10224800D01*
X19454900Y-10162300D02*
X19579900Y-10287300D01*
X19579900Y-10162300D02*
X19454900Y-10287300D01*
X19517400Y-10162300D02*
X19517400Y-10287300D01*
X19454900Y-10224800D02*
X19579900Y-10224800D01*
X19708900Y-10162300D02*
X19833900Y-10287300D01*
X19833900Y-10162300D02*
X19708900Y-10287300D01*
X19771400Y-10162300D02*
X19771400Y-10287300D01*
X19708900Y-10224800D02*
X19833900Y-10224800D01*
X19962900Y-10162300D02*
X20087900Y-10287300D01*
X20087900Y-10162300D02*
X19962900Y-10287300D01*
X20025400Y-10162300D02*
X20025400Y-10287300D01*
X19962900Y-10224800D02*
X20087900Y-10224800D01*
X20216900Y-10162300D02*
X20341900Y-10287300D01*
X20341900Y-10162300D02*
X20216900Y-10287300D01*
X20279400Y-10162300D02*
X20279400Y-10287300D01*
X20216900Y-10224800D02*
X20341900Y-10224800D01*
X17557800Y-7718900D02*
X17717800Y-7878900D01*
X17717800Y-7718900D02*
X17557800Y-7878900D01*
X17694369Y-7855469D02*
X17694369Y-7742331D01*
X17581231Y-7742331D01*
X17581231Y-7855469D01*
X17694369Y-7855469D01*
X17557800Y-8201900D02*
X17717800Y-8361900D01*
X17717800Y-8201900D02*
X17557800Y-8361900D01*
X17694369Y-8338469D02*
X17694369Y-8225331D01*
X17581231Y-8225331D01*
X17581231Y-8338469D01*
X17694369Y-8338469D01*
X21139200Y-7718900D02*
X21299200Y-7878900D01*
X21299200Y-7718900D02*
X21139200Y-7878900D01*
X21275769Y-7855469D02*
X21275769Y-7742331D01*
X21162631Y-7742331D01*
X21162631Y-7855469D01*
X21275769Y-7855469D01*
X21139200Y-8201900D02*
X21299200Y-8361900D01*
X21299200Y-8201900D02*
X21139200Y-8361900D01*
X21275769Y-8338469D02*
X21275769Y-8225331D01*
X21162631Y-8225331D01*
X21162631Y-8338469D01*
X21275769Y-8338469D01*
D12*
X16776228Y-15470714D02*
X16776228Y-15170714D01*
X16847657Y-15170714D01*
X16890514Y-15185000D01*
X16919085Y-15213571D01*
X16933371Y-15242143D01*
X16947657Y-15299286D01*
X16947657Y-15342143D01*
X16933371Y-15399286D01*
X16919085Y-15427857D01*
X16890514Y-15456429D01*
X16847657Y-15470714D01*
X16776228Y-15470714D01*
X17076228Y-15470714D02*
X17076228Y-15270714D01*
X17076228Y-15327857D02*
X17090514Y-15299286D01*
X17104800Y-15285000D01*
X17133371Y-15270714D01*
X17161942Y-15270714D01*
X17261942Y-15470714D02*
X17261942Y-15270714D01*
X17261942Y-15170714D02*
X17247657Y-15185000D01*
X17261942Y-15199286D01*
X17276228Y-15185000D01*
X17261942Y-15170714D01*
X17261942Y-15199286D01*
X17447657Y-15470714D02*
X17419085Y-15456429D01*
X17404800Y-15427857D01*
X17404800Y-15170714D01*
X17604800Y-15470714D02*
X17576228Y-15456429D01*
X17561942Y-15427857D01*
X17561942Y-15170714D01*
X17947657Y-15470714D02*
X17947657Y-15170714D01*
X18047657Y-15385000D01*
X18147657Y-15170714D01*
X18147657Y-15470714D01*
X18419085Y-15470714D02*
X18419085Y-15313571D01*
X18404800Y-15285000D01*
X18376228Y-15270714D01*
X18319085Y-15270714D01*
X18290514Y-15285000D01*
X18419085Y-15456429D02*
X18390514Y-15470714D01*
X18319085Y-15470714D01*
X18290514Y-15456429D01*
X18276228Y-15427857D01*
X18276228Y-15399286D01*
X18290514Y-15370714D01*
X18319085Y-15356429D01*
X18390514Y-15356429D01*
X18419085Y-15342143D01*
X18561942Y-15270714D02*
X18561942Y-15570714D01*
X18561942Y-15285000D02*
X18590514Y-15270714D01*
X18647657Y-15270714D01*
X18676228Y-15285000D01*
X18690514Y-15299286D01*
X18704800Y-15327857D01*
X18704800Y-15413571D01*
X18690514Y-15442143D01*
X18676228Y-15456429D01*
X18647657Y-15470714D01*
X18590514Y-15470714D01*
X18561942Y-15456429D01*
X18833371Y-15442143D02*
X18847657Y-15456429D01*
X18833371Y-15470714D01*
X18819085Y-15456429D01*
X18833371Y-15442143D01*
X18833371Y-15470714D01*
X18833371Y-15285000D02*
X18847657Y-15299286D01*
X18833371Y-15313571D01*
X18819085Y-15299286D01*
X18833371Y-15285000D01*
X18833371Y-15313571D01*
X16429800Y-15935000D02*
X16489800Y-15995000D01*
X16489800Y-15935000D02*
X16429800Y-15995000D01*
X16833371Y-15800714D02*
X16861942Y-15800714D01*
X16890514Y-15815000D01*
X16904800Y-15829286D01*
X16919085Y-15857857D01*
X16933371Y-15915000D01*
X16933371Y-15986429D01*
X16919085Y-16043571D01*
X16904800Y-16072143D01*
X16890514Y-16086429D01*
X16861942Y-16100714D01*
X16833371Y-16100714D01*
X16804800Y-16086429D01*
X16790514Y-16072143D01*
X16776228Y-16043571D01*
X16761942Y-15986429D01*
X16761942Y-15915000D01*
X16776228Y-15857857D01*
X16790514Y-15829286D01*
X16804800Y-15815000D01*
X16833371Y-15800714D01*
X17061942Y-16072143D02*
X17076228Y-16086429D01*
X17061942Y-16100714D01*
X17047657Y-16086429D01*
X17061942Y-16072143D01*
X17061942Y-16100714D01*
X17333371Y-15800714D02*
X17276228Y-15800714D01*
X17247657Y-15815000D01*
X17233371Y-15829286D01*
X17204800Y-15872143D01*
X17190514Y-15929286D01*
X17190514Y-16043571D01*
X17204800Y-16072143D01*
X17219085Y-16086429D01*
X17247657Y-16100714D01*
X17304800Y-16100714D01*
X17333371Y-16086429D01*
X17347657Y-16072143D01*
X17361942Y-16043571D01*
X17361942Y-15972143D01*
X17347657Y-15943571D01*
X17333371Y-15929286D01*
X17304800Y-15915000D01*
X17247657Y-15915000D01*
X17219085Y-15929286D01*
X17204800Y-15943571D01*
X17190514Y-15972143D01*
X17547657Y-15800714D02*
X17576228Y-15800714D01*
X17604800Y-15815000D01*
X17619085Y-15829286D01*
X17633371Y-15857857D01*
X17647657Y-15915000D01*
X17647657Y-15986429D01*
X17633371Y-16043571D01*
X17619085Y-16072143D01*
X17604800Y-16086429D01*
X17576228Y-16100714D01*
X17547657Y-16100714D01*
X17519085Y-16086429D01*
X17504800Y-16072143D01*
X17490514Y-16043571D01*
X17476228Y-15986429D01*
X17476228Y-15915000D01*
X17490514Y-15857857D01*
X17504800Y-15829286D01*
X17519085Y-15815000D01*
X17547657Y-15800714D01*
X17833371Y-15800714D02*
X17861942Y-15800714D01*
X17890514Y-15815000D01*
X17904800Y-15829286D01*
X17919085Y-15857857D01*
X17933371Y-15915000D01*
X17933371Y-15986429D01*
X17919085Y-16043571D01*
X17904800Y-16072143D01*
X17890514Y-16086429D01*
X17861942Y-16100714D01*
X17833371Y-16100714D01*
X17804800Y-16086429D01*
X17790514Y-16072143D01*
X17776228Y-16043571D01*
X17761942Y-15986429D01*
X17761942Y-15915000D01*
X17776228Y-15857857D01*
X17790514Y-15829286D01*
X17804800Y-15815000D01*
X17833371Y-15800714D01*
X18061942Y-16100714D02*
X18061942Y-15900714D01*
X18061942Y-15929286D02*
X18076228Y-15915000D01*
X18104800Y-15900714D01*
X18147657Y-15900714D01*
X18176228Y-15915000D01*
X18190514Y-15943571D01*
X18190514Y-16100714D01*
X18190514Y-15943571D02*
X18204800Y-15915000D01*
X18233371Y-15900714D01*
X18276228Y-15900714D01*
X18304800Y-15915000D01*
X18319085Y-15943571D01*
X18319085Y-16100714D01*
X18461942Y-16100714D02*
X18461942Y-15900714D01*
X18461942Y-15929286D02*
X18476228Y-15915000D01*
X18504800Y-15900714D01*
X18547657Y-15900714D01*
X18576228Y-15915000D01*
X18590514Y-15943571D01*
X18590514Y-16100714D01*
X18590514Y-15943571D02*
X18604800Y-15915000D01*
X18633371Y-15900714D01*
X18676228Y-15900714D01*
X18704800Y-15915000D01*
X18719085Y-15943571D01*
X18719085Y-16100714D01*
X19304800Y-15786429D02*
X19047657Y-16172143D01*
X19690514Y-15800714D02*
X19719085Y-15800714D01*
X19747657Y-15815000D01*
X19761942Y-15829286D01*
X19776228Y-15857857D01*
X19790514Y-15915000D01*
X19790514Y-15986429D01*
X19776228Y-16043571D01*
X19761942Y-16072143D01*
X19747657Y-16086429D01*
X19719085Y-16100714D01*
X19690514Y-16100714D01*
X19661942Y-16086429D01*
X19647657Y-16072143D01*
X19633371Y-16043571D01*
X19619085Y-15986429D01*
X19619085Y-15915000D01*
X19633371Y-15857857D01*
X19647657Y-15829286D01*
X19661942Y-15815000D01*
X19690514Y-15800714D01*
X19919085Y-16072143D02*
X19933371Y-16086429D01*
X19919085Y-16100714D01*
X19904800Y-16086429D01*
X19919085Y-16072143D01*
X19919085Y-16100714D01*
X20119085Y-15800714D02*
X20147657Y-15800714D01*
X20176228Y-15815000D01*
X20190514Y-15829286D01*
X20204800Y-15857857D01*
X20219085Y-15915000D01*
X20219085Y-15986429D01*
X20204800Y-16043571D01*
X20190514Y-16072143D01*
X20176228Y-16086429D01*
X20147657Y-16100714D01*
X20119085Y-16100714D01*
X20090514Y-16086429D01*
X20076228Y-16072143D01*
X20061942Y-16043571D01*
X20047657Y-15986429D01*
X20047657Y-15915000D01*
X20061942Y-15857857D01*
X20076228Y-15829286D01*
X20090514Y-15815000D01*
X20119085Y-15800714D01*
X20333371Y-15829286D02*
X20347657Y-15815000D01*
X20376228Y-15800714D01*
X20447657Y-15800714D01*
X20476228Y-15815000D01*
X20490514Y-15829286D01*
X20504800Y-15857857D01*
X20504800Y-15886429D01*
X20490514Y-15929286D01*
X20319085Y-16100714D01*
X20504800Y-16100714D01*
X20604800Y-15800714D02*
X20790514Y-15800714D01*
X20690514Y-15915000D01*
X20733371Y-15915000D01*
X20761942Y-15929286D01*
X20776228Y-15943571D01*
X20790514Y-15972143D01*
X20790514Y-16043571D01*
X20776228Y-16072143D01*
X20761942Y-16086429D01*
X20733371Y-16100714D01*
X20647657Y-16100714D01*
X20619085Y-16086429D01*
X20604800Y-16072143D01*
X21047657Y-15800714D02*
X20990514Y-15800714D01*
X20961942Y-15815000D01*
X20947657Y-15829286D01*
X20919085Y-15872143D01*
X20904800Y-15929286D01*
X20904800Y-16043571D01*
X20919085Y-16072143D01*
X20933371Y-16086429D01*
X20961942Y-16100714D01*
X21019085Y-16100714D01*
X21047657Y-16086429D01*
X21061942Y-16072143D01*
X21076228Y-16043571D01*
X21076228Y-15972143D01*
X21061942Y-15943571D01*
X21047657Y-15929286D01*
X21019085Y-15915000D01*
X20961942Y-15915000D01*
X20933371Y-15929286D01*
X20919085Y-15943571D01*
X20904800Y-15972143D01*
X21190514Y-15800714D02*
X21190514Y-15857857D01*
X21304800Y-15800714D02*
X21304800Y-15857857D01*
X21747657Y-16215000D02*
X21733371Y-16200714D01*
X21704800Y-16157857D01*
X21690514Y-16129286D01*
X21676228Y-16086429D01*
X21661942Y-16015000D01*
X21661942Y-15957857D01*
X21676228Y-15886429D01*
X21690514Y-15843571D01*
X21704800Y-15815000D01*
X21733371Y-15772143D01*
X21747657Y-15757857D01*
X22004800Y-15800714D02*
X21861942Y-15800714D01*
X21847657Y-15943571D01*
X21861942Y-15929286D01*
X21890514Y-15915000D01*
X21961942Y-15915000D01*
X21990514Y-15929286D01*
X22004800Y-15943571D01*
X22019085Y-15972143D01*
X22019085Y-16043571D01*
X22004800Y-16072143D01*
X21990514Y-16086429D01*
X21961942Y-16100714D01*
X21890514Y-16100714D01*
X21861942Y-16086429D01*
X21847657Y-16072143D01*
X22204800Y-15800714D02*
X22233371Y-15800714D01*
X22261942Y-15815000D01*
X22276228Y-15829286D01*
X22290514Y-15857857D01*
X22304800Y-15915000D01*
X22304800Y-15986429D01*
X22290514Y-16043571D01*
X22276228Y-16072143D01*
X22261942Y-16086429D01*
X22233371Y-16100714D01*
X22204800Y-16100714D01*
X22176228Y-16086429D01*
X22161942Y-16072143D01*
X22147657Y-16043571D01*
X22133371Y-15986429D01*
X22133371Y-15915000D01*
X22147657Y-15857857D01*
X22161942Y-15829286D01*
X22176228Y-15815000D01*
X22204800Y-15800714D01*
X22661942Y-16100714D02*
X22661942Y-15800714D01*
X22790514Y-16100714D02*
X22790514Y-15943571D01*
X22776228Y-15915000D01*
X22747657Y-15900714D01*
X22704800Y-15900714D01*
X22676228Y-15915000D01*
X22661942Y-15929286D01*
X22976228Y-16100714D02*
X22947657Y-16086429D01*
X22933371Y-16072143D01*
X22919085Y-16043571D01*
X22919085Y-15957857D01*
X22933371Y-15929286D01*
X22947657Y-15915000D01*
X22976228Y-15900714D01*
X23019085Y-15900714D01*
X23047657Y-15915000D01*
X23061942Y-15929286D01*
X23076228Y-15957857D01*
X23076228Y-16043571D01*
X23061942Y-16072143D01*
X23047657Y-16086429D01*
X23019085Y-16100714D01*
X22976228Y-16100714D01*
X23247657Y-16100714D02*
X23219085Y-16086429D01*
X23204800Y-16057857D01*
X23204800Y-15800714D01*
X23476228Y-16086429D02*
X23447657Y-16100714D01*
X23390514Y-16100714D01*
X23361942Y-16086429D01*
X23347657Y-16057857D01*
X23347657Y-15943571D01*
X23361942Y-15915000D01*
X23390514Y-15900714D01*
X23447657Y-15900714D01*
X23476228Y-15915000D01*
X23490514Y-15943571D01*
X23490514Y-15972143D01*
X23347657Y-16000714D01*
X23604800Y-16086429D02*
X23633371Y-16100714D01*
X23690514Y-16100714D01*
X23719085Y-16086429D01*
X23733371Y-16057857D01*
X23733371Y-16043571D01*
X23719085Y-16015000D01*
X23690514Y-16000714D01*
X23647657Y-16000714D01*
X23619085Y-15986429D01*
X23604800Y-15957857D01*
X23604800Y-15943571D01*
X23619085Y-15915000D01*
X23647657Y-15900714D01*
X23690514Y-15900714D01*
X23719085Y-15915000D01*
X23833371Y-16215000D02*
X23847657Y-16200714D01*
X23876228Y-16157857D01*
X23890514Y-16129286D01*
X23904800Y-16086429D01*
X23919085Y-16015000D01*
X23919085Y-15957857D01*
X23904800Y-15886429D01*
X23890514Y-15843571D01*
X23876228Y-15815000D01*
X23847657Y-15772143D01*
X23833371Y-15757857D01*
X16489800Y-16361000D02*
G75*
G03*
X16489800Y-16361000I-38100J0D01*
G01*
X16833371Y-16196714D02*
X16861942Y-16196714D01*
X16890514Y-16211000D01*
X16904800Y-16225286D01*
X16919085Y-16253857D01*
X16933371Y-16311000D01*
X16933371Y-16382429D01*
X16919085Y-16439571D01*
X16904800Y-16468143D01*
X16890514Y-16482429D01*
X16861942Y-16496714D01*
X16833371Y-16496714D01*
X16804800Y-16482429D01*
X16790514Y-16468143D01*
X16776228Y-16439571D01*
X16761942Y-16382429D01*
X16761942Y-16311000D01*
X16776228Y-16253857D01*
X16790514Y-16225286D01*
X16804800Y-16211000D01*
X16833371Y-16196714D01*
X17061942Y-16468143D02*
X17076228Y-16482429D01*
X17061942Y-16496714D01*
X17047657Y-16482429D01*
X17061942Y-16468143D01*
X17061942Y-16496714D01*
X17176228Y-16196714D02*
X17376228Y-16196714D01*
X17247657Y-16496714D01*
X17619085Y-16196714D02*
X17561942Y-16196714D01*
X17533371Y-16211000D01*
X17519085Y-16225286D01*
X17490514Y-16268143D01*
X17476228Y-16325286D01*
X17476228Y-16439571D01*
X17490514Y-16468143D01*
X17504800Y-16482429D01*
X17533371Y-16496714D01*
X17590514Y-16496714D01*
X17619085Y-16482429D01*
X17633371Y-16468143D01*
X17647657Y-16439571D01*
X17647657Y-16368143D01*
X17633371Y-16339571D01*
X17619085Y-16325286D01*
X17590514Y-16311000D01*
X17533371Y-16311000D01*
X17504800Y-16325286D01*
X17490514Y-16339571D01*
X17476228Y-16368143D01*
X17761942Y-16225286D02*
X17776228Y-16211000D01*
X17804800Y-16196714D01*
X17876228Y-16196714D01*
X17904800Y-16211000D01*
X17919085Y-16225286D01*
X17933371Y-16253857D01*
X17933371Y-16282429D01*
X17919085Y-16325286D01*
X17747657Y-16496714D01*
X17933371Y-16496714D01*
X18061942Y-16496714D02*
X18061942Y-16296714D01*
X18061942Y-16325286D02*
X18076228Y-16311000D01*
X18104800Y-16296714D01*
X18147657Y-16296714D01*
X18176228Y-16311000D01*
X18190514Y-16339571D01*
X18190514Y-16496714D01*
X18190514Y-16339571D02*
X18204800Y-16311000D01*
X18233371Y-16296714D01*
X18276228Y-16296714D01*
X18304800Y-16311000D01*
X18319085Y-16339571D01*
X18319085Y-16496714D01*
X18461942Y-16496714D02*
X18461942Y-16296714D01*
X18461942Y-16325286D02*
X18476228Y-16311000D01*
X18504800Y-16296714D01*
X18547657Y-16296714D01*
X18576228Y-16311000D01*
X18590514Y-16339571D01*
X18590514Y-16496714D01*
X18590514Y-16339571D02*
X18604800Y-16311000D01*
X18633371Y-16296714D01*
X18676228Y-16296714D01*
X18704800Y-16311000D01*
X18719085Y-16339571D01*
X18719085Y-16496714D01*
X19304800Y-16182429D02*
X19047657Y-16568143D01*
X19690514Y-16196714D02*
X19719085Y-16196714D01*
X19747657Y-16211000D01*
X19761942Y-16225286D01*
X19776228Y-16253857D01*
X19790514Y-16311000D01*
X19790514Y-16382429D01*
X19776228Y-16439571D01*
X19761942Y-16468143D01*
X19747657Y-16482429D01*
X19719085Y-16496714D01*
X19690514Y-16496714D01*
X19661942Y-16482429D01*
X19647657Y-16468143D01*
X19633371Y-16439571D01*
X19619085Y-16382429D01*
X19619085Y-16311000D01*
X19633371Y-16253857D01*
X19647657Y-16225286D01*
X19661942Y-16211000D01*
X19690514Y-16196714D01*
X19919085Y-16468143D02*
X19933371Y-16482429D01*
X19919085Y-16496714D01*
X19904800Y-16482429D01*
X19919085Y-16468143D01*
X19919085Y-16496714D01*
X20119085Y-16196714D02*
X20147657Y-16196714D01*
X20176228Y-16211000D01*
X20190514Y-16225286D01*
X20204800Y-16253857D01*
X20219085Y-16311000D01*
X20219085Y-16382429D01*
X20204800Y-16439571D01*
X20190514Y-16468143D01*
X20176228Y-16482429D01*
X20147657Y-16496714D01*
X20119085Y-16496714D01*
X20090514Y-16482429D01*
X20076228Y-16468143D01*
X20061942Y-16439571D01*
X20047657Y-16382429D01*
X20047657Y-16311000D01*
X20061942Y-16253857D01*
X20076228Y-16225286D01*
X20090514Y-16211000D01*
X20119085Y-16196714D01*
X20319085Y-16196714D02*
X20504800Y-16196714D01*
X20404800Y-16311000D01*
X20447657Y-16311000D01*
X20476228Y-16325286D01*
X20490514Y-16339571D01*
X20504800Y-16368143D01*
X20504800Y-16439571D01*
X20490514Y-16468143D01*
X20476228Y-16482429D01*
X20447657Y-16496714D01*
X20361942Y-16496714D01*
X20333371Y-16482429D01*
X20319085Y-16468143D01*
X20690514Y-16196714D02*
X20719085Y-16196714D01*
X20747657Y-16211000D01*
X20761942Y-16225286D01*
X20776228Y-16253857D01*
X20790514Y-16311000D01*
X20790514Y-16382429D01*
X20776228Y-16439571D01*
X20761942Y-16468143D01*
X20747657Y-16482429D01*
X20719085Y-16496714D01*
X20690514Y-16496714D01*
X20661942Y-16482429D01*
X20647657Y-16468143D01*
X20633371Y-16439571D01*
X20619085Y-16382429D01*
X20619085Y-16311000D01*
X20633371Y-16253857D01*
X20647657Y-16225286D01*
X20661942Y-16211000D01*
X20690514Y-16196714D01*
X20976228Y-16196714D02*
X21004800Y-16196714D01*
X21033371Y-16211000D01*
X21047657Y-16225286D01*
X21061942Y-16253857D01*
X21076228Y-16311000D01*
X21076228Y-16382429D01*
X21061942Y-16439571D01*
X21047657Y-16468143D01*
X21033371Y-16482429D01*
X21004800Y-16496714D01*
X20976228Y-16496714D01*
X20947657Y-16482429D01*
X20933371Y-16468143D01*
X20919085Y-16439571D01*
X20904800Y-16382429D01*
X20904800Y-16311000D01*
X20919085Y-16253857D01*
X20933371Y-16225286D01*
X20947657Y-16211000D01*
X20976228Y-16196714D01*
X21190514Y-16196714D02*
X21190514Y-16253857D01*
X21304800Y-16196714D02*
X21304800Y-16253857D01*
X21747657Y-16611000D02*
X21733371Y-16596714D01*
X21704800Y-16553857D01*
X21690514Y-16525286D01*
X21676228Y-16482429D01*
X21661942Y-16411000D01*
X21661942Y-16353857D01*
X21676228Y-16282429D01*
X21690514Y-16239571D01*
X21704800Y-16211000D01*
X21733371Y-16168143D01*
X21747657Y-16153857D01*
X21833371Y-16196714D02*
X22019085Y-16196714D01*
X21919085Y-16311000D01*
X21961942Y-16311000D01*
X21990514Y-16325286D01*
X22004800Y-16339571D01*
X22019085Y-16368143D01*
X22019085Y-16439571D01*
X22004800Y-16468143D01*
X21990514Y-16482429D01*
X21961942Y-16496714D01*
X21876228Y-16496714D01*
X21847657Y-16482429D01*
X21833371Y-16468143D01*
X22276228Y-16196714D02*
X22219085Y-16196714D01*
X22190514Y-16211000D01*
X22176228Y-16225286D01*
X22147657Y-16268143D01*
X22133371Y-16325286D01*
X22133371Y-16439571D01*
X22147657Y-16468143D01*
X22161942Y-16482429D01*
X22190514Y-16496714D01*
X22247657Y-16496714D01*
X22276228Y-16482429D01*
X22290514Y-16468143D01*
X22304800Y-16439571D01*
X22304800Y-16368143D01*
X22290514Y-16339571D01*
X22276228Y-16325286D01*
X22247657Y-16311000D01*
X22190514Y-16311000D01*
X22161942Y-16325286D01*
X22147657Y-16339571D01*
X22133371Y-16368143D01*
X22661942Y-16496714D02*
X22661942Y-16196714D01*
X22790514Y-16496714D02*
X22790514Y-16339571D01*
X22776228Y-16311000D01*
X22747657Y-16296714D01*
X22704800Y-16296714D01*
X22676228Y-16311000D01*
X22661942Y-16325286D01*
X22976228Y-16496714D02*
X22947657Y-16482429D01*
X22933371Y-16468143D01*
X22919085Y-16439571D01*
X22919085Y-16353857D01*
X22933371Y-16325286D01*
X22947657Y-16311000D01*
X22976228Y-16296714D01*
X23019085Y-16296714D01*
X23047657Y-16311000D01*
X23061942Y-16325286D01*
X23076228Y-16353857D01*
X23076228Y-16439571D01*
X23061942Y-16468143D01*
X23047657Y-16482429D01*
X23019085Y-16496714D01*
X22976228Y-16496714D01*
X23247657Y-16496714D02*
X23219085Y-16482429D01*
X23204800Y-16453857D01*
X23204800Y-16196714D01*
X23476228Y-16482429D02*
X23447657Y-16496714D01*
X23390514Y-16496714D01*
X23361942Y-16482429D01*
X23347657Y-16453857D01*
X23347657Y-16339571D01*
X23361942Y-16311000D01*
X23390514Y-16296714D01*
X23447657Y-16296714D01*
X23476228Y-16311000D01*
X23490514Y-16339571D01*
X23490514Y-16368143D01*
X23347657Y-16396714D01*
X23604800Y-16482429D02*
X23633371Y-16496714D01*
X23690514Y-16496714D01*
X23719085Y-16482429D01*
X23733371Y-16453857D01*
X23733371Y-16439571D01*
X23719085Y-16411000D01*
X23690514Y-16396714D01*
X23647657Y-16396714D01*
X23619085Y-16382429D01*
X23604800Y-16353857D01*
X23604800Y-16339571D01*
X23619085Y-16311000D01*
X23647657Y-16296714D01*
X23690514Y-16296714D01*
X23719085Y-16311000D01*
X23833371Y-16611000D02*
X23847657Y-16596714D01*
X23876228Y-16553857D01*
X23890514Y-16525286D01*
X23904800Y-16482429D01*
X23919085Y-16411000D01*
X23919085Y-16353857D01*
X23904800Y-16282429D01*
X23890514Y-16239571D01*
X23876228Y-16211000D01*
X23847657Y-16168143D01*
X23833371Y-16153857D01*
X16451550Y-16718750D02*
X16451550Y-16795250D01*
X16413300Y-16757000D02*
X16489800Y-16757000D01*
X16833371Y-16592714D02*
X16861942Y-16592714D01*
X16890514Y-16607000D01*
X16904800Y-16621286D01*
X16919085Y-16649857D01*
X16933371Y-16707000D01*
X16933371Y-16778429D01*
X16919085Y-16835572D01*
X16904800Y-16864143D01*
X16890514Y-16878429D01*
X16861942Y-16892714D01*
X16833371Y-16892714D01*
X16804800Y-16878429D01*
X16790514Y-16864143D01*
X16776228Y-16835572D01*
X16761942Y-16778429D01*
X16761942Y-16707000D01*
X16776228Y-16649857D01*
X16790514Y-16621286D01*
X16804800Y-16607000D01*
X16833371Y-16592714D01*
X17061942Y-16864143D02*
X17076228Y-16878429D01*
X17061942Y-16892714D01*
X17047657Y-16878429D01*
X17061942Y-16864143D01*
X17061942Y-16892714D01*
X17176228Y-16592714D02*
X17376228Y-16592714D01*
X17247657Y-16892714D01*
X17619085Y-16592714D02*
X17561942Y-16592714D01*
X17533371Y-16607000D01*
X17519085Y-16621286D01*
X17490514Y-16664143D01*
X17476228Y-16721286D01*
X17476228Y-16835572D01*
X17490514Y-16864143D01*
X17504800Y-16878429D01*
X17533371Y-16892714D01*
X17590514Y-16892714D01*
X17619085Y-16878429D01*
X17633371Y-16864143D01*
X17647657Y-16835572D01*
X17647657Y-16764143D01*
X17633371Y-16735571D01*
X17619085Y-16721286D01*
X17590514Y-16707000D01*
X17533371Y-16707000D01*
X17504800Y-16721286D01*
X17490514Y-16735571D01*
X17476228Y-16764143D01*
X17919085Y-16592714D02*
X17776228Y-16592714D01*
X17761942Y-16735571D01*
X17776228Y-16721286D01*
X17804800Y-16707000D01*
X17876228Y-16707000D01*
X17904800Y-16721286D01*
X17919085Y-16735571D01*
X17933371Y-16764143D01*
X17933371Y-16835572D01*
X17919085Y-16864143D01*
X17904800Y-16878429D01*
X17876228Y-16892714D01*
X17804800Y-16892714D01*
X17776228Y-16878429D01*
X17761942Y-16864143D01*
X18061942Y-16892714D02*
X18061942Y-16692714D01*
X18061942Y-16721286D02*
X18076228Y-16707000D01*
X18104800Y-16692714D01*
X18147657Y-16692714D01*
X18176228Y-16707000D01*
X18190514Y-16735571D01*
X18190514Y-16892714D01*
X18190514Y-16735571D02*
X18204800Y-16707000D01*
X18233371Y-16692714D01*
X18276228Y-16692714D01*
X18304800Y-16707000D01*
X18319085Y-16735571D01*
X18319085Y-16892714D01*
X18461942Y-16892714D02*
X18461942Y-16692714D01*
X18461942Y-16721286D02*
X18476228Y-16707000D01*
X18504800Y-16692714D01*
X18547657Y-16692714D01*
X18576228Y-16707000D01*
X18590514Y-16735571D01*
X18590514Y-16892714D01*
X18590514Y-16735571D02*
X18604800Y-16707000D01*
X18633371Y-16692714D01*
X18676228Y-16692714D01*
X18704800Y-16707000D01*
X18719085Y-16735571D01*
X18719085Y-16892714D01*
X19304800Y-16578429D02*
X19047657Y-16964143D01*
X19690514Y-16592714D02*
X19719085Y-16592714D01*
X19747657Y-16607000D01*
X19761942Y-16621286D01*
X19776228Y-16649857D01*
X19790514Y-16707000D01*
X19790514Y-16778429D01*
X19776228Y-16835572D01*
X19761942Y-16864143D01*
X19747657Y-16878429D01*
X19719085Y-16892714D01*
X19690514Y-16892714D01*
X19661942Y-16878429D01*
X19647657Y-16864143D01*
X19633371Y-16835572D01*
X19619085Y-16778429D01*
X19619085Y-16707000D01*
X19633371Y-16649857D01*
X19647657Y-16621286D01*
X19661942Y-16607000D01*
X19690514Y-16592714D01*
X19919085Y-16864143D02*
X19933371Y-16878429D01*
X19919085Y-16892714D01*
X19904800Y-16878429D01*
X19919085Y-16864143D01*
X19919085Y-16892714D01*
X20119085Y-16592714D02*
X20147657Y-16592714D01*
X20176228Y-16607000D01*
X20190514Y-16621286D01*
X20204800Y-16649857D01*
X20219085Y-16707000D01*
X20219085Y-16778429D01*
X20204800Y-16835572D01*
X20190514Y-16864143D01*
X20176228Y-16878429D01*
X20147657Y-16892714D01*
X20119085Y-16892714D01*
X20090514Y-16878429D01*
X20076228Y-16864143D01*
X20061942Y-16835572D01*
X20047657Y-16778429D01*
X20047657Y-16707000D01*
X20061942Y-16649857D01*
X20076228Y-16621286D01*
X20090514Y-16607000D01*
X20119085Y-16592714D01*
X20319085Y-16592714D02*
X20504800Y-16592714D01*
X20404800Y-16707000D01*
X20447657Y-16707000D01*
X20476228Y-16721286D01*
X20490514Y-16735571D01*
X20504800Y-16764143D01*
X20504800Y-16835572D01*
X20490514Y-16864143D01*
X20476228Y-16878429D01*
X20447657Y-16892714D01*
X20361942Y-16892714D01*
X20333371Y-16878429D01*
X20319085Y-16864143D01*
X20690514Y-16592714D02*
X20719085Y-16592714D01*
X20747657Y-16607000D01*
X20761942Y-16621286D01*
X20776228Y-16649857D01*
X20790514Y-16707000D01*
X20790514Y-16778429D01*
X20776228Y-16835572D01*
X20761942Y-16864143D01*
X20747657Y-16878429D01*
X20719085Y-16892714D01*
X20690514Y-16892714D01*
X20661942Y-16878429D01*
X20647657Y-16864143D01*
X20633371Y-16835572D01*
X20619085Y-16778429D01*
X20619085Y-16707000D01*
X20633371Y-16649857D01*
X20647657Y-16621286D01*
X20661942Y-16607000D01*
X20690514Y-16592714D01*
X21076228Y-16892714D02*
X20904800Y-16892714D01*
X20990514Y-16892714D02*
X20990514Y-16592714D01*
X20961942Y-16635571D01*
X20933371Y-16664143D01*
X20904800Y-16678429D01*
X21190514Y-16592714D02*
X21190514Y-16649857D01*
X21304800Y-16592714D02*
X21304800Y-16649857D01*
X21747657Y-17007000D02*
X21733371Y-16992714D01*
X21704800Y-16949857D01*
X21690514Y-16921286D01*
X21676228Y-16878429D01*
X21661942Y-16807000D01*
X21661942Y-16749857D01*
X21676228Y-16678429D01*
X21690514Y-16635571D01*
X21704800Y-16607000D01*
X21733371Y-16564143D01*
X21747657Y-16549857D01*
X21990514Y-16692714D02*
X21990514Y-16892714D01*
X21919085Y-16578429D02*
X21847657Y-16792714D01*
X22033371Y-16792714D01*
X22376228Y-16892714D02*
X22376228Y-16592714D01*
X22504800Y-16892714D02*
X22504800Y-16735571D01*
X22490514Y-16707000D01*
X22461942Y-16692714D01*
X22419085Y-16692714D01*
X22390514Y-16707000D01*
X22376228Y-16721286D01*
X22690514Y-16892714D02*
X22661942Y-16878429D01*
X22647657Y-16864143D01*
X22633371Y-16835572D01*
X22633371Y-16749857D01*
X22647657Y-16721286D01*
X22661942Y-16707000D01*
X22690514Y-16692714D01*
X22733371Y-16692714D01*
X22761942Y-16707000D01*
X22776228Y-16721286D01*
X22790514Y-16749857D01*
X22790514Y-16835572D01*
X22776228Y-16864143D01*
X22761942Y-16878429D01*
X22733371Y-16892714D01*
X22690514Y-16892714D01*
X22961942Y-16892714D02*
X22933371Y-16878429D01*
X22919085Y-16849857D01*
X22919085Y-16592714D01*
X23190514Y-16878429D02*
X23161942Y-16892714D01*
X23104800Y-16892714D01*
X23076228Y-16878429D01*
X23061942Y-16849857D01*
X23061942Y-16735571D01*
X23076228Y-16707000D01*
X23104800Y-16692714D01*
X23161942Y-16692714D01*
X23190514Y-16707000D01*
X23204800Y-16735571D01*
X23204800Y-16764143D01*
X23061942Y-16792714D01*
X23319085Y-16878429D02*
X23347657Y-16892714D01*
X23404800Y-16892714D01*
X23433371Y-16878429D01*
X23447657Y-16849857D01*
X23447657Y-16835572D01*
X23433371Y-16807000D01*
X23404800Y-16792714D01*
X23361942Y-16792714D01*
X23333371Y-16778429D01*
X23319085Y-16749857D01*
X23319085Y-16735571D01*
X23333371Y-16707000D01*
X23361942Y-16692714D01*
X23404800Y-16692714D01*
X23433371Y-16707000D01*
X23547657Y-17007000D02*
X23561942Y-16992714D01*
X23590514Y-16949857D01*
X23604800Y-16921286D01*
X23619085Y-16878429D01*
X23633371Y-16807000D01*
X23633371Y-16749857D01*
X23619085Y-16678429D01*
X23604800Y-16635571D01*
X23590514Y-16607000D01*
X23561942Y-16564143D01*
X23547657Y-16549857D01*
X16478084Y-17181285D02*
X16478084Y-17124716D01*
X16421515Y-17124716D01*
X16421515Y-17181285D01*
X16478084Y-17181285D01*
X16833371Y-16988714D02*
X16861942Y-16988714D01*
X16890514Y-17003000D01*
X16904800Y-17017286D01*
X16919085Y-17045857D01*
X16933371Y-17103000D01*
X16933371Y-17174429D01*
X16919085Y-17231572D01*
X16904800Y-17260143D01*
X16890514Y-17274429D01*
X16861942Y-17288714D01*
X16833371Y-17288714D01*
X16804800Y-17274429D01*
X16790514Y-17260143D01*
X16776228Y-17231572D01*
X16761942Y-17174429D01*
X16761942Y-17103000D01*
X16776228Y-17045857D01*
X16790514Y-17017286D01*
X16804800Y-17003000D01*
X16833371Y-16988714D01*
X17061942Y-17260143D02*
X17076228Y-17274429D01*
X17061942Y-17288714D01*
X17047657Y-17274429D01*
X17061942Y-17260143D01*
X17061942Y-17288714D01*
X17247657Y-17117286D02*
X17219085Y-17103000D01*
X17204800Y-17088714D01*
X17190514Y-17060143D01*
X17190514Y-17045857D01*
X17204800Y-17017286D01*
X17219085Y-17003000D01*
X17247657Y-16988714D01*
X17304800Y-16988714D01*
X17333371Y-17003000D01*
X17347657Y-17017286D01*
X17361942Y-17045857D01*
X17361942Y-17060143D01*
X17347657Y-17088714D01*
X17333371Y-17103000D01*
X17304800Y-17117286D01*
X17247657Y-17117286D01*
X17219085Y-17131572D01*
X17204800Y-17145857D01*
X17190514Y-17174429D01*
X17190514Y-17231572D01*
X17204800Y-17260143D01*
X17219085Y-17274429D01*
X17247657Y-17288714D01*
X17304800Y-17288714D01*
X17333371Y-17274429D01*
X17347657Y-17260143D01*
X17361942Y-17231572D01*
X17361942Y-17174429D01*
X17347657Y-17145857D01*
X17333371Y-17131572D01*
X17304800Y-17117286D01*
X17547657Y-16988714D02*
X17576228Y-16988714D01*
X17604800Y-17003000D01*
X17619085Y-17017286D01*
X17633371Y-17045857D01*
X17647657Y-17103000D01*
X17647657Y-17174429D01*
X17633371Y-17231572D01*
X17619085Y-17260143D01*
X17604800Y-17274429D01*
X17576228Y-17288714D01*
X17547657Y-17288714D01*
X17519085Y-17274429D01*
X17504800Y-17260143D01*
X17490514Y-17231572D01*
X17476228Y-17174429D01*
X17476228Y-17103000D01*
X17490514Y-17045857D01*
X17504800Y-17017286D01*
X17519085Y-17003000D01*
X17547657Y-16988714D01*
X17833371Y-16988714D02*
X17861942Y-16988714D01*
X17890514Y-17003000D01*
X17904800Y-17017286D01*
X17919085Y-17045857D01*
X17933371Y-17103000D01*
X17933371Y-17174429D01*
X17919085Y-17231572D01*
X17904800Y-17260143D01*
X17890514Y-17274429D01*
X17861942Y-17288714D01*
X17833371Y-17288714D01*
X17804800Y-17274429D01*
X17790514Y-17260143D01*
X17776228Y-17231572D01*
X17761942Y-17174429D01*
X17761942Y-17103000D01*
X17776228Y-17045857D01*
X17790514Y-17017286D01*
X17804800Y-17003000D01*
X17833371Y-16988714D01*
X18061942Y-17288714D02*
X18061942Y-17088714D01*
X18061942Y-17117286D02*
X18076228Y-17103000D01*
X18104800Y-17088714D01*
X18147657Y-17088714D01*
X18176228Y-17103000D01*
X18190514Y-17131572D01*
X18190514Y-17288714D01*
X18190514Y-17131572D02*
X18204800Y-17103000D01*
X18233371Y-17088714D01*
X18276228Y-17088714D01*
X18304800Y-17103000D01*
X18319085Y-17131572D01*
X18319085Y-17288714D01*
X18461942Y-17288714D02*
X18461942Y-17088714D01*
X18461942Y-17117286D02*
X18476228Y-17103000D01*
X18504800Y-17088714D01*
X18547657Y-17088714D01*
X18576228Y-17103000D01*
X18590514Y-17131572D01*
X18590514Y-17288714D01*
X18590514Y-17131572D02*
X18604800Y-17103000D01*
X18633371Y-17088714D01*
X18676228Y-17088714D01*
X18704800Y-17103000D01*
X18719085Y-17131572D01*
X18719085Y-17288714D01*
X19304800Y-16974429D02*
X19047657Y-17360143D01*
X19690514Y-16988714D02*
X19719085Y-16988714D01*
X19747657Y-17003000D01*
X19761942Y-17017286D01*
X19776228Y-17045857D01*
X19790514Y-17103000D01*
X19790514Y-17174429D01*
X19776228Y-17231572D01*
X19761942Y-17260143D01*
X19747657Y-17274429D01*
X19719085Y-17288714D01*
X19690514Y-17288714D01*
X19661942Y-17274429D01*
X19647657Y-17260143D01*
X19633371Y-17231572D01*
X19619085Y-17174429D01*
X19619085Y-17103000D01*
X19633371Y-17045857D01*
X19647657Y-17017286D01*
X19661942Y-17003000D01*
X19690514Y-16988714D01*
X19919085Y-17260143D02*
X19933371Y-17274429D01*
X19919085Y-17288714D01*
X19904800Y-17274429D01*
X19919085Y-17260143D01*
X19919085Y-17288714D01*
X20119085Y-16988714D02*
X20147657Y-16988714D01*
X20176228Y-17003000D01*
X20190514Y-17017286D01*
X20204800Y-17045857D01*
X20219085Y-17103000D01*
X20219085Y-17174429D01*
X20204800Y-17231572D01*
X20190514Y-17260143D01*
X20176228Y-17274429D01*
X20147657Y-17288714D01*
X20119085Y-17288714D01*
X20090514Y-17274429D01*
X20076228Y-17260143D01*
X20061942Y-17231572D01*
X20047657Y-17174429D01*
X20047657Y-17103000D01*
X20061942Y-17045857D01*
X20076228Y-17017286D01*
X20090514Y-17003000D01*
X20119085Y-16988714D01*
X20319085Y-16988714D02*
X20504800Y-16988714D01*
X20404800Y-17103000D01*
X20447657Y-17103000D01*
X20476228Y-17117286D01*
X20490514Y-17131572D01*
X20504800Y-17160143D01*
X20504800Y-17231572D01*
X20490514Y-17260143D01*
X20476228Y-17274429D01*
X20447657Y-17288714D01*
X20361942Y-17288714D01*
X20333371Y-17274429D01*
X20319085Y-17260143D01*
X20790514Y-17288714D02*
X20619085Y-17288714D01*
X20704800Y-17288714D02*
X20704800Y-16988714D01*
X20676228Y-17031572D01*
X20647657Y-17060143D01*
X20619085Y-17074429D01*
X21061942Y-16988714D02*
X20919085Y-16988714D01*
X20904800Y-17131572D01*
X20919085Y-17117286D01*
X20947657Y-17103000D01*
X21019085Y-17103000D01*
X21047657Y-17117286D01*
X21061942Y-17131572D01*
X21076228Y-17160143D01*
X21076228Y-17231572D01*
X21061942Y-17260143D01*
X21047657Y-17274429D01*
X21019085Y-17288714D01*
X20947657Y-17288714D01*
X20919085Y-17274429D01*
X20904800Y-17260143D01*
X21190514Y-16988714D02*
X21190514Y-17045857D01*
X21304800Y-16988714D02*
X21304800Y-17045857D01*
X21747657Y-17403000D02*
X21733371Y-17388714D01*
X21704800Y-17345857D01*
X21690514Y-17317286D01*
X21676228Y-17274429D01*
X21661942Y-17203000D01*
X21661942Y-17145857D01*
X21676228Y-17074429D01*
X21690514Y-17031572D01*
X21704800Y-17003000D01*
X21733371Y-16960143D01*
X21747657Y-16945857D01*
X21847657Y-17017286D02*
X21861942Y-17003000D01*
X21890514Y-16988714D01*
X21961942Y-16988714D01*
X21990514Y-17003000D01*
X22004800Y-17017286D01*
X22019085Y-17045857D01*
X22019085Y-17074429D01*
X22004800Y-17117286D01*
X21833371Y-17288714D01*
X22019085Y-17288714D01*
X22376228Y-17288714D02*
X22376228Y-16988714D01*
X22504800Y-17288714D02*
X22504800Y-17131572D01*
X22490514Y-17103000D01*
X22461942Y-17088714D01*
X22419085Y-17088714D01*
X22390514Y-17103000D01*
X22376228Y-17117286D01*
X22690514Y-17288714D02*
X22661942Y-17274429D01*
X22647657Y-17260143D01*
X22633371Y-17231572D01*
X22633371Y-17145857D01*
X22647657Y-17117286D01*
X22661942Y-17103000D01*
X22690514Y-17088714D01*
X22733371Y-17088714D01*
X22761942Y-17103000D01*
X22776228Y-17117286D01*
X22790514Y-17145857D01*
X22790514Y-17231572D01*
X22776228Y-17260143D01*
X22761942Y-17274429D01*
X22733371Y-17288714D01*
X22690514Y-17288714D01*
X22961942Y-17288714D02*
X22933371Y-17274429D01*
X22919085Y-17245857D01*
X22919085Y-16988714D01*
X23190514Y-17274429D02*
X23161942Y-17288714D01*
X23104800Y-17288714D01*
X23076228Y-17274429D01*
X23061942Y-17245857D01*
X23061942Y-17131572D01*
X23076228Y-17103000D01*
X23104800Y-17088714D01*
X23161942Y-17088714D01*
X23190514Y-17103000D01*
X23204800Y-17131572D01*
X23204800Y-17160143D01*
X23061942Y-17188714D01*
X23319085Y-17274429D02*
X23347657Y-17288714D01*
X23404800Y-17288714D01*
X23433371Y-17274429D01*
X23447657Y-17245857D01*
X23447657Y-17231572D01*
X23433371Y-17203000D01*
X23404800Y-17188714D01*
X23361942Y-17188714D01*
X23333371Y-17174429D01*
X23319085Y-17145857D01*
X23319085Y-17131572D01*
X23333371Y-17103000D01*
X23361942Y-17088714D01*
X23404800Y-17088714D01*
X23433371Y-17103000D01*
X23547657Y-17403000D02*
X23561942Y-17388714D01*
X23590514Y-17345857D01*
X23604800Y-17317286D01*
X23619085Y-17274429D01*
X23633371Y-17203000D01*
X23633371Y-17145857D01*
X23619085Y-17074429D01*
X23604800Y-17031572D01*
X23590514Y-17003000D01*
X23561942Y-16960143D01*
X23547657Y-16945857D01*
X16439800Y-17599000D02*
X16489800Y-17549000D01*
X16439800Y-17499000D01*
X16389800Y-17549000D01*
X16439800Y-17599000D01*
X16933371Y-17684714D02*
X16761942Y-17684714D01*
X16847657Y-17684714D02*
X16847657Y-17384714D01*
X16819085Y-17427572D01*
X16790514Y-17456143D01*
X16761942Y-17470429D01*
X17061942Y-17656143D02*
X17076228Y-17670429D01*
X17061942Y-17684714D01*
X17047657Y-17670429D01*
X17061942Y-17656143D01*
X17061942Y-17684714D01*
X17261942Y-17384714D02*
X17290514Y-17384714D01*
X17319085Y-17399000D01*
X17333371Y-17413286D01*
X17347657Y-17441857D01*
X17361942Y-17499000D01*
X17361942Y-17570429D01*
X17347657Y-17627572D01*
X17333371Y-17656143D01*
X17319085Y-17670429D01*
X17290514Y-17684714D01*
X17261942Y-17684714D01*
X17233371Y-17670429D01*
X17219085Y-17656143D01*
X17204800Y-17627572D01*
X17190514Y-17570429D01*
X17190514Y-17499000D01*
X17204800Y-17441857D01*
X17219085Y-17413286D01*
X17233371Y-17399000D01*
X17261942Y-17384714D01*
X17547657Y-17384714D02*
X17576228Y-17384714D01*
X17604800Y-17399000D01*
X17619085Y-17413286D01*
X17633371Y-17441857D01*
X17647657Y-17499000D01*
X17647657Y-17570429D01*
X17633371Y-17627572D01*
X17619085Y-17656143D01*
X17604800Y-17670429D01*
X17576228Y-17684714D01*
X17547657Y-17684714D01*
X17519085Y-17670429D01*
X17504800Y-17656143D01*
X17490514Y-17627572D01*
X17476228Y-17570429D01*
X17476228Y-17499000D01*
X17490514Y-17441857D01*
X17504800Y-17413286D01*
X17519085Y-17399000D01*
X17547657Y-17384714D01*
X17833371Y-17384714D02*
X17861942Y-17384714D01*
X17890514Y-17399000D01*
X17904800Y-17413286D01*
X17919085Y-17441857D01*
X17933371Y-17499000D01*
X17933371Y-17570429D01*
X17919085Y-17627572D01*
X17904800Y-17656143D01*
X17890514Y-17670429D01*
X17861942Y-17684714D01*
X17833371Y-17684714D01*
X17804800Y-17670429D01*
X17790514Y-17656143D01*
X17776228Y-17627572D01*
X17761942Y-17570429D01*
X17761942Y-17499000D01*
X17776228Y-17441857D01*
X17790514Y-17413286D01*
X17804800Y-17399000D01*
X17833371Y-17384714D01*
X18061942Y-17684714D02*
X18061942Y-17484714D01*
X18061942Y-17513286D02*
X18076228Y-17499000D01*
X18104800Y-17484714D01*
X18147657Y-17484714D01*
X18176228Y-17499000D01*
X18190514Y-17527572D01*
X18190514Y-17684714D01*
X18190514Y-17527572D02*
X18204800Y-17499000D01*
X18233371Y-17484714D01*
X18276228Y-17484714D01*
X18304800Y-17499000D01*
X18319085Y-17527572D01*
X18319085Y-17684714D01*
X18461942Y-17684714D02*
X18461942Y-17484714D01*
X18461942Y-17513286D02*
X18476228Y-17499000D01*
X18504800Y-17484714D01*
X18547657Y-17484714D01*
X18576228Y-17499000D01*
X18590514Y-17527572D01*
X18590514Y-17684714D01*
X18590514Y-17527572D02*
X18604800Y-17499000D01*
X18633371Y-17484714D01*
X18676228Y-17484714D01*
X18704800Y-17499000D01*
X18719085Y-17527572D01*
X18719085Y-17684714D01*
X19304800Y-17370429D02*
X19047657Y-17756143D01*
X19690514Y-17384714D02*
X19719085Y-17384714D01*
X19747657Y-17399000D01*
X19761942Y-17413286D01*
X19776228Y-17441857D01*
X19790514Y-17499000D01*
X19790514Y-17570429D01*
X19776228Y-17627572D01*
X19761942Y-17656143D01*
X19747657Y-17670429D01*
X19719085Y-17684714D01*
X19690514Y-17684714D01*
X19661942Y-17670429D01*
X19647657Y-17656143D01*
X19633371Y-17627572D01*
X19619085Y-17570429D01*
X19619085Y-17499000D01*
X19633371Y-17441857D01*
X19647657Y-17413286D01*
X19661942Y-17399000D01*
X19690514Y-17384714D01*
X19919085Y-17656143D02*
X19933371Y-17670429D01*
X19919085Y-17684714D01*
X19904800Y-17670429D01*
X19919085Y-17656143D01*
X19919085Y-17684714D01*
X20119085Y-17384714D02*
X20147657Y-17384714D01*
X20176228Y-17399000D01*
X20190514Y-17413286D01*
X20204800Y-17441857D01*
X20219085Y-17499000D01*
X20219085Y-17570429D01*
X20204800Y-17627572D01*
X20190514Y-17656143D01*
X20176228Y-17670429D01*
X20147657Y-17684714D01*
X20119085Y-17684714D01*
X20090514Y-17670429D01*
X20076228Y-17656143D01*
X20061942Y-17627572D01*
X20047657Y-17570429D01*
X20047657Y-17499000D01*
X20061942Y-17441857D01*
X20076228Y-17413286D01*
X20090514Y-17399000D01*
X20119085Y-17384714D01*
X20319085Y-17384714D02*
X20504800Y-17384714D01*
X20404800Y-17499000D01*
X20447657Y-17499000D01*
X20476228Y-17513286D01*
X20490514Y-17527572D01*
X20504800Y-17556143D01*
X20504800Y-17627572D01*
X20490514Y-17656143D01*
X20476228Y-17670429D01*
X20447657Y-17684714D01*
X20361942Y-17684714D01*
X20333371Y-17670429D01*
X20319085Y-17656143D01*
X20647657Y-17684714D02*
X20704800Y-17684714D01*
X20733371Y-17670429D01*
X20747657Y-17656143D01*
X20776228Y-17613286D01*
X20790514Y-17556143D01*
X20790514Y-17441857D01*
X20776228Y-17413286D01*
X20761942Y-17399000D01*
X20733371Y-17384714D01*
X20676228Y-17384714D01*
X20647657Y-17399000D01*
X20633371Y-17413286D01*
X20619085Y-17441857D01*
X20619085Y-17513286D01*
X20633371Y-17541857D01*
X20647657Y-17556143D01*
X20676228Y-17570429D01*
X20733371Y-17570429D01*
X20761942Y-17556143D01*
X20776228Y-17541857D01*
X20790514Y-17513286D01*
X21047657Y-17484714D02*
X21047657Y-17684714D01*
X20976228Y-17370429D02*
X20904800Y-17584714D01*
X21090514Y-17584714D01*
X21190514Y-17384714D02*
X21190514Y-17441857D01*
X21304800Y-17384714D02*
X21304800Y-17441857D01*
X21747657Y-17799000D02*
X21733371Y-17784714D01*
X21704800Y-17741857D01*
X21690514Y-17713286D01*
X21676228Y-17670429D01*
X21661942Y-17599000D01*
X21661942Y-17541857D01*
X21676228Y-17470429D01*
X21690514Y-17427572D01*
X21704800Y-17399000D01*
X21733371Y-17356143D01*
X21747657Y-17341857D01*
X21990514Y-17484714D02*
X21990514Y-17684714D01*
X21919085Y-17370429D02*
X21847657Y-17584714D01*
X22033371Y-17584714D01*
X22204800Y-17384714D02*
X22233371Y-17384714D01*
X22261942Y-17399000D01*
X22276228Y-17413286D01*
X22290514Y-17441857D01*
X22304800Y-17499000D01*
X22304800Y-17570429D01*
X22290514Y-17627572D01*
X22276228Y-17656143D01*
X22261942Y-17670429D01*
X22233371Y-17684714D01*
X22204800Y-17684714D01*
X22176228Y-17670429D01*
X22161942Y-17656143D01*
X22147657Y-17627572D01*
X22133371Y-17570429D01*
X22133371Y-17499000D01*
X22147657Y-17441857D01*
X22161942Y-17413286D01*
X22176228Y-17399000D01*
X22204800Y-17384714D01*
X22661942Y-17684714D02*
X22661942Y-17384714D01*
X22790514Y-17684714D02*
X22790514Y-17527572D01*
X22776228Y-17499000D01*
X22747657Y-17484714D01*
X22704800Y-17484714D01*
X22676228Y-17499000D01*
X22661942Y-17513286D01*
X22976228Y-17684714D02*
X22947657Y-17670429D01*
X22933371Y-17656143D01*
X22919085Y-17627572D01*
X22919085Y-17541857D01*
X22933371Y-17513286D01*
X22947657Y-17499000D01*
X22976228Y-17484714D01*
X23019085Y-17484714D01*
X23047657Y-17499000D01*
X23061942Y-17513286D01*
X23076228Y-17541857D01*
X23076228Y-17627572D01*
X23061942Y-17656143D01*
X23047657Y-17670429D01*
X23019085Y-17684714D01*
X22976228Y-17684714D01*
X23247657Y-17684714D02*
X23219085Y-17670429D01*
X23204800Y-17641857D01*
X23204800Y-17384714D01*
X23476228Y-17670429D02*
X23447657Y-17684714D01*
X23390514Y-17684714D01*
X23361942Y-17670429D01*
X23347657Y-17641857D01*
X23347657Y-17527572D01*
X23361942Y-17499000D01*
X23390514Y-17484714D01*
X23447657Y-17484714D01*
X23476228Y-17499000D01*
X23490514Y-17527572D01*
X23490514Y-17556143D01*
X23347657Y-17584714D01*
X23604800Y-17670429D02*
X23633371Y-17684714D01*
X23690514Y-17684714D01*
X23719085Y-17670429D01*
X23733371Y-17641857D01*
X23733371Y-17627572D01*
X23719085Y-17599000D01*
X23690514Y-17584714D01*
X23647657Y-17584714D01*
X23619085Y-17570429D01*
X23604800Y-17541857D01*
X23604800Y-17527572D01*
X23619085Y-17499000D01*
X23647657Y-17484714D01*
X23690514Y-17484714D01*
X23719085Y-17499000D01*
X23833371Y-17799000D02*
X23847657Y-17784714D01*
X23876228Y-17741857D01*
X23890514Y-17713286D01*
X23904800Y-17670429D01*
X23919085Y-17599000D01*
X23919085Y-17541857D01*
X23904800Y-17470429D01*
X23890514Y-17427572D01*
X23876228Y-17399000D01*
X23847657Y-17356143D01*
X23833371Y-17341857D01*
X16369800Y-17885000D02*
X16489800Y-18005000D01*
X16489800Y-17885000D02*
X16369800Y-18005000D01*
X16489800Y-17945000D02*
G75*
G03*
X16489800Y-17945000I-60000J0D01*
G01*
X16933371Y-18080714D02*
X16761942Y-18080714D01*
X16847657Y-18080714D02*
X16847657Y-17780714D01*
X16819085Y-17823572D01*
X16790514Y-17852143D01*
X16761942Y-17866429D01*
X17061942Y-18052143D02*
X17076228Y-18066429D01*
X17061942Y-18080714D01*
X17047657Y-18066429D01*
X17061942Y-18052143D01*
X17061942Y-18080714D01*
X17190514Y-17809286D02*
X17204800Y-17795000D01*
X17233371Y-17780714D01*
X17304800Y-17780714D01*
X17333371Y-17795000D01*
X17347657Y-17809286D01*
X17361942Y-17837857D01*
X17361942Y-17866429D01*
X17347657Y-17909286D01*
X17176228Y-18080714D01*
X17361942Y-18080714D01*
X17547657Y-17780714D02*
X17576228Y-17780714D01*
X17604800Y-17795000D01*
X17619085Y-17809286D01*
X17633371Y-17837857D01*
X17647657Y-17895000D01*
X17647657Y-17966429D01*
X17633371Y-18023572D01*
X17619085Y-18052143D01*
X17604800Y-18066429D01*
X17576228Y-18080714D01*
X17547657Y-18080714D01*
X17519085Y-18066429D01*
X17504800Y-18052143D01*
X17490514Y-18023572D01*
X17476228Y-17966429D01*
X17476228Y-17895000D01*
X17490514Y-17837857D01*
X17504800Y-17809286D01*
X17519085Y-17795000D01*
X17547657Y-17780714D01*
X17833371Y-17780714D02*
X17861942Y-17780714D01*
X17890514Y-17795000D01*
X17904800Y-17809286D01*
X17919085Y-17837857D01*
X17933371Y-17895000D01*
X17933371Y-17966429D01*
X17919085Y-18023572D01*
X17904800Y-18052143D01*
X17890514Y-18066429D01*
X17861942Y-18080714D01*
X17833371Y-18080714D01*
X17804800Y-18066429D01*
X17790514Y-18052143D01*
X17776228Y-18023572D01*
X17761942Y-17966429D01*
X17761942Y-17895000D01*
X17776228Y-17837857D01*
X17790514Y-17809286D01*
X17804800Y-17795000D01*
X17833371Y-17780714D01*
X18061942Y-18080714D02*
X18061942Y-17880714D01*
X18061942Y-17909286D02*
X18076228Y-17895000D01*
X18104800Y-17880714D01*
X18147657Y-17880714D01*
X18176228Y-17895000D01*
X18190514Y-17923572D01*
X18190514Y-18080714D01*
X18190514Y-17923572D02*
X18204800Y-17895000D01*
X18233371Y-17880714D01*
X18276228Y-17880714D01*
X18304800Y-17895000D01*
X18319085Y-17923572D01*
X18319085Y-18080714D01*
X18461942Y-18080714D02*
X18461942Y-17880714D01*
X18461942Y-17909286D02*
X18476228Y-17895000D01*
X18504800Y-17880714D01*
X18547657Y-17880714D01*
X18576228Y-17895000D01*
X18590514Y-17923572D01*
X18590514Y-18080714D01*
X18590514Y-17923572D02*
X18604800Y-17895000D01*
X18633371Y-17880714D01*
X18676228Y-17880714D01*
X18704800Y-17895000D01*
X18719085Y-17923572D01*
X18719085Y-18080714D01*
X19304800Y-17766429D02*
X19047657Y-18152143D01*
X19690514Y-17780714D02*
X19719085Y-17780714D01*
X19747657Y-17795000D01*
X19761942Y-17809286D01*
X19776228Y-17837857D01*
X19790514Y-17895000D01*
X19790514Y-17966429D01*
X19776228Y-18023572D01*
X19761942Y-18052143D01*
X19747657Y-18066429D01*
X19719085Y-18080714D01*
X19690514Y-18080714D01*
X19661942Y-18066429D01*
X19647657Y-18052143D01*
X19633371Y-18023572D01*
X19619085Y-17966429D01*
X19619085Y-17895000D01*
X19633371Y-17837857D01*
X19647657Y-17809286D01*
X19661942Y-17795000D01*
X19690514Y-17780714D01*
X19919085Y-18052143D02*
X19933371Y-18066429D01*
X19919085Y-18080714D01*
X19904800Y-18066429D01*
X19919085Y-18052143D01*
X19919085Y-18080714D01*
X20119085Y-17780714D02*
X20147657Y-17780714D01*
X20176228Y-17795000D01*
X20190514Y-17809286D01*
X20204800Y-17837857D01*
X20219085Y-17895000D01*
X20219085Y-17966429D01*
X20204800Y-18023572D01*
X20190514Y-18052143D01*
X20176228Y-18066429D01*
X20147657Y-18080714D01*
X20119085Y-18080714D01*
X20090514Y-18066429D01*
X20076228Y-18052143D01*
X20061942Y-18023572D01*
X20047657Y-17966429D01*
X20047657Y-17895000D01*
X20061942Y-17837857D01*
X20076228Y-17809286D01*
X20090514Y-17795000D01*
X20119085Y-17780714D01*
X20476228Y-17880714D02*
X20476228Y-18080714D01*
X20404800Y-17766429D02*
X20333371Y-17980714D01*
X20519085Y-17980714D01*
X20604800Y-17780714D02*
X20804800Y-17780714D01*
X20676228Y-18080714D01*
X20904800Y-17809286D02*
X20919085Y-17795000D01*
X20947657Y-17780714D01*
X21019085Y-17780714D01*
X21047657Y-17795000D01*
X21061942Y-17809286D01*
X21076228Y-17837857D01*
X21076228Y-17866429D01*
X21061942Y-17909286D01*
X20890514Y-18080714D01*
X21076228Y-18080714D01*
X21190514Y-17780714D02*
X21190514Y-17837857D01*
X21304800Y-17780714D02*
X21304800Y-17837857D01*
X21747657Y-18195000D02*
X21733371Y-18180714D01*
X21704800Y-18137857D01*
X21690514Y-18109286D01*
X21676228Y-18066429D01*
X21661942Y-17995000D01*
X21661942Y-17937857D01*
X21676228Y-17866429D01*
X21690514Y-17823572D01*
X21704800Y-17795000D01*
X21733371Y-17752143D01*
X21747657Y-17737857D01*
X22004800Y-17780714D02*
X21861942Y-17780714D01*
X21847657Y-17923572D01*
X21861942Y-17909286D01*
X21890514Y-17895000D01*
X21961942Y-17895000D01*
X21990514Y-17909286D01*
X22004800Y-17923572D01*
X22019085Y-17952143D01*
X22019085Y-18023572D01*
X22004800Y-18052143D01*
X21990514Y-18066429D01*
X21961942Y-18080714D01*
X21890514Y-18080714D01*
X21861942Y-18066429D01*
X21847657Y-18052143D01*
X22276228Y-17880714D02*
X22276228Y-18080714D01*
X22204800Y-17766429D02*
X22133371Y-17980714D01*
X22319085Y-17980714D01*
X22661942Y-18080714D02*
X22661942Y-17780714D01*
X22790514Y-18080714D02*
X22790514Y-17923572D01*
X22776228Y-17895000D01*
X22747657Y-17880714D01*
X22704800Y-17880714D01*
X22676228Y-17895000D01*
X22661942Y-17909286D01*
X22976228Y-18080714D02*
X22947657Y-18066429D01*
X22933371Y-18052143D01*
X22919085Y-18023572D01*
X22919085Y-17937857D01*
X22933371Y-17909286D01*
X22947657Y-17895000D01*
X22976228Y-17880714D01*
X23019085Y-17880714D01*
X23047657Y-17895000D01*
X23061942Y-17909286D01*
X23076228Y-17937857D01*
X23076228Y-18023572D01*
X23061942Y-18052143D01*
X23047657Y-18066429D01*
X23019085Y-18080714D01*
X22976228Y-18080714D01*
X23247657Y-18080714D02*
X23219085Y-18066429D01*
X23204800Y-18037857D01*
X23204800Y-17780714D01*
X23476228Y-18066429D02*
X23447657Y-18080714D01*
X23390514Y-18080714D01*
X23361942Y-18066429D01*
X23347657Y-18037857D01*
X23347657Y-17923572D01*
X23361942Y-17895000D01*
X23390514Y-17880714D01*
X23447657Y-17880714D01*
X23476228Y-17895000D01*
X23490514Y-17923572D01*
X23490514Y-17952143D01*
X23347657Y-17980714D01*
X23604800Y-18066429D02*
X23633371Y-18080714D01*
X23690514Y-18080714D01*
X23719085Y-18066429D01*
X23733371Y-18037857D01*
X23733371Y-18023572D01*
X23719085Y-17995000D01*
X23690514Y-17980714D01*
X23647657Y-17980714D01*
X23619085Y-17966429D01*
X23604800Y-17937857D01*
X23604800Y-17923572D01*
X23619085Y-17895000D01*
X23647657Y-17880714D01*
X23690514Y-17880714D01*
X23719085Y-17895000D01*
X23833371Y-18195000D02*
X23847657Y-18180714D01*
X23876228Y-18137857D01*
X23890514Y-18109286D01*
X23904800Y-18066429D01*
X23919085Y-17995000D01*
X23919085Y-17937857D01*
X23904800Y-17866429D01*
X23890514Y-17823572D01*
X23876228Y-17795000D01*
X23847657Y-17752143D01*
X23833371Y-17737857D01*
X16364800Y-18278500D02*
X16489800Y-18403500D01*
X16489800Y-18278500D02*
X16364800Y-18403500D01*
X16427300Y-18278500D02*
X16427300Y-18403500D01*
X16364800Y-18341000D02*
X16489800Y-18341000D01*
X16933371Y-18476714D02*
X16761942Y-18476714D01*
X16847657Y-18476714D02*
X16847657Y-18176714D01*
X16819085Y-18219572D01*
X16790514Y-18248143D01*
X16761942Y-18262429D01*
X17061942Y-18448143D02*
X17076228Y-18462429D01*
X17061942Y-18476714D01*
X17047657Y-18462429D01*
X17061942Y-18448143D01*
X17061942Y-18476714D01*
X17190514Y-18205286D02*
X17204800Y-18191000D01*
X17233371Y-18176714D01*
X17304800Y-18176714D01*
X17333371Y-18191000D01*
X17347657Y-18205286D01*
X17361942Y-18233857D01*
X17361942Y-18262429D01*
X17347657Y-18305286D01*
X17176228Y-18476714D01*
X17361942Y-18476714D01*
X17633371Y-18176714D02*
X17490514Y-18176714D01*
X17476228Y-18319572D01*
X17490514Y-18305286D01*
X17519085Y-18291000D01*
X17590514Y-18291000D01*
X17619085Y-18305286D01*
X17633371Y-18319572D01*
X17647657Y-18348143D01*
X17647657Y-18419572D01*
X17633371Y-18448143D01*
X17619085Y-18462429D01*
X17590514Y-18476714D01*
X17519085Y-18476714D01*
X17490514Y-18462429D01*
X17476228Y-18448143D01*
X17833371Y-18176714D02*
X17861942Y-18176714D01*
X17890514Y-18191000D01*
X17904800Y-18205286D01*
X17919085Y-18233857D01*
X17933371Y-18291000D01*
X17933371Y-18362429D01*
X17919085Y-18419572D01*
X17904800Y-18448143D01*
X17890514Y-18462429D01*
X17861942Y-18476714D01*
X17833371Y-18476714D01*
X17804800Y-18462429D01*
X17790514Y-18448143D01*
X17776228Y-18419572D01*
X17761942Y-18362429D01*
X17761942Y-18291000D01*
X17776228Y-18233857D01*
X17790514Y-18205286D01*
X17804800Y-18191000D01*
X17833371Y-18176714D01*
X18061942Y-18476714D02*
X18061942Y-18276714D01*
X18061942Y-18305286D02*
X18076228Y-18291000D01*
X18104800Y-18276714D01*
X18147657Y-18276714D01*
X18176228Y-18291000D01*
X18190514Y-18319572D01*
X18190514Y-18476714D01*
X18190514Y-18319572D02*
X18204800Y-18291000D01*
X18233371Y-18276714D01*
X18276228Y-18276714D01*
X18304800Y-18291000D01*
X18319085Y-18319572D01*
X18319085Y-18476714D01*
X18461942Y-18476714D02*
X18461942Y-18276714D01*
X18461942Y-18305286D02*
X18476228Y-18291000D01*
X18504800Y-18276714D01*
X18547657Y-18276714D01*
X18576228Y-18291000D01*
X18590514Y-18319572D01*
X18590514Y-18476714D01*
X18590514Y-18319572D02*
X18604800Y-18291000D01*
X18633371Y-18276714D01*
X18676228Y-18276714D01*
X18704800Y-18291000D01*
X18719085Y-18319572D01*
X18719085Y-18476714D01*
X19304800Y-18162429D02*
X19047657Y-18548143D01*
X19690514Y-18176714D02*
X19719085Y-18176714D01*
X19747657Y-18191000D01*
X19761942Y-18205286D01*
X19776228Y-18233857D01*
X19790514Y-18291000D01*
X19790514Y-18362429D01*
X19776228Y-18419572D01*
X19761942Y-18448143D01*
X19747657Y-18462429D01*
X19719085Y-18476714D01*
X19690514Y-18476714D01*
X19661942Y-18462429D01*
X19647657Y-18448143D01*
X19633371Y-18419572D01*
X19619085Y-18362429D01*
X19619085Y-18291000D01*
X19633371Y-18233857D01*
X19647657Y-18205286D01*
X19661942Y-18191000D01*
X19690514Y-18176714D01*
X19919085Y-18448143D02*
X19933371Y-18462429D01*
X19919085Y-18476714D01*
X19904800Y-18462429D01*
X19919085Y-18448143D01*
X19919085Y-18476714D01*
X20119085Y-18176714D02*
X20147657Y-18176714D01*
X20176228Y-18191000D01*
X20190514Y-18205286D01*
X20204800Y-18233857D01*
X20219085Y-18291000D01*
X20219085Y-18362429D01*
X20204800Y-18419572D01*
X20190514Y-18448143D01*
X20176228Y-18462429D01*
X20147657Y-18476714D01*
X20119085Y-18476714D01*
X20090514Y-18462429D01*
X20076228Y-18448143D01*
X20061942Y-18419572D01*
X20047657Y-18362429D01*
X20047657Y-18291000D01*
X20061942Y-18233857D01*
X20076228Y-18205286D01*
X20090514Y-18191000D01*
X20119085Y-18176714D01*
X20476228Y-18276714D02*
X20476228Y-18476714D01*
X20404800Y-18162429D02*
X20333371Y-18376714D01*
X20519085Y-18376714D01*
X20647657Y-18476714D02*
X20704800Y-18476714D01*
X20733371Y-18462429D01*
X20747657Y-18448143D01*
X20776228Y-18405286D01*
X20790514Y-18348143D01*
X20790514Y-18233857D01*
X20776228Y-18205286D01*
X20761942Y-18191000D01*
X20733371Y-18176714D01*
X20676228Y-18176714D01*
X20647657Y-18191000D01*
X20633371Y-18205286D01*
X20619085Y-18233857D01*
X20619085Y-18305286D01*
X20633371Y-18333857D01*
X20647657Y-18348143D01*
X20676228Y-18362429D01*
X20733371Y-18362429D01*
X20761942Y-18348143D01*
X20776228Y-18333857D01*
X20790514Y-18305286D01*
X20904800Y-18205286D02*
X20919085Y-18191000D01*
X20947657Y-18176714D01*
X21019085Y-18176714D01*
X21047657Y-18191000D01*
X21061942Y-18205286D01*
X21076228Y-18233857D01*
X21076228Y-18262429D01*
X21061942Y-18305286D01*
X20890514Y-18476714D01*
X21076228Y-18476714D01*
X21190514Y-18176714D02*
X21190514Y-18233857D01*
X21304800Y-18176714D02*
X21304800Y-18233857D01*
X21747657Y-18591000D02*
X21733371Y-18576714D01*
X21704800Y-18533857D01*
X21690514Y-18505286D01*
X21676228Y-18462429D01*
X21661942Y-18391000D01*
X21661942Y-18333857D01*
X21676228Y-18262429D01*
X21690514Y-18219572D01*
X21704800Y-18191000D01*
X21733371Y-18148143D01*
X21747657Y-18133857D01*
X22019085Y-18476714D02*
X21847657Y-18476714D01*
X21933371Y-18476714D02*
X21933371Y-18176714D01*
X21904800Y-18219572D01*
X21876228Y-18248143D01*
X21847657Y-18262429D01*
X22133371Y-18205286D02*
X22147657Y-18191000D01*
X22176228Y-18176714D01*
X22247657Y-18176714D01*
X22276228Y-18191000D01*
X22290514Y-18205286D01*
X22304800Y-18233857D01*
X22304800Y-18262429D01*
X22290514Y-18305286D01*
X22119085Y-18476714D01*
X22304800Y-18476714D01*
X22661942Y-18476714D02*
X22661942Y-18176714D01*
X22790514Y-18476714D02*
X22790514Y-18319572D01*
X22776228Y-18291000D01*
X22747657Y-18276714D01*
X22704800Y-18276714D01*
X22676228Y-18291000D01*
X22661942Y-18305286D01*
X22976228Y-18476714D02*
X22947657Y-18462429D01*
X22933371Y-18448143D01*
X22919085Y-18419572D01*
X22919085Y-18333857D01*
X22933371Y-18305286D01*
X22947657Y-18291000D01*
X22976228Y-18276714D01*
X23019085Y-18276714D01*
X23047657Y-18291000D01*
X23061942Y-18305286D01*
X23076228Y-18333857D01*
X23076228Y-18419572D01*
X23061942Y-18448143D01*
X23047657Y-18462429D01*
X23019085Y-18476714D01*
X22976228Y-18476714D01*
X23247657Y-18476714D02*
X23219085Y-18462429D01*
X23204800Y-18433857D01*
X23204800Y-18176714D01*
X23476228Y-18462429D02*
X23447657Y-18476714D01*
X23390514Y-18476714D01*
X23361942Y-18462429D01*
X23347657Y-18433857D01*
X23347657Y-18319572D01*
X23361942Y-18291000D01*
X23390514Y-18276714D01*
X23447657Y-18276714D01*
X23476228Y-18291000D01*
X23490514Y-18319572D01*
X23490514Y-18348143D01*
X23347657Y-18376714D01*
X23604800Y-18462429D02*
X23633371Y-18476714D01*
X23690514Y-18476714D01*
X23719085Y-18462429D01*
X23733371Y-18433857D01*
X23733371Y-18419572D01*
X23719085Y-18391000D01*
X23690514Y-18376714D01*
X23647657Y-18376714D01*
X23619085Y-18362429D01*
X23604800Y-18333857D01*
X23604800Y-18319572D01*
X23619085Y-18291000D01*
X23647657Y-18276714D01*
X23690514Y-18276714D01*
X23719085Y-18291000D01*
X23833371Y-18591000D02*
X23847657Y-18576714D01*
X23876228Y-18533857D01*
X23890514Y-18505286D01*
X23904800Y-18462429D01*
X23919085Y-18391000D01*
X23919085Y-18333857D01*
X23904800Y-18262429D01*
X23890514Y-18219572D01*
X23876228Y-18191000D01*
X23847657Y-18148143D01*
X23833371Y-18133857D01*
X16329800Y-18657000D02*
X16489800Y-18817000D01*
X16489800Y-18657000D02*
X16329800Y-18817000D01*
X16466369Y-18793569D02*
X16466369Y-18680431D01*
X16353230Y-18680431D01*
X16353230Y-18793569D01*
X16466369Y-18793569D01*
X16933371Y-18872714D02*
X16761942Y-18872714D01*
X16847657Y-18872714D02*
X16847657Y-18572714D01*
X16819085Y-18615572D01*
X16790514Y-18644143D01*
X16761942Y-18658429D01*
X17061942Y-18844143D02*
X17076228Y-18858429D01*
X17061942Y-18872714D01*
X17047657Y-18858429D01*
X17061942Y-18844143D01*
X17061942Y-18872714D01*
X17333371Y-18572714D02*
X17276228Y-18572714D01*
X17247657Y-18587000D01*
X17233371Y-18601286D01*
X17204800Y-18644143D01*
X17190514Y-18701286D01*
X17190514Y-18815572D01*
X17204800Y-18844143D01*
X17219085Y-18858429D01*
X17247657Y-18872714D01*
X17304800Y-18872714D01*
X17333371Y-18858429D01*
X17347657Y-18844143D01*
X17361942Y-18815572D01*
X17361942Y-18744143D01*
X17347657Y-18715572D01*
X17333371Y-18701286D01*
X17304800Y-18687000D01*
X17247657Y-18687000D01*
X17219085Y-18701286D01*
X17204800Y-18715572D01*
X17190514Y-18744143D01*
X17547657Y-18572714D02*
X17576228Y-18572714D01*
X17604800Y-18587000D01*
X17619085Y-18601286D01*
X17633371Y-18629857D01*
X17647657Y-18687000D01*
X17647657Y-18758429D01*
X17633371Y-18815572D01*
X17619085Y-18844143D01*
X17604800Y-18858429D01*
X17576228Y-18872714D01*
X17547657Y-18872714D01*
X17519085Y-18858429D01*
X17504800Y-18844143D01*
X17490514Y-18815572D01*
X17476228Y-18758429D01*
X17476228Y-18687000D01*
X17490514Y-18629857D01*
X17504800Y-18601286D01*
X17519085Y-18587000D01*
X17547657Y-18572714D01*
X17833371Y-18572714D02*
X17861942Y-18572714D01*
X17890514Y-18587000D01*
X17904800Y-18601286D01*
X17919085Y-18629857D01*
X17933371Y-18687000D01*
X17933371Y-18758429D01*
X17919085Y-18815572D01*
X17904800Y-18844143D01*
X17890514Y-18858429D01*
X17861942Y-18872714D01*
X17833371Y-18872714D01*
X17804800Y-18858429D01*
X17790514Y-18844143D01*
X17776228Y-18815572D01*
X17761942Y-18758429D01*
X17761942Y-18687000D01*
X17776228Y-18629857D01*
X17790514Y-18601286D01*
X17804800Y-18587000D01*
X17833371Y-18572714D01*
X18061942Y-18872714D02*
X18061942Y-18672714D01*
X18061942Y-18701286D02*
X18076228Y-18687000D01*
X18104800Y-18672714D01*
X18147657Y-18672714D01*
X18176228Y-18687000D01*
X18190514Y-18715572D01*
X18190514Y-18872714D01*
X18190514Y-18715572D02*
X18204800Y-18687000D01*
X18233371Y-18672714D01*
X18276228Y-18672714D01*
X18304800Y-18687000D01*
X18319085Y-18715572D01*
X18319085Y-18872714D01*
X18461942Y-18872714D02*
X18461942Y-18672714D01*
X18461942Y-18701286D02*
X18476228Y-18687000D01*
X18504800Y-18672714D01*
X18547657Y-18672714D01*
X18576228Y-18687000D01*
X18590514Y-18715572D01*
X18590514Y-18872714D01*
X18590514Y-18715572D02*
X18604800Y-18687000D01*
X18633371Y-18672714D01*
X18676228Y-18672714D01*
X18704800Y-18687000D01*
X18719085Y-18715572D01*
X18719085Y-18872714D01*
X19304800Y-18558429D02*
X19047657Y-18944143D01*
X19690514Y-18572714D02*
X19719085Y-18572714D01*
X19747657Y-18587000D01*
X19761942Y-18601286D01*
X19776228Y-18629857D01*
X19790514Y-18687000D01*
X19790514Y-18758429D01*
X19776228Y-18815572D01*
X19761942Y-18844143D01*
X19747657Y-18858429D01*
X19719085Y-18872714D01*
X19690514Y-18872714D01*
X19661942Y-18858429D01*
X19647657Y-18844143D01*
X19633371Y-18815572D01*
X19619085Y-18758429D01*
X19619085Y-18687000D01*
X19633371Y-18629857D01*
X19647657Y-18601286D01*
X19661942Y-18587000D01*
X19690514Y-18572714D01*
X19919085Y-18844143D02*
X19933371Y-18858429D01*
X19919085Y-18872714D01*
X19904800Y-18858429D01*
X19919085Y-18844143D01*
X19919085Y-18872714D01*
X20119085Y-18572714D02*
X20147657Y-18572714D01*
X20176228Y-18587000D01*
X20190514Y-18601286D01*
X20204800Y-18629857D01*
X20219085Y-18687000D01*
X20219085Y-18758429D01*
X20204800Y-18815572D01*
X20190514Y-18844143D01*
X20176228Y-18858429D01*
X20147657Y-18872714D01*
X20119085Y-18872714D01*
X20090514Y-18858429D01*
X20076228Y-18844143D01*
X20061942Y-18815572D01*
X20047657Y-18758429D01*
X20047657Y-18687000D01*
X20061942Y-18629857D01*
X20076228Y-18601286D01*
X20090514Y-18587000D01*
X20119085Y-18572714D01*
X20476228Y-18572714D02*
X20419085Y-18572714D01*
X20390514Y-18587000D01*
X20376228Y-18601286D01*
X20347657Y-18644143D01*
X20333371Y-18701286D01*
X20333371Y-18815572D01*
X20347657Y-18844143D01*
X20361942Y-18858429D01*
X20390514Y-18872714D01*
X20447657Y-18872714D01*
X20476228Y-18858429D01*
X20490514Y-18844143D01*
X20504800Y-18815572D01*
X20504800Y-18744143D01*
X20490514Y-18715572D01*
X20476228Y-18701286D01*
X20447657Y-18687000D01*
X20390514Y-18687000D01*
X20361942Y-18701286D01*
X20347657Y-18715572D01*
X20333371Y-18744143D01*
X20604800Y-18572714D02*
X20790514Y-18572714D01*
X20690514Y-18687000D01*
X20733371Y-18687000D01*
X20761942Y-18701286D01*
X20776228Y-18715572D01*
X20790514Y-18744143D01*
X20790514Y-18815572D01*
X20776228Y-18844143D01*
X20761942Y-18858429D01*
X20733371Y-18872714D01*
X20647657Y-18872714D01*
X20619085Y-18858429D01*
X20604800Y-18844143D01*
X20976228Y-18572714D02*
X21004800Y-18572714D01*
X21033371Y-18587000D01*
X21047657Y-18601286D01*
X21061942Y-18629857D01*
X21076228Y-18687000D01*
X21076228Y-18758429D01*
X21061942Y-18815572D01*
X21047657Y-18844143D01*
X21033371Y-18858429D01*
X21004800Y-18872714D01*
X20976228Y-18872714D01*
X20947657Y-18858429D01*
X20933371Y-18844143D01*
X20919085Y-18815572D01*
X20904800Y-18758429D01*
X20904800Y-18687000D01*
X20919085Y-18629857D01*
X20933371Y-18601286D01*
X20947657Y-18587000D01*
X20976228Y-18572714D01*
X21190514Y-18572714D02*
X21190514Y-18629857D01*
X21304800Y-18572714D02*
X21304800Y-18629857D01*
X21747657Y-18987000D02*
X21733371Y-18972714D01*
X21704800Y-18929857D01*
X21690514Y-18901286D01*
X21676228Y-18858429D01*
X21661942Y-18787000D01*
X21661942Y-18729857D01*
X21676228Y-18658429D01*
X21690514Y-18615572D01*
X21704800Y-18587000D01*
X21733371Y-18544143D01*
X21747657Y-18529857D01*
X21990514Y-18672714D02*
X21990514Y-18872714D01*
X21919085Y-18558429D02*
X21847657Y-18772714D01*
X22033371Y-18772714D01*
X22376228Y-18872714D02*
X22376228Y-18572714D01*
X22504800Y-18872714D02*
X22504800Y-18715572D01*
X22490514Y-18687000D01*
X22461942Y-18672714D01*
X22419085Y-18672714D01*
X22390514Y-18687000D01*
X22376228Y-18701286D01*
X22690514Y-18872714D02*
X22661942Y-18858429D01*
X22647657Y-18844143D01*
X22633371Y-18815572D01*
X22633371Y-18729857D01*
X22647657Y-18701286D01*
X22661942Y-18687000D01*
X22690514Y-18672714D01*
X22733371Y-18672714D01*
X22761942Y-18687000D01*
X22776228Y-18701286D01*
X22790514Y-18729857D01*
X22790514Y-18815572D01*
X22776228Y-18844143D01*
X22761942Y-18858429D01*
X22733371Y-18872714D01*
X22690514Y-18872714D01*
X22961942Y-18872714D02*
X22933371Y-18858429D01*
X22919085Y-18829857D01*
X22919085Y-18572714D01*
X23190514Y-18858429D02*
X23161942Y-18872714D01*
X23104800Y-18872714D01*
X23076228Y-18858429D01*
X23061942Y-18829857D01*
X23061942Y-18715572D01*
X23076228Y-18687000D01*
X23104800Y-18672714D01*
X23161942Y-18672714D01*
X23190514Y-18687000D01*
X23204800Y-18715572D01*
X23204800Y-18744143D01*
X23061942Y-18772714D01*
X23319085Y-18858429D02*
X23347657Y-18872714D01*
X23404800Y-18872714D01*
X23433371Y-18858429D01*
X23447657Y-18829857D01*
X23447657Y-18815572D01*
X23433371Y-18787000D01*
X23404800Y-18772714D01*
X23361942Y-18772714D01*
X23333371Y-18758429D01*
X23319085Y-18729857D01*
X23319085Y-18715572D01*
X23333371Y-18687000D01*
X23361942Y-18672714D01*
X23404800Y-18672714D01*
X23433371Y-18687000D01*
X23547657Y-18987000D02*
X23561942Y-18972714D01*
X23590514Y-18929857D01*
X23604800Y-18901286D01*
X23619085Y-18858429D01*
X23633371Y-18787000D01*
X23633371Y-18729857D01*
X23619085Y-18658429D01*
X23604800Y-18615572D01*
X23590514Y-18587000D01*
X23561942Y-18544143D01*
X23547657Y-18529857D01*
M02*
