G04 #@! TF.GenerationSoftware,KiCad,Pcbnew,(5.1.10)-1*
G04 #@! TF.CreationDate,2021-06-28T12:48:49+02:00*
G04 #@! TF.ProjectId,PI_MARTLOgger,50495f4d-4152-4544-9c4f-676765722e6b,rev?*
G04 #@! TF.SameCoordinates,Original*
G04 #@! TF.FileFunction,Soldermask,Bot*
G04 #@! TF.FilePolarity,Negative*
%FSLAX46Y46*%
G04 Gerber Fmt 4.6, Leading zero omitted, Abs format (unit mm)*
G04 Created by KiCad (PCBNEW (5.1.10)-1) date 2021-06-28 12:48:49*
%MOMM*%
%LPD*%
G01*
G04 APERTURE LIST*
%ADD10C,1.524000*%
%ADD11C,2.700000*%
%ADD12C,1.300000*%
%ADD13O,2.200000X1.700000*%
%ADD14C,0.150000*%
%ADD15C,2.000000*%
%ADD16O,1.700000X2.200000*%
%ADD17C,1.800000*%
%ADD18C,1.250000*%
%ADD19O,1.600000X1.600000*%
%ADD20R,1.600000X1.600000*%
%ADD21R,0.900000X0.800000*%
%ADD22R,1.000000X1.500000*%
%ADD23R,1.700000X1.700000*%
%ADD24O,1.700000X1.700000*%
G04 APERTURE END LIST*
D10*
X192126000Y-129172000D03*
X192126000Y-126632000D03*
G36*
G01*
X192507000Y-119774000D02*
X191745000Y-119774000D01*
G75*
G02*
X191364000Y-119393000I0J381000D01*
G01*
X191364000Y-118631000D01*
G75*
G02*
X191745000Y-118250000I381000J0D01*
G01*
X192507000Y-118250000D01*
G75*
G02*
X192888000Y-118631000I0J-381000D01*
G01*
X192888000Y-119393000D01*
G75*
G02*
X192507000Y-119774000I-381000J0D01*
G01*
G37*
X192126000Y-121552000D03*
X192126000Y-124092000D03*
X192888000Y-148730000D03*
X190348000Y-148730000D03*
X187808000Y-148730000D03*
X177648000Y-148730000D03*
X180188000Y-148730000D03*
X182728000Y-148730000D03*
X185268000Y-148730000D03*
G36*
G01*
X247932000Y-117963000D02*
X247932000Y-117013000D01*
G75*
G02*
X248182000Y-116763000I250000J0D01*
G01*
X248857000Y-116763000D01*
G75*
G02*
X249107000Y-117013000I0J-250000D01*
G01*
X249107000Y-117963000D01*
G75*
G02*
X248857000Y-118213000I-250000J0D01*
G01*
X248182000Y-118213000D01*
G75*
G02*
X247932000Y-117963000I0J250000D01*
G01*
G37*
G36*
G01*
X245857000Y-117963000D02*
X245857000Y-117013000D01*
G75*
G02*
X246107000Y-116763000I250000J0D01*
G01*
X246782000Y-116763000D01*
G75*
G02*
X247032000Y-117013000I0J-250000D01*
G01*
X247032000Y-117963000D01*
G75*
G02*
X246782000Y-118213000I-250000J0D01*
G01*
X246107000Y-118213000D01*
G75*
G02*
X245857000Y-117963000I0J250000D01*
G01*
G37*
G36*
G01*
X242222000Y-117013000D02*
X242222000Y-117963000D01*
G75*
G02*
X241972000Y-118213000I-250000J0D01*
G01*
X241297000Y-118213000D01*
G75*
G02*
X241047000Y-117963000I0J250000D01*
G01*
X241047000Y-117013000D01*
G75*
G02*
X241297000Y-116763000I250000J0D01*
G01*
X241972000Y-116763000D01*
G75*
G02*
X242222000Y-117013000I0J-250000D01*
G01*
G37*
G36*
G01*
X244297000Y-117013000D02*
X244297000Y-117963000D01*
G75*
G02*
X244047000Y-118213000I-250000J0D01*
G01*
X243372000Y-118213000D01*
G75*
G02*
X243122000Y-117963000I0J250000D01*
G01*
X243122000Y-117013000D01*
G75*
G02*
X243372000Y-116763000I250000J0D01*
G01*
X244047000Y-116763000D01*
G75*
G02*
X244297000Y-117013000I0J-250000D01*
G01*
G37*
D11*
X188570000Y-89802000D03*
X168758000Y-72530000D03*
X200254000Y-89802000D03*
X219558000Y-72530000D03*
X230988000Y-72276000D03*
X230988000Y-89040000D03*
X260706000Y-89040000D03*
X260452000Y-72276000D03*
D12*
X186862000Y-72764000D03*
D13*
X185522000Y-76514000D03*
X185522000Y-74014000D03*
D14*
G36*
X184623227Y-72359196D02*
G01*
X184576329Y-72344970D01*
X184533107Y-72321867D01*
X184495223Y-72290777D01*
X184464133Y-72252893D01*
X184441030Y-72209671D01*
X184426804Y-72162773D01*
X184422000Y-72114000D01*
X184422000Y-70914000D01*
X184426804Y-70865227D01*
X184441030Y-70818329D01*
X184464133Y-70775107D01*
X184495223Y-70737223D01*
X184533107Y-70706133D01*
X184576329Y-70683030D01*
X184623227Y-70668804D01*
X184672000Y-70664000D01*
X186372000Y-70664000D01*
X186420773Y-70668804D01*
X186467671Y-70683030D01*
X186510893Y-70706133D01*
X186548777Y-70737223D01*
X186579867Y-70775107D01*
X186602970Y-70818329D01*
X186617196Y-70865227D01*
X186622000Y-70914000D01*
X186622000Y-71714000D01*
X186617196Y-71762773D01*
X186602970Y-71809671D01*
X186579867Y-71852893D01*
X186548777Y-71890777D01*
X186148777Y-72290777D01*
X186110893Y-72321867D01*
X186067671Y-72344970D01*
X186020773Y-72359196D01*
X185972000Y-72364000D01*
X184672000Y-72364000D01*
X184623227Y-72359196D01*
G37*
D12*
X260268000Y-81694000D03*
D13*
X258928000Y-77944000D03*
X258928000Y-80444000D03*
D14*
G36*
X258029227Y-83789196D02*
G01*
X257982329Y-83774970D01*
X257939107Y-83751867D01*
X257901223Y-83720777D01*
X257870133Y-83682893D01*
X257847030Y-83639671D01*
X257832804Y-83592773D01*
X257828000Y-83544000D01*
X257828000Y-82344000D01*
X257832804Y-82295227D01*
X257847030Y-82248329D01*
X257870133Y-82205107D01*
X257901223Y-82167223D01*
X257939107Y-82136133D01*
X257982329Y-82113030D01*
X258029227Y-82098804D01*
X258078000Y-82094000D01*
X259378000Y-82094000D01*
X259426773Y-82098804D01*
X259473671Y-82113030D01*
X259516893Y-82136133D01*
X259554777Y-82167223D01*
X259954777Y-82567223D01*
X259985867Y-82605107D01*
X260008970Y-82648329D01*
X260023196Y-82695227D01*
X260028000Y-82744000D01*
X260028000Y-83544000D01*
X260023196Y-83592773D01*
X260008970Y-83639671D01*
X259985867Y-83682893D01*
X259954777Y-83720777D01*
X259916893Y-83751867D01*
X259873671Y-83774970D01*
X259826773Y-83789196D01*
X259778000Y-83794000D01*
X258078000Y-83794000D01*
X258029227Y-83789196D01*
G37*
D12*
X201962000Y-72764000D03*
D13*
X203302000Y-76514000D03*
X203302000Y-74014000D03*
D14*
G36*
X204200773Y-70668804D02*
G01*
X204247671Y-70683030D01*
X204290893Y-70706133D01*
X204328777Y-70737223D01*
X204359867Y-70775107D01*
X204382970Y-70818329D01*
X204397196Y-70865227D01*
X204402000Y-70914000D01*
X204402000Y-72114000D01*
X204397196Y-72162773D01*
X204382970Y-72209671D01*
X204359867Y-72252893D01*
X204328777Y-72290777D01*
X204290893Y-72321867D01*
X204247671Y-72344970D01*
X204200773Y-72359196D01*
X204152000Y-72364000D01*
X202852000Y-72364000D01*
X202803227Y-72359196D01*
X202756329Y-72344970D01*
X202713107Y-72321867D01*
X202675223Y-72290777D01*
X202275223Y-71890777D01*
X202244133Y-71852893D01*
X202221030Y-71809671D01*
X202206804Y-71762773D01*
X202202000Y-71714000D01*
X202202000Y-70914000D01*
X202206804Y-70865227D01*
X202221030Y-70818329D01*
X202244133Y-70775107D01*
X202275223Y-70737223D01*
X202313107Y-70706133D01*
X202356329Y-70683030D01*
X202403227Y-70668804D01*
X202452000Y-70664000D01*
X204152000Y-70664000D01*
X204200773Y-70668804D01*
G37*
D12*
X168828000Y-113444000D03*
D13*
X167488000Y-112194000D03*
D14*
G36*
X166589227Y-115539196D02*
G01*
X166542329Y-115524970D01*
X166499107Y-115501867D01*
X166461223Y-115470777D01*
X166430133Y-115432893D01*
X166407030Y-115389671D01*
X166392804Y-115342773D01*
X166388000Y-115294000D01*
X166388000Y-114094000D01*
X166392804Y-114045227D01*
X166407030Y-113998329D01*
X166430133Y-113955107D01*
X166461223Y-113917223D01*
X166499107Y-113886133D01*
X166542329Y-113863030D01*
X166589227Y-113848804D01*
X166638000Y-113844000D01*
X167938000Y-113844000D01*
X167986773Y-113848804D01*
X168033671Y-113863030D01*
X168076893Y-113886133D01*
X168114777Y-113917223D01*
X168514777Y-114317223D01*
X168545867Y-114355107D01*
X168568970Y-114398329D01*
X168583196Y-114445227D01*
X168588000Y-114494000D01*
X168588000Y-115294000D01*
X168583196Y-115342773D01*
X168568970Y-115389671D01*
X168545867Y-115432893D01*
X168514777Y-115470777D01*
X168476893Y-115501867D01*
X168433671Y-115524970D01*
X168386773Y-115539196D01*
X168338000Y-115544000D01*
X166638000Y-115544000D01*
X166589227Y-115539196D01*
G37*
D15*
X202794000Y-102248000D03*
X200254000Y-102248000D03*
X197714000Y-102248000D03*
X195174000Y-102248000D03*
X192634000Y-102248000D03*
X190094000Y-102248000D03*
X187554000Y-102248000D03*
X185014000Y-102248000D03*
X174854000Y-102248000D03*
X177394000Y-102248000D03*
X179934000Y-102248000D03*
X182474000Y-102248000D03*
D10*
X258674000Y-140602000D03*
X258674000Y-138062000D03*
X258674000Y-135522000D03*
X258674000Y-132982000D03*
X258674000Y-130442000D03*
G36*
G01*
X258293000Y-116980000D02*
X259055000Y-116980000D01*
G75*
G02*
X259436000Y-117361000I0J-381000D01*
G01*
X259436000Y-118123000D01*
G75*
G02*
X259055000Y-118504000I-381000J0D01*
G01*
X258293000Y-118504000D01*
G75*
G02*
X257912000Y-118123000I0J381000D01*
G01*
X257912000Y-117361000D01*
G75*
G02*
X258293000Y-116980000I381000J0D01*
G01*
G37*
X258674000Y-120282000D03*
X258674000Y-122822000D03*
X258674000Y-125362000D03*
X258674000Y-127902000D03*
D12*
X260268000Y-108110000D03*
D13*
X258928000Y-104360000D03*
X258928000Y-106860000D03*
D14*
G36*
X258029227Y-110205196D02*
G01*
X257982329Y-110190970D01*
X257939107Y-110167867D01*
X257901223Y-110136777D01*
X257870133Y-110098893D01*
X257847030Y-110055671D01*
X257832804Y-110008773D01*
X257828000Y-109960000D01*
X257828000Y-108760000D01*
X257832804Y-108711227D01*
X257847030Y-108664329D01*
X257870133Y-108621107D01*
X257901223Y-108583223D01*
X257939107Y-108552133D01*
X257982329Y-108529030D01*
X258029227Y-108514804D01*
X258078000Y-108510000D01*
X259378000Y-108510000D01*
X259426773Y-108514804D01*
X259473671Y-108529030D01*
X259516893Y-108552133D01*
X259554777Y-108583223D01*
X259954777Y-108983223D01*
X259985867Y-109021107D01*
X260008970Y-109064329D01*
X260023196Y-109111227D01*
X260028000Y-109160000D01*
X260028000Y-109960000D01*
X260023196Y-110008773D01*
X260008970Y-110055671D01*
X259985867Y-110098893D01*
X259954777Y-110136777D01*
X259916893Y-110167867D01*
X259873671Y-110190970D01*
X259826773Y-110205196D01*
X259778000Y-110210000D01*
X258078000Y-110210000D01*
X258029227Y-110205196D01*
G37*
D12*
X237278000Y-137624000D03*
D16*
X241028000Y-136284000D03*
X238528000Y-136284000D03*
X236028000Y-136284000D03*
G36*
G01*
X234128000Y-137384000D02*
X232928000Y-137384000D01*
G75*
G02*
X232678000Y-137134000I0J250000D01*
G01*
X232678000Y-135434000D01*
G75*
G02*
X232928000Y-135184000I250000J0D01*
G01*
X234128000Y-135184000D01*
G75*
G02*
X234378000Y-135434000I0J-250000D01*
G01*
X234378000Y-137134000D01*
G75*
G02*
X234128000Y-137384000I-250000J0D01*
G01*
G37*
D12*
X237278000Y-145752000D03*
D16*
X241028000Y-144412000D03*
X238528000Y-144412000D03*
X236028000Y-144412000D03*
G36*
G01*
X234128000Y-145512000D02*
X232928000Y-145512000D01*
G75*
G02*
X232678000Y-145262000I0J250000D01*
G01*
X232678000Y-143562000D01*
G75*
G02*
X232928000Y-143312000I250000J0D01*
G01*
X234128000Y-143312000D01*
G75*
G02*
X234378000Y-143562000I0J-250000D01*
G01*
X234378000Y-145262000D01*
G75*
G02*
X234128000Y-145512000I-250000J0D01*
G01*
G37*
D12*
X206290000Y-137624000D03*
D16*
X210040000Y-136284000D03*
X207540000Y-136284000D03*
X205040000Y-136284000D03*
G36*
G01*
X203140000Y-137384000D02*
X201940000Y-137384000D01*
G75*
G02*
X201690000Y-137134000I0J250000D01*
G01*
X201690000Y-135434000D01*
G75*
G02*
X201940000Y-135184000I250000J0D01*
G01*
X203140000Y-135184000D01*
G75*
G02*
X203390000Y-135434000I0J-250000D01*
G01*
X203390000Y-137134000D01*
G75*
G02*
X203140000Y-137384000I-250000J0D01*
G01*
G37*
D12*
X206290000Y-145752000D03*
D16*
X210040000Y-144412000D03*
X207540000Y-144412000D03*
X205040000Y-144412000D03*
G36*
G01*
X203140000Y-145512000D02*
X201940000Y-145512000D01*
G75*
G02*
X201690000Y-145262000I0J250000D01*
G01*
X201690000Y-143562000D01*
G75*
G02*
X201940000Y-143312000I250000J0D01*
G01*
X203140000Y-143312000D01*
G75*
G02*
X203390000Y-143562000I0J-250000D01*
G01*
X203390000Y-145262000D01*
G75*
G02*
X203140000Y-145512000I-250000J0D01*
G01*
G37*
G36*
G01*
X188258001Y-82036000D02*
X187357999Y-82036000D01*
G75*
G02*
X187108000Y-81786001I0J249999D01*
G01*
X187108000Y-81085999D01*
G75*
G02*
X187357999Y-80836000I249999J0D01*
G01*
X188258001Y-80836000D01*
G75*
G02*
X188508000Y-81085999I0J-249999D01*
G01*
X188508000Y-81786001D01*
G75*
G02*
X188258001Y-82036000I-249999J0D01*
G01*
G37*
G36*
G01*
X188258001Y-84036000D02*
X187357999Y-84036000D01*
G75*
G02*
X187108000Y-83786001I0J249999D01*
G01*
X187108000Y-83085999D01*
G75*
G02*
X187357999Y-82836000I249999J0D01*
G01*
X188258001Y-82836000D01*
G75*
G02*
X188508000Y-83085999I0J-249999D01*
G01*
X188508000Y-83786001D01*
G75*
G02*
X188258001Y-84036000I-249999J0D01*
G01*
G37*
G36*
G01*
X168142000Y-84664001D02*
X168142000Y-83763999D01*
G75*
G02*
X168391999Y-83514000I249999J0D01*
G01*
X169092001Y-83514000D01*
G75*
G02*
X169342000Y-83763999I0J-249999D01*
G01*
X169342000Y-84664001D01*
G75*
G02*
X169092001Y-84914000I-249999J0D01*
G01*
X168391999Y-84914000D01*
G75*
G02*
X168142000Y-84664001I0J249999D01*
G01*
G37*
G36*
G01*
X166142000Y-84664001D02*
X166142000Y-83763999D01*
G75*
G02*
X166391999Y-83514000I249999J0D01*
G01*
X167092001Y-83514000D01*
G75*
G02*
X167342000Y-83763999I0J-249999D01*
G01*
X167342000Y-84664001D01*
G75*
G02*
X167092001Y-84914000I-249999J0D01*
G01*
X166391999Y-84914000D01*
G75*
G02*
X166142000Y-84664001I0J249999D01*
G01*
G37*
G36*
G01*
X168307999Y-88678000D02*
X169208001Y-88678000D01*
G75*
G02*
X169458000Y-88927999I0J-249999D01*
G01*
X169458000Y-89628001D01*
G75*
G02*
X169208001Y-89878000I-249999J0D01*
G01*
X168307999Y-89878000D01*
G75*
G02*
X168058000Y-89628001I0J249999D01*
G01*
X168058000Y-88927999D01*
G75*
G02*
X168307999Y-88678000I249999J0D01*
G01*
G37*
G36*
G01*
X168307999Y-86678000D02*
X169208001Y-86678000D01*
G75*
G02*
X169458000Y-86927999I0J-249999D01*
G01*
X169458000Y-87628001D01*
G75*
G02*
X169208001Y-87878000I-249999J0D01*
G01*
X168307999Y-87878000D01*
G75*
G02*
X168058000Y-87628001I0J249999D01*
G01*
X168058000Y-86927999D01*
G75*
G02*
X168307999Y-86678000I249999J0D01*
G01*
G37*
G36*
G01*
X172714000Y-89744001D02*
X172714000Y-88843999D01*
G75*
G02*
X172963999Y-88594000I249999J0D01*
G01*
X173664001Y-88594000D01*
G75*
G02*
X173914000Y-88843999I0J-249999D01*
G01*
X173914000Y-89744001D01*
G75*
G02*
X173664001Y-89994000I-249999J0D01*
G01*
X172963999Y-89994000D01*
G75*
G02*
X172714000Y-89744001I0J249999D01*
G01*
G37*
G36*
G01*
X170714000Y-89744001D02*
X170714000Y-88843999D01*
G75*
G02*
X170963999Y-88594000I249999J0D01*
G01*
X171664001Y-88594000D01*
G75*
G02*
X171914000Y-88843999I0J-249999D01*
G01*
X171914000Y-89744001D01*
G75*
G02*
X171664001Y-89994000I-249999J0D01*
G01*
X170963999Y-89994000D01*
G75*
G02*
X170714000Y-89744001I0J249999D01*
G01*
G37*
G36*
G01*
X176778000Y-89744001D02*
X176778000Y-88843999D01*
G75*
G02*
X177027999Y-88594000I249999J0D01*
G01*
X177728001Y-88594000D01*
G75*
G02*
X177978000Y-88843999I0J-249999D01*
G01*
X177978000Y-89744001D01*
G75*
G02*
X177728001Y-89994000I-249999J0D01*
G01*
X177027999Y-89994000D01*
G75*
G02*
X176778000Y-89744001I0J249999D01*
G01*
G37*
G36*
G01*
X174778000Y-89744001D02*
X174778000Y-88843999D01*
G75*
G02*
X175027999Y-88594000I249999J0D01*
G01*
X175728001Y-88594000D01*
G75*
G02*
X175978000Y-88843999I0J-249999D01*
G01*
X175978000Y-89744001D01*
G75*
G02*
X175728001Y-89994000I-249999J0D01*
G01*
X175027999Y-89994000D01*
G75*
G02*
X174778000Y-89744001I0J249999D01*
G01*
G37*
G36*
G01*
X180826000Y-89744001D02*
X180826000Y-88843999D01*
G75*
G02*
X181075999Y-88594000I249999J0D01*
G01*
X181776001Y-88594000D01*
G75*
G02*
X182026000Y-88843999I0J-249999D01*
G01*
X182026000Y-89744001D01*
G75*
G02*
X181776001Y-89994000I-249999J0D01*
G01*
X181075999Y-89994000D01*
G75*
G02*
X180826000Y-89744001I0J249999D01*
G01*
G37*
G36*
G01*
X178826000Y-89744001D02*
X178826000Y-88843999D01*
G75*
G02*
X179075999Y-88594000I249999J0D01*
G01*
X179776001Y-88594000D01*
G75*
G02*
X180026000Y-88843999I0J-249999D01*
G01*
X180026000Y-89744001D01*
G75*
G02*
X179776001Y-89994000I-249999J0D01*
G01*
X179075999Y-89994000D01*
G75*
G02*
X178826000Y-89744001I0J249999D01*
G01*
G37*
G36*
G01*
X184295601Y-87878000D02*
X183395599Y-87878000D01*
G75*
G02*
X183145600Y-87628001I0J249999D01*
G01*
X183145600Y-86927999D01*
G75*
G02*
X183395599Y-86678000I249999J0D01*
G01*
X184295601Y-86678000D01*
G75*
G02*
X184545600Y-86927999I0J-249999D01*
G01*
X184545600Y-87628001D01*
G75*
G02*
X184295601Y-87878000I-249999J0D01*
G01*
G37*
G36*
G01*
X184295601Y-89878000D02*
X183395599Y-89878000D01*
G75*
G02*
X183145600Y-89628001I0J249999D01*
G01*
X183145600Y-88927999D01*
G75*
G02*
X183395599Y-88678000I249999J0D01*
G01*
X184295601Y-88678000D01*
G75*
G02*
X184545600Y-88927999I0J-249999D01*
G01*
X184545600Y-89628001D01*
G75*
G02*
X184295601Y-89878000I-249999J0D01*
G01*
G37*
G36*
G01*
X185160000Y-84664001D02*
X185160000Y-83763999D01*
G75*
G02*
X185409999Y-83514000I249999J0D01*
G01*
X186110001Y-83514000D01*
G75*
G02*
X186360000Y-83763999I0J-249999D01*
G01*
X186360000Y-84664001D01*
G75*
G02*
X186110001Y-84914000I-249999J0D01*
G01*
X185409999Y-84914000D01*
G75*
G02*
X185160000Y-84664001I0J249999D01*
G01*
G37*
G36*
G01*
X183160000Y-84664001D02*
X183160000Y-83763999D01*
G75*
G02*
X183409999Y-83514000I249999J0D01*
G01*
X184110001Y-83514000D01*
G75*
G02*
X184360000Y-83763999I0J-249999D01*
G01*
X184360000Y-84664001D01*
G75*
G02*
X184110001Y-84914000I-249999J0D01*
G01*
X183409999Y-84914000D01*
G75*
G02*
X183160000Y-84664001I0J249999D01*
G01*
G37*
G36*
G01*
X217722001Y-131058000D02*
X216821999Y-131058000D01*
G75*
G02*
X216572000Y-130808001I0J249999D01*
G01*
X216572000Y-130107999D01*
G75*
G02*
X216821999Y-129858000I249999J0D01*
G01*
X217722001Y-129858000D01*
G75*
G02*
X217972000Y-130107999I0J-249999D01*
G01*
X217972000Y-130808001D01*
G75*
G02*
X217722001Y-131058000I-249999J0D01*
G01*
G37*
G36*
G01*
X217722001Y-133058000D02*
X216821999Y-133058000D01*
G75*
G02*
X216572000Y-132808001I0J249999D01*
G01*
X216572000Y-132107999D01*
G75*
G02*
X216821999Y-131858000I249999J0D01*
G01*
X217722001Y-131858000D01*
G75*
G02*
X217972000Y-132107999I0J-249999D01*
G01*
X217972000Y-132808001D01*
G75*
G02*
X217722001Y-133058000I-249999J0D01*
G01*
G37*
G36*
G01*
X226358001Y-131058000D02*
X225457999Y-131058000D01*
G75*
G02*
X225208000Y-130808001I0J249999D01*
G01*
X225208000Y-130107999D01*
G75*
G02*
X225457999Y-129858000I249999J0D01*
G01*
X226358001Y-129858000D01*
G75*
G02*
X226608000Y-130107999I0J-249999D01*
G01*
X226608000Y-130808001D01*
G75*
G02*
X226358001Y-131058000I-249999J0D01*
G01*
G37*
G36*
G01*
X226358001Y-133058000D02*
X225457999Y-133058000D01*
G75*
G02*
X225208000Y-132808001I0J249999D01*
G01*
X225208000Y-132107999D01*
G75*
G02*
X225457999Y-131858000I249999J0D01*
G01*
X226358001Y-131858000D01*
G75*
G02*
X226608000Y-132107999I0J-249999D01*
G01*
X226608000Y-132808001D01*
G75*
G02*
X226358001Y-133058000I-249999J0D01*
G01*
G37*
G36*
G01*
X225457999Y-111538000D02*
X226358001Y-111538000D01*
G75*
G02*
X226608000Y-111787999I0J-249999D01*
G01*
X226608000Y-112488001D01*
G75*
G02*
X226358001Y-112738000I-249999J0D01*
G01*
X225457999Y-112738000D01*
G75*
G02*
X225208000Y-112488001I0J249999D01*
G01*
X225208000Y-111787999D01*
G75*
G02*
X225457999Y-111538000I249999J0D01*
G01*
G37*
G36*
G01*
X225457999Y-109538000D02*
X226358001Y-109538000D01*
G75*
G02*
X226608000Y-109787999I0J-249999D01*
G01*
X226608000Y-110488001D01*
G75*
G02*
X226358001Y-110738000I-249999J0D01*
G01*
X225457999Y-110738000D01*
G75*
G02*
X225208000Y-110488001I0J249999D01*
G01*
X225208000Y-109787999D01*
G75*
G02*
X225457999Y-109538000I249999J0D01*
G01*
G37*
G36*
G01*
X216821999Y-111538000D02*
X217722001Y-111538000D01*
G75*
G02*
X217972000Y-111787999I0J-249999D01*
G01*
X217972000Y-112488001D01*
G75*
G02*
X217722001Y-112738000I-249999J0D01*
G01*
X216821999Y-112738000D01*
G75*
G02*
X216572000Y-112488001I0J249999D01*
G01*
X216572000Y-111787999D01*
G75*
G02*
X216821999Y-111538000I249999J0D01*
G01*
G37*
G36*
G01*
X216821999Y-109538000D02*
X217722001Y-109538000D01*
G75*
G02*
X217972000Y-109787999I0J-249999D01*
G01*
X217972000Y-110488001D01*
G75*
G02*
X217722001Y-110738000I-249999J0D01*
G01*
X216821999Y-110738000D01*
G75*
G02*
X216572000Y-110488001I0J249999D01*
G01*
X216572000Y-109787999D01*
G75*
G02*
X216821999Y-109538000I249999J0D01*
G01*
G37*
G36*
G01*
X215182001Y-131058000D02*
X214281999Y-131058000D01*
G75*
G02*
X214032000Y-130808001I0J249999D01*
G01*
X214032000Y-130107999D01*
G75*
G02*
X214281999Y-129858000I249999J0D01*
G01*
X215182001Y-129858000D01*
G75*
G02*
X215432000Y-130107999I0J-249999D01*
G01*
X215432000Y-130808001D01*
G75*
G02*
X215182001Y-131058000I-249999J0D01*
G01*
G37*
G36*
G01*
X215182001Y-133058000D02*
X214281999Y-133058000D01*
G75*
G02*
X214032000Y-132808001I0J249999D01*
G01*
X214032000Y-132107999D01*
G75*
G02*
X214281999Y-131858000I249999J0D01*
G01*
X215182001Y-131858000D01*
G75*
G02*
X215432000Y-132107999I0J-249999D01*
G01*
X215432000Y-132808001D01*
G75*
G02*
X215182001Y-133058000I-249999J0D01*
G01*
G37*
G36*
G01*
X228898001Y-131058000D02*
X227997999Y-131058000D01*
G75*
G02*
X227748000Y-130808001I0J249999D01*
G01*
X227748000Y-130107999D01*
G75*
G02*
X227997999Y-129858000I249999J0D01*
G01*
X228898001Y-129858000D01*
G75*
G02*
X229148000Y-130107999I0J-249999D01*
G01*
X229148000Y-130808001D01*
G75*
G02*
X228898001Y-131058000I-249999J0D01*
G01*
G37*
G36*
G01*
X228898001Y-133058000D02*
X227997999Y-133058000D01*
G75*
G02*
X227748000Y-132808001I0J249999D01*
G01*
X227748000Y-132107999D01*
G75*
G02*
X227997999Y-131858000I249999J0D01*
G01*
X228898001Y-131858000D01*
G75*
G02*
X229148000Y-132107999I0J-249999D01*
G01*
X229148000Y-132808001D01*
G75*
G02*
X228898001Y-133058000I-249999J0D01*
G01*
G37*
G36*
G01*
X227997999Y-111538000D02*
X228898001Y-111538000D01*
G75*
G02*
X229148000Y-111787999I0J-249999D01*
G01*
X229148000Y-112488001D01*
G75*
G02*
X228898001Y-112738000I-249999J0D01*
G01*
X227997999Y-112738000D01*
G75*
G02*
X227748000Y-112488001I0J249999D01*
G01*
X227748000Y-111787999D01*
G75*
G02*
X227997999Y-111538000I249999J0D01*
G01*
G37*
G36*
G01*
X227997999Y-109538000D02*
X228898001Y-109538000D01*
G75*
G02*
X229148000Y-109787999I0J-249999D01*
G01*
X229148000Y-110488001D01*
G75*
G02*
X228898001Y-110738000I-249999J0D01*
G01*
X227997999Y-110738000D01*
G75*
G02*
X227748000Y-110488001I0J249999D01*
G01*
X227748000Y-109787999D01*
G75*
G02*
X227997999Y-109538000I249999J0D01*
G01*
G37*
G36*
G01*
X214281999Y-111538000D02*
X215182001Y-111538000D01*
G75*
G02*
X215432000Y-111787999I0J-249999D01*
G01*
X215432000Y-112488001D01*
G75*
G02*
X215182001Y-112738000I-249999J0D01*
G01*
X214281999Y-112738000D01*
G75*
G02*
X214032000Y-112488001I0J249999D01*
G01*
X214032000Y-111787999D01*
G75*
G02*
X214281999Y-111538000I249999J0D01*
G01*
G37*
G36*
G01*
X214281999Y-109538000D02*
X215182001Y-109538000D01*
G75*
G02*
X215432000Y-109787999I0J-249999D01*
G01*
X215432000Y-110488001D01*
G75*
G02*
X215182001Y-110738000I-249999J0D01*
G01*
X214281999Y-110738000D01*
G75*
G02*
X214032000Y-110488001I0J249999D01*
G01*
X214032000Y-109787999D01*
G75*
G02*
X214281999Y-109538000I249999J0D01*
G01*
G37*
G36*
G01*
X216402000Y-135464001D02*
X216402000Y-134563999D01*
G75*
G02*
X216651999Y-134314000I249999J0D01*
G01*
X217352001Y-134314000D01*
G75*
G02*
X217602000Y-134563999I0J-249999D01*
G01*
X217602000Y-135464001D01*
G75*
G02*
X217352001Y-135714000I-249999J0D01*
G01*
X216651999Y-135714000D01*
G75*
G02*
X216402000Y-135464001I0J249999D01*
G01*
G37*
G36*
G01*
X214402000Y-135464001D02*
X214402000Y-134563999D01*
G75*
G02*
X214651999Y-134314000I249999J0D01*
G01*
X215352001Y-134314000D01*
G75*
G02*
X215602000Y-134563999I0J-249999D01*
G01*
X215602000Y-135464001D01*
G75*
G02*
X215352001Y-135714000I-249999J0D01*
G01*
X214651999Y-135714000D01*
G75*
G02*
X214402000Y-135464001I0J249999D01*
G01*
G37*
G36*
G01*
X225038000Y-135464001D02*
X225038000Y-134563999D01*
G75*
G02*
X225287999Y-134314000I249999J0D01*
G01*
X225988001Y-134314000D01*
G75*
G02*
X226238000Y-134563999I0J-249999D01*
G01*
X226238000Y-135464001D01*
G75*
G02*
X225988001Y-135714000I-249999J0D01*
G01*
X225287999Y-135714000D01*
G75*
G02*
X225038000Y-135464001I0J249999D01*
G01*
G37*
G36*
G01*
X223038000Y-135464001D02*
X223038000Y-134563999D01*
G75*
G02*
X223287999Y-134314000I249999J0D01*
G01*
X223988001Y-134314000D01*
G75*
G02*
X224238000Y-134563999I0J-249999D01*
G01*
X224238000Y-135464001D01*
G75*
G02*
X223988001Y-135714000I-249999J0D01*
G01*
X223287999Y-135714000D01*
G75*
G02*
X223038000Y-135464001I0J249999D01*
G01*
G37*
G36*
G01*
X224800000Y-108032001D02*
X224800000Y-107131999D01*
G75*
G02*
X225049999Y-106882000I249999J0D01*
G01*
X225750001Y-106882000D01*
G75*
G02*
X226000000Y-107131999I0J-249999D01*
G01*
X226000000Y-108032001D01*
G75*
G02*
X225750001Y-108282000I-249999J0D01*
G01*
X225049999Y-108282000D01*
G75*
G02*
X224800000Y-108032001I0J249999D01*
G01*
G37*
G36*
G01*
X222800000Y-108032001D02*
X222800000Y-107131999D01*
G75*
G02*
X223049999Y-106882000I249999J0D01*
G01*
X223750001Y-106882000D01*
G75*
G02*
X224000000Y-107131999I0J-249999D01*
G01*
X224000000Y-108032001D01*
G75*
G02*
X223750001Y-108282000I-249999J0D01*
G01*
X223049999Y-108282000D01*
G75*
G02*
X222800000Y-108032001I0J249999D01*
G01*
G37*
G36*
G01*
X216148000Y-108032001D02*
X216148000Y-107131999D01*
G75*
G02*
X216397999Y-106882000I249999J0D01*
G01*
X217098001Y-106882000D01*
G75*
G02*
X217348000Y-107131999I0J-249999D01*
G01*
X217348000Y-108032001D01*
G75*
G02*
X217098001Y-108282000I-249999J0D01*
G01*
X216397999Y-108282000D01*
G75*
G02*
X216148000Y-108032001I0J249999D01*
G01*
G37*
G36*
G01*
X214148000Y-108032001D02*
X214148000Y-107131999D01*
G75*
G02*
X214397999Y-106882000I249999J0D01*
G01*
X215098001Y-106882000D01*
G75*
G02*
X215348000Y-107131999I0J-249999D01*
G01*
X215348000Y-108032001D01*
G75*
G02*
X215098001Y-108282000I-249999J0D01*
G01*
X214397999Y-108282000D01*
G75*
G02*
X214148000Y-108032001I0J249999D01*
G01*
G37*
G36*
G01*
X242729999Y-122190000D02*
X243630001Y-122190000D01*
G75*
G02*
X243880000Y-122439999I0J-249999D01*
G01*
X243880000Y-123140001D01*
G75*
G02*
X243630001Y-123390000I-249999J0D01*
G01*
X242729999Y-123390000D01*
G75*
G02*
X242480000Y-123140001I0J249999D01*
G01*
X242480000Y-122439999D01*
G75*
G02*
X242729999Y-122190000I249999J0D01*
G01*
G37*
G36*
G01*
X242729999Y-120190000D02*
X243630001Y-120190000D01*
G75*
G02*
X243880000Y-120439999I0J-249999D01*
G01*
X243880000Y-121140001D01*
G75*
G02*
X243630001Y-121390000I-249999J0D01*
G01*
X242729999Y-121390000D01*
G75*
G02*
X242480000Y-121140001I0J249999D01*
G01*
X242480000Y-120439999D01*
G75*
G02*
X242729999Y-120190000I249999J0D01*
G01*
G37*
G36*
G01*
X247694001Y-121406000D02*
X246793999Y-121406000D01*
G75*
G02*
X246544000Y-121156001I0J249999D01*
G01*
X246544000Y-120455999D01*
G75*
G02*
X246793999Y-120206000I249999J0D01*
G01*
X247694001Y-120206000D01*
G75*
G02*
X247944000Y-120455999I0J-249999D01*
G01*
X247944000Y-121156001D01*
G75*
G02*
X247694001Y-121406000I-249999J0D01*
G01*
G37*
G36*
G01*
X247694001Y-123406000D02*
X246793999Y-123406000D01*
G75*
G02*
X246544000Y-123156001I0J249999D01*
G01*
X246544000Y-122455999D01*
G75*
G02*
X246793999Y-122206000I249999J0D01*
G01*
X247694001Y-122206000D01*
G75*
G02*
X247944000Y-122455999I0J-249999D01*
G01*
X247944000Y-123156001D01*
G75*
G02*
X247694001Y-123406000I-249999J0D01*
G01*
G37*
G36*
G01*
X237026001Y-120390000D02*
X236125999Y-120390000D01*
G75*
G02*
X235876000Y-120140001I0J249999D01*
G01*
X235876000Y-119439999D01*
G75*
G02*
X236125999Y-119190000I249999J0D01*
G01*
X237026001Y-119190000D01*
G75*
G02*
X237276000Y-119439999I0J-249999D01*
G01*
X237276000Y-120140001D01*
G75*
G02*
X237026001Y-120390000I-249999J0D01*
G01*
G37*
G36*
G01*
X237026001Y-122390000D02*
X236125999Y-122390000D01*
G75*
G02*
X235876000Y-122140001I0J249999D01*
G01*
X235876000Y-121439999D01*
G75*
G02*
X236125999Y-121190000I249999J0D01*
G01*
X237026001Y-121190000D01*
G75*
G02*
X237276000Y-121439999I0J-249999D01*
G01*
X237276000Y-122140001D01*
G75*
G02*
X237026001Y-122390000I-249999J0D01*
G01*
G37*
G36*
G01*
X254298001Y-120390000D02*
X253397999Y-120390000D01*
G75*
G02*
X253148000Y-120140001I0J249999D01*
G01*
X253148000Y-119439999D01*
G75*
G02*
X253397999Y-119190000I249999J0D01*
G01*
X254298001Y-119190000D01*
G75*
G02*
X254548000Y-119439999I0J-249999D01*
G01*
X254548000Y-120140001D01*
G75*
G02*
X254298001Y-120390000I-249999J0D01*
G01*
G37*
G36*
G01*
X254298001Y-122390000D02*
X253397999Y-122390000D01*
G75*
G02*
X253148000Y-122140001I0J249999D01*
G01*
X253148000Y-121439999D01*
G75*
G02*
X253397999Y-121190000I249999J0D01*
G01*
X254298001Y-121190000D01*
G75*
G02*
X254548000Y-121439999I0J-249999D01*
G01*
X254548000Y-122140001D01*
G75*
G02*
X254298001Y-122390000I-249999J0D01*
G01*
G37*
G36*
G01*
X237026001Y-114294000D02*
X236125999Y-114294000D01*
G75*
G02*
X235876000Y-114044001I0J249999D01*
G01*
X235876000Y-113343999D01*
G75*
G02*
X236125999Y-113094000I249999J0D01*
G01*
X237026001Y-113094000D01*
G75*
G02*
X237276000Y-113343999I0J-249999D01*
G01*
X237276000Y-114044001D01*
G75*
G02*
X237026001Y-114294000I-249999J0D01*
G01*
G37*
G36*
G01*
X237026001Y-116294000D02*
X236125999Y-116294000D01*
G75*
G02*
X235876000Y-116044001I0J249999D01*
G01*
X235876000Y-115343999D01*
G75*
G02*
X236125999Y-115094000I249999J0D01*
G01*
X237026001Y-115094000D01*
G75*
G02*
X237276000Y-115343999I0J-249999D01*
G01*
X237276000Y-116044001D01*
G75*
G02*
X237026001Y-116294000I-249999J0D01*
G01*
G37*
G36*
G01*
X242729999Y-114078000D02*
X243630001Y-114078000D01*
G75*
G02*
X243880000Y-114327999I0J-249999D01*
G01*
X243880000Y-115028001D01*
G75*
G02*
X243630001Y-115278000I-249999J0D01*
G01*
X242729999Y-115278000D01*
G75*
G02*
X242480000Y-115028001I0J249999D01*
G01*
X242480000Y-114327999D01*
G75*
G02*
X242729999Y-114078000I249999J0D01*
G01*
G37*
G36*
G01*
X242729999Y-112078000D02*
X243630001Y-112078000D01*
G75*
G02*
X243880000Y-112327999I0J-249999D01*
G01*
X243880000Y-113028001D01*
G75*
G02*
X243630001Y-113278000I-249999J0D01*
G01*
X242729999Y-113278000D01*
G75*
G02*
X242480000Y-113028001I0J249999D01*
G01*
X242480000Y-112327999D01*
G75*
G02*
X242729999Y-112078000I249999J0D01*
G01*
G37*
G36*
G01*
X254298001Y-114294000D02*
X253397999Y-114294000D01*
G75*
G02*
X253148000Y-114044001I0J249999D01*
G01*
X253148000Y-113343999D01*
G75*
G02*
X253397999Y-113094000I249999J0D01*
G01*
X254298001Y-113094000D01*
G75*
G02*
X254548000Y-113343999I0J-249999D01*
G01*
X254548000Y-114044001D01*
G75*
G02*
X254298001Y-114294000I-249999J0D01*
G01*
G37*
G36*
G01*
X254298001Y-116294000D02*
X253397999Y-116294000D01*
G75*
G02*
X253148000Y-116044001I0J249999D01*
G01*
X253148000Y-115343999D01*
G75*
G02*
X253397999Y-115094000I249999J0D01*
G01*
X254298001Y-115094000D01*
G75*
G02*
X254548000Y-115343999I0J-249999D01*
G01*
X254548000Y-116044001D01*
G75*
G02*
X254298001Y-116294000I-249999J0D01*
G01*
G37*
G36*
G01*
X247694001Y-113278000D02*
X246793999Y-113278000D01*
G75*
G02*
X246544000Y-113028001I0J249999D01*
G01*
X246544000Y-112327999D01*
G75*
G02*
X246793999Y-112078000I249999J0D01*
G01*
X247694001Y-112078000D01*
G75*
G02*
X247944000Y-112327999I0J-249999D01*
G01*
X247944000Y-113028001D01*
G75*
G02*
X247694001Y-113278000I-249999J0D01*
G01*
G37*
G36*
G01*
X247694001Y-115278000D02*
X246793999Y-115278000D01*
G75*
G02*
X246544000Y-115028001I0J249999D01*
G01*
X246544000Y-114327999D01*
G75*
G02*
X246793999Y-114078000I249999J0D01*
G01*
X247694001Y-114078000D01*
G75*
G02*
X247944000Y-114327999I0J-249999D01*
G01*
X247944000Y-115028001D01*
G75*
G02*
X247694001Y-115278000I-249999J0D01*
G01*
G37*
G36*
G01*
X220287000Y-131008000D02*
X219337000Y-131008000D01*
G75*
G02*
X219087000Y-130758000I0J250000D01*
G01*
X219087000Y-130083000D01*
G75*
G02*
X219337000Y-129833000I250000J0D01*
G01*
X220287000Y-129833000D01*
G75*
G02*
X220537000Y-130083000I0J-250000D01*
G01*
X220537000Y-130758000D01*
G75*
G02*
X220287000Y-131008000I-250000J0D01*
G01*
G37*
G36*
G01*
X220287000Y-133083000D02*
X219337000Y-133083000D01*
G75*
G02*
X219087000Y-132833000I0J250000D01*
G01*
X219087000Y-132158000D01*
G75*
G02*
X219337000Y-131908000I250000J0D01*
G01*
X220287000Y-131908000D01*
G75*
G02*
X220537000Y-132158000I0J-250000D01*
G01*
X220537000Y-132833000D01*
G75*
G02*
X220287000Y-133083000I-250000J0D01*
G01*
G37*
G36*
G01*
X223843000Y-131008000D02*
X222893000Y-131008000D01*
G75*
G02*
X222643000Y-130758000I0J250000D01*
G01*
X222643000Y-130083000D01*
G75*
G02*
X222893000Y-129833000I250000J0D01*
G01*
X223843000Y-129833000D01*
G75*
G02*
X224093000Y-130083000I0J-250000D01*
G01*
X224093000Y-130758000D01*
G75*
G02*
X223843000Y-131008000I-250000J0D01*
G01*
G37*
G36*
G01*
X223843000Y-133083000D02*
X222893000Y-133083000D01*
G75*
G02*
X222643000Y-132833000I0J250000D01*
G01*
X222643000Y-132158000D01*
G75*
G02*
X222893000Y-131908000I250000J0D01*
G01*
X223843000Y-131908000D01*
G75*
G02*
X224093000Y-132158000I0J-250000D01*
G01*
X224093000Y-132833000D01*
G75*
G02*
X223843000Y-133083000I-250000J0D01*
G01*
G37*
G36*
G01*
X222893000Y-111588000D02*
X223843000Y-111588000D01*
G75*
G02*
X224093000Y-111838000I0J-250000D01*
G01*
X224093000Y-112513000D01*
G75*
G02*
X223843000Y-112763000I-250000J0D01*
G01*
X222893000Y-112763000D01*
G75*
G02*
X222643000Y-112513000I0J250000D01*
G01*
X222643000Y-111838000D01*
G75*
G02*
X222893000Y-111588000I250000J0D01*
G01*
G37*
G36*
G01*
X222893000Y-109513000D02*
X223843000Y-109513000D01*
G75*
G02*
X224093000Y-109763000I0J-250000D01*
G01*
X224093000Y-110438000D01*
G75*
G02*
X223843000Y-110688000I-250000J0D01*
G01*
X222893000Y-110688000D01*
G75*
G02*
X222643000Y-110438000I0J250000D01*
G01*
X222643000Y-109763000D01*
G75*
G02*
X222893000Y-109513000I250000J0D01*
G01*
G37*
G36*
G01*
X219337000Y-111588000D02*
X220287000Y-111588000D01*
G75*
G02*
X220537000Y-111838000I0J-250000D01*
G01*
X220537000Y-112513000D01*
G75*
G02*
X220287000Y-112763000I-250000J0D01*
G01*
X219337000Y-112763000D01*
G75*
G02*
X219087000Y-112513000I0J250000D01*
G01*
X219087000Y-111838000D01*
G75*
G02*
X219337000Y-111588000I250000J0D01*
G01*
G37*
G36*
G01*
X219337000Y-109513000D02*
X220287000Y-109513000D01*
G75*
G02*
X220537000Y-109763000I0J-250000D01*
G01*
X220537000Y-110438000D01*
G75*
G02*
X220287000Y-110688000I-250000J0D01*
G01*
X219337000Y-110688000D01*
G75*
G02*
X219087000Y-110438000I0J250000D01*
G01*
X219087000Y-109763000D01*
G75*
G02*
X219337000Y-109513000I250000J0D01*
G01*
G37*
G36*
G01*
X215298000Y-114219000D02*
X215298000Y-115169000D01*
G75*
G02*
X215048000Y-115419000I-250000J0D01*
G01*
X214373000Y-115419000D01*
G75*
G02*
X214123000Y-115169000I0J250000D01*
G01*
X214123000Y-114219000D01*
G75*
G02*
X214373000Y-113969000I250000J0D01*
G01*
X215048000Y-113969000D01*
G75*
G02*
X215298000Y-114219000I0J-250000D01*
G01*
G37*
G36*
G01*
X217373000Y-114219000D02*
X217373000Y-115169000D01*
G75*
G02*
X217123000Y-115419000I-250000J0D01*
G01*
X216448000Y-115419000D01*
G75*
G02*
X216198000Y-115169000I0J250000D01*
G01*
X216198000Y-114219000D01*
G75*
G02*
X216448000Y-113969000I250000J0D01*
G01*
X217123000Y-113969000D01*
G75*
G02*
X217373000Y-114219000I0J-250000D01*
G01*
G37*
G36*
G01*
X215298000Y-127935000D02*
X215298000Y-128885000D01*
G75*
G02*
X215048000Y-129135000I-250000J0D01*
G01*
X214373000Y-129135000D01*
G75*
G02*
X214123000Y-128885000I0J250000D01*
G01*
X214123000Y-127935000D01*
G75*
G02*
X214373000Y-127685000I250000J0D01*
G01*
X215048000Y-127685000D01*
G75*
G02*
X215298000Y-127935000I0J-250000D01*
G01*
G37*
G36*
G01*
X217373000Y-127935000D02*
X217373000Y-128885000D01*
G75*
G02*
X217123000Y-129135000I-250000J0D01*
G01*
X216448000Y-129135000D01*
G75*
G02*
X216198000Y-128885000I0J250000D01*
G01*
X216198000Y-127935000D01*
G75*
G02*
X216448000Y-127685000I250000J0D01*
G01*
X217123000Y-127685000D01*
G75*
G02*
X217373000Y-127935000I0J-250000D01*
G01*
G37*
G36*
G01*
X227882000Y-128377000D02*
X227882000Y-127427000D01*
G75*
G02*
X228132000Y-127177000I250000J0D01*
G01*
X228807000Y-127177000D01*
G75*
G02*
X229057000Y-127427000I0J-250000D01*
G01*
X229057000Y-128377000D01*
G75*
G02*
X228807000Y-128627000I-250000J0D01*
G01*
X228132000Y-128627000D01*
G75*
G02*
X227882000Y-128377000I0J250000D01*
G01*
G37*
G36*
G01*
X225807000Y-128377000D02*
X225807000Y-127427000D01*
G75*
G02*
X226057000Y-127177000I250000J0D01*
G01*
X226732000Y-127177000D01*
G75*
G02*
X226982000Y-127427000I0J-250000D01*
G01*
X226982000Y-128377000D01*
G75*
G02*
X226732000Y-128627000I-250000J0D01*
G01*
X226057000Y-128627000D01*
G75*
G02*
X225807000Y-128377000I0J250000D01*
G01*
G37*
G36*
G01*
X227882000Y-115169000D02*
X227882000Y-114219000D01*
G75*
G02*
X228132000Y-113969000I250000J0D01*
G01*
X228807000Y-113969000D01*
G75*
G02*
X229057000Y-114219000I0J-250000D01*
G01*
X229057000Y-115169000D01*
G75*
G02*
X228807000Y-115419000I-250000J0D01*
G01*
X228132000Y-115419000D01*
G75*
G02*
X227882000Y-115169000I0J250000D01*
G01*
G37*
G36*
G01*
X225807000Y-115169000D02*
X225807000Y-114219000D01*
G75*
G02*
X226057000Y-113969000I250000J0D01*
G01*
X226732000Y-113969000D01*
G75*
G02*
X226982000Y-114219000I0J-250000D01*
G01*
X226982000Y-115169000D01*
G75*
G02*
X226732000Y-115419000I-250000J0D01*
G01*
X226057000Y-115419000D01*
G75*
G02*
X225807000Y-115169000I0J250000D01*
G01*
G37*
G36*
G01*
X253144000Y-101519000D02*
X253144000Y-102469000D01*
G75*
G02*
X252894000Y-102719000I-250000J0D01*
G01*
X252219000Y-102719000D01*
G75*
G02*
X251969000Y-102469000I0J250000D01*
G01*
X251969000Y-101519000D01*
G75*
G02*
X252219000Y-101269000I250000J0D01*
G01*
X252894000Y-101269000D01*
G75*
G02*
X253144000Y-101519000I0J-250000D01*
G01*
G37*
G36*
G01*
X255219000Y-101519000D02*
X255219000Y-102469000D01*
G75*
G02*
X254969000Y-102719000I-250000J0D01*
G01*
X254294000Y-102719000D01*
G75*
G02*
X254044000Y-102469000I0J250000D01*
G01*
X254044000Y-101519000D01*
G75*
G02*
X254294000Y-101269000I250000J0D01*
G01*
X254969000Y-101269000D01*
G75*
G02*
X255219000Y-101519000I0J-250000D01*
G01*
G37*
G36*
G01*
X260140000Y-114407000D02*
X260140000Y-113457000D01*
G75*
G02*
X260390000Y-113207000I250000J0D01*
G01*
X261065000Y-113207000D01*
G75*
G02*
X261315000Y-113457000I0J-250000D01*
G01*
X261315000Y-114407000D01*
G75*
G02*
X261065000Y-114657000I-250000J0D01*
G01*
X260390000Y-114657000D01*
G75*
G02*
X260140000Y-114407000I0J250000D01*
G01*
G37*
G36*
G01*
X258065000Y-114407000D02*
X258065000Y-113457000D01*
G75*
G02*
X258315000Y-113207000I250000J0D01*
G01*
X258990000Y-113207000D01*
G75*
G02*
X259240000Y-113457000I0J-250000D01*
G01*
X259240000Y-114407000D01*
G75*
G02*
X258990000Y-114657000I-250000J0D01*
G01*
X258315000Y-114657000D01*
G75*
G02*
X258065000Y-114407000I0J250000D01*
G01*
G37*
G36*
G01*
X210610000Y-132695000D02*
X210610000Y-131745000D01*
G75*
G02*
X210860000Y-131495000I250000J0D01*
G01*
X211535000Y-131495000D01*
G75*
G02*
X211785000Y-131745000I0J-250000D01*
G01*
X211785000Y-132695000D01*
G75*
G02*
X211535000Y-132945000I-250000J0D01*
G01*
X210860000Y-132945000D01*
G75*
G02*
X210610000Y-132695000I0J250000D01*
G01*
G37*
G36*
G01*
X208535000Y-132695000D02*
X208535000Y-131745000D01*
G75*
G02*
X208785000Y-131495000I250000J0D01*
G01*
X209460000Y-131495000D01*
G75*
G02*
X209710000Y-131745000I0J-250000D01*
G01*
X209710000Y-132695000D01*
G75*
G02*
X209460000Y-132945000I-250000J0D01*
G01*
X208785000Y-132945000D01*
G75*
G02*
X208535000Y-132695000I0J250000D01*
G01*
G37*
D10*
X253263001Y-75761999D03*
X253263001Y-77771999D03*
X253263001Y-79781999D03*
X253263001Y-85811999D03*
X253263001Y-83801999D03*
X253179001Y-81791999D03*
X236830000Y-104280000D03*
X239370000Y-104280000D03*
X241910000Y-104280000D03*
X244450000Y-104280000D03*
X246990000Y-104280000D03*
G36*
G01*
X255372000Y-103899000D02*
X255372000Y-104661000D01*
G75*
G02*
X254991000Y-105042000I-381000J0D01*
G01*
X254229000Y-105042000D01*
G75*
G02*
X253848000Y-104661000I0J381000D01*
G01*
X253848000Y-103899000D01*
G75*
G02*
X254229000Y-103518000I381000J0D01*
G01*
X254991000Y-103518000D01*
G75*
G02*
X255372000Y-103899000I0J-381000D01*
G01*
G37*
X252070000Y-104280000D03*
X249530000Y-104280000D03*
D15*
X212192000Y-77989000D03*
X212192000Y-82819000D03*
D17*
X216842000Y-80404000D03*
G36*
G01*
X215319000Y-83179000D02*
X215319000Y-82279000D01*
G75*
G02*
X215769000Y-81829000I450000J0D01*
G01*
X216669000Y-81829000D01*
G75*
G02*
X217119000Y-82279000I0J-450000D01*
G01*
X217119000Y-83179000D01*
G75*
G02*
X216669000Y-83629000I-450000J0D01*
G01*
X215769000Y-83629000D01*
G75*
G02*
X215319000Y-83179000I0J450000D01*
G01*
G37*
X214517000Y-84431000D03*
X212192000Y-85054000D03*
X209867000Y-84431000D03*
X208165000Y-82729000D03*
X207542000Y-80404000D03*
X208165000Y-78079000D03*
X209867000Y-76377000D03*
X212192000Y-75754000D03*
X216219000Y-78079000D03*
X214517000Y-76377000D03*
D15*
X176378000Y-77989000D03*
X176378000Y-82819000D03*
D17*
X171728000Y-80404000D03*
G36*
G01*
X173251000Y-82279000D02*
X173251000Y-83179000D01*
G75*
G02*
X172801000Y-83629000I-450000J0D01*
G01*
X171901000Y-83629000D01*
G75*
G02*
X171451000Y-83179000I0J450000D01*
G01*
X171451000Y-82279000D01*
G75*
G02*
X171901000Y-81829000I450000J0D01*
G01*
X172801000Y-81829000D01*
G75*
G02*
X173251000Y-82279000I0J-450000D01*
G01*
G37*
X174053000Y-84431000D03*
X176378000Y-85054000D03*
X178703000Y-84431000D03*
X180405000Y-82729000D03*
X181028000Y-80404000D03*
X180405000Y-78079000D03*
X178703000Y-76377000D03*
X176378000Y-75754000D03*
X172351000Y-78079000D03*
X174053000Y-76377000D03*
D18*
X203104000Y-81674000D03*
X210104000Y-81674000D03*
X185466000Y-81420000D03*
X178466000Y-81420000D03*
G36*
G01*
X217376000Y-122798000D02*
X217676000Y-122798000D01*
G75*
G02*
X217826000Y-122948000I0J-150000D01*
G01*
X217826000Y-124598000D01*
G75*
G02*
X217676000Y-124748000I-150000J0D01*
G01*
X217376000Y-124748000D01*
G75*
G02*
X217226000Y-124598000I0J150000D01*
G01*
X217226000Y-122948000D01*
G75*
G02*
X217376000Y-122798000I150000J0D01*
G01*
G37*
G36*
G01*
X218646000Y-122798000D02*
X218946000Y-122798000D01*
G75*
G02*
X219096000Y-122948000I0J-150000D01*
G01*
X219096000Y-124598000D01*
G75*
G02*
X218946000Y-124748000I-150000J0D01*
G01*
X218646000Y-124748000D01*
G75*
G02*
X218496000Y-124598000I0J150000D01*
G01*
X218496000Y-122948000D01*
G75*
G02*
X218646000Y-122798000I150000J0D01*
G01*
G37*
G36*
G01*
X219916000Y-122798000D02*
X220216000Y-122798000D01*
G75*
G02*
X220366000Y-122948000I0J-150000D01*
G01*
X220366000Y-124598000D01*
G75*
G02*
X220216000Y-124748000I-150000J0D01*
G01*
X219916000Y-124748000D01*
G75*
G02*
X219766000Y-124598000I0J150000D01*
G01*
X219766000Y-122948000D01*
G75*
G02*
X219916000Y-122798000I150000J0D01*
G01*
G37*
G36*
G01*
X221186000Y-122798000D02*
X221486000Y-122798000D01*
G75*
G02*
X221636000Y-122948000I0J-150000D01*
G01*
X221636000Y-124598000D01*
G75*
G02*
X221486000Y-124748000I-150000J0D01*
G01*
X221186000Y-124748000D01*
G75*
G02*
X221036000Y-124598000I0J150000D01*
G01*
X221036000Y-122948000D01*
G75*
G02*
X221186000Y-122798000I150000J0D01*
G01*
G37*
G36*
G01*
X222456000Y-122798000D02*
X222756000Y-122798000D01*
G75*
G02*
X222906000Y-122948000I0J-150000D01*
G01*
X222906000Y-124598000D01*
G75*
G02*
X222756000Y-124748000I-150000J0D01*
G01*
X222456000Y-124748000D01*
G75*
G02*
X222306000Y-124598000I0J150000D01*
G01*
X222306000Y-122948000D01*
G75*
G02*
X222456000Y-122798000I150000J0D01*
G01*
G37*
G36*
G01*
X223726000Y-122798000D02*
X224026000Y-122798000D01*
G75*
G02*
X224176000Y-122948000I0J-150000D01*
G01*
X224176000Y-124598000D01*
G75*
G02*
X224026000Y-124748000I-150000J0D01*
G01*
X223726000Y-124748000D01*
G75*
G02*
X223576000Y-124598000I0J150000D01*
G01*
X223576000Y-122948000D01*
G75*
G02*
X223726000Y-122798000I150000J0D01*
G01*
G37*
G36*
G01*
X224996000Y-122798000D02*
X225296000Y-122798000D01*
G75*
G02*
X225446000Y-122948000I0J-150000D01*
G01*
X225446000Y-124598000D01*
G75*
G02*
X225296000Y-124748000I-150000J0D01*
G01*
X224996000Y-124748000D01*
G75*
G02*
X224846000Y-124598000I0J150000D01*
G01*
X224846000Y-122948000D01*
G75*
G02*
X224996000Y-122798000I150000J0D01*
G01*
G37*
G36*
G01*
X224996000Y-117848000D02*
X225296000Y-117848000D01*
G75*
G02*
X225446000Y-117998000I0J-150000D01*
G01*
X225446000Y-119648000D01*
G75*
G02*
X225296000Y-119798000I-150000J0D01*
G01*
X224996000Y-119798000D01*
G75*
G02*
X224846000Y-119648000I0J150000D01*
G01*
X224846000Y-117998000D01*
G75*
G02*
X224996000Y-117848000I150000J0D01*
G01*
G37*
G36*
G01*
X223726000Y-117848000D02*
X224026000Y-117848000D01*
G75*
G02*
X224176000Y-117998000I0J-150000D01*
G01*
X224176000Y-119648000D01*
G75*
G02*
X224026000Y-119798000I-150000J0D01*
G01*
X223726000Y-119798000D01*
G75*
G02*
X223576000Y-119648000I0J150000D01*
G01*
X223576000Y-117998000D01*
G75*
G02*
X223726000Y-117848000I150000J0D01*
G01*
G37*
G36*
G01*
X222456000Y-117848000D02*
X222756000Y-117848000D01*
G75*
G02*
X222906000Y-117998000I0J-150000D01*
G01*
X222906000Y-119648000D01*
G75*
G02*
X222756000Y-119798000I-150000J0D01*
G01*
X222456000Y-119798000D01*
G75*
G02*
X222306000Y-119648000I0J150000D01*
G01*
X222306000Y-117998000D01*
G75*
G02*
X222456000Y-117848000I150000J0D01*
G01*
G37*
G36*
G01*
X221186000Y-117848000D02*
X221486000Y-117848000D01*
G75*
G02*
X221636000Y-117998000I0J-150000D01*
G01*
X221636000Y-119648000D01*
G75*
G02*
X221486000Y-119798000I-150000J0D01*
G01*
X221186000Y-119798000D01*
G75*
G02*
X221036000Y-119648000I0J150000D01*
G01*
X221036000Y-117998000D01*
G75*
G02*
X221186000Y-117848000I150000J0D01*
G01*
G37*
G36*
G01*
X219916000Y-117848000D02*
X220216000Y-117848000D01*
G75*
G02*
X220366000Y-117998000I0J-150000D01*
G01*
X220366000Y-119648000D01*
G75*
G02*
X220216000Y-119798000I-150000J0D01*
G01*
X219916000Y-119798000D01*
G75*
G02*
X219766000Y-119648000I0J150000D01*
G01*
X219766000Y-117998000D01*
G75*
G02*
X219916000Y-117848000I150000J0D01*
G01*
G37*
G36*
G01*
X218646000Y-117848000D02*
X218946000Y-117848000D01*
G75*
G02*
X219096000Y-117998000I0J-150000D01*
G01*
X219096000Y-119648000D01*
G75*
G02*
X218946000Y-119798000I-150000J0D01*
G01*
X218646000Y-119798000D01*
G75*
G02*
X218496000Y-119648000I0J150000D01*
G01*
X218496000Y-117998000D01*
G75*
G02*
X218646000Y-117848000I150000J0D01*
G01*
G37*
G36*
G01*
X217376000Y-117848000D02*
X217676000Y-117848000D01*
G75*
G02*
X217826000Y-117998000I0J-150000D01*
G01*
X217826000Y-119648000D01*
G75*
G02*
X217676000Y-119798000I-150000J0D01*
G01*
X217376000Y-119798000D01*
G75*
G02*
X217226000Y-119648000I0J150000D01*
G01*
X217226000Y-117998000D01*
G75*
G02*
X217376000Y-117848000I150000J0D01*
G01*
G37*
D19*
X175108000Y-107328000D03*
D20*
X167488000Y-107328000D03*
D21*
X239132000Y-121806000D03*
X241132000Y-122756000D03*
X241132000Y-120856000D03*
X251292000Y-121806000D03*
X249292000Y-120856000D03*
X249292000Y-122756000D03*
X239132000Y-113678000D03*
X241132000Y-114628000D03*
X241132000Y-112728000D03*
X251292000Y-113678000D03*
X249292000Y-112728000D03*
X249292000Y-114628000D03*
D14*
G36*
X246216000Y-125374000D02*
G01*
X246766000Y-125374000D01*
X246766000Y-125374602D01*
X246790534Y-125374602D01*
X246839365Y-125379412D01*
X246887490Y-125388984D01*
X246934445Y-125403228D01*
X246979778Y-125422005D01*
X247023051Y-125445136D01*
X247063850Y-125472396D01*
X247101779Y-125503524D01*
X247136476Y-125538221D01*
X247167604Y-125576150D01*
X247194864Y-125616949D01*
X247217995Y-125660222D01*
X247236772Y-125705555D01*
X247251016Y-125752510D01*
X247260588Y-125800635D01*
X247265398Y-125849466D01*
X247265398Y-125874000D01*
X247266000Y-125874000D01*
X247266000Y-126374000D01*
X247265398Y-126374000D01*
X247265398Y-126398534D01*
X247260588Y-126447365D01*
X247251016Y-126495490D01*
X247236772Y-126542445D01*
X247217995Y-126587778D01*
X247194864Y-126631051D01*
X247167604Y-126671850D01*
X247136476Y-126709779D01*
X247101779Y-126744476D01*
X247063850Y-126775604D01*
X247023051Y-126802864D01*
X246979778Y-126825995D01*
X246934445Y-126844772D01*
X246887490Y-126859016D01*
X246839365Y-126868588D01*
X246790534Y-126873398D01*
X246766000Y-126873398D01*
X246766000Y-126874000D01*
X246216000Y-126874000D01*
X246216000Y-125374000D01*
G37*
D22*
X245466000Y-126124000D03*
D14*
G36*
X244166000Y-126873398D02*
G01*
X244141466Y-126873398D01*
X244092635Y-126868588D01*
X244044510Y-126859016D01*
X243997555Y-126844772D01*
X243952222Y-126825995D01*
X243908949Y-126802864D01*
X243868150Y-126775604D01*
X243830221Y-126744476D01*
X243795524Y-126709779D01*
X243764396Y-126671850D01*
X243737136Y-126631051D01*
X243714005Y-126587778D01*
X243695228Y-126542445D01*
X243680984Y-126495490D01*
X243671412Y-126447365D01*
X243666602Y-126398534D01*
X243666602Y-126374000D01*
X243666000Y-126374000D01*
X243666000Y-125874000D01*
X243666602Y-125874000D01*
X243666602Y-125849466D01*
X243671412Y-125800635D01*
X243680984Y-125752510D01*
X243695228Y-125705555D01*
X243714005Y-125660222D01*
X243737136Y-125616949D01*
X243764396Y-125576150D01*
X243795524Y-125538221D01*
X243830221Y-125503524D01*
X243868150Y-125472396D01*
X243908949Y-125445136D01*
X243952222Y-125422005D01*
X243997555Y-125403228D01*
X244044510Y-125388984D01*
X244092635Y-125379412D01*
X244141466Y-125374602D01*
X244166000Y-125374602D01*
X244166000Y-125374000D01*
X244716000Y-125374000D01*
X244716000Y-126874000D01*
X244166000Y-126874000D01*
X244166000Y-126873398D01*
G37*
G36*
X245962000Y-108102000D02*
G01*
X246512000Y-108102000D01*
X246512000Y-108102602D01*
X246536534Y-108102602D01*
X246585365Y-108107412D01*
X246633490Y-108116984D01*
X246680445Y-108131228D01*
X246725778Y-108150005D01*
X246769051Y-108173136D01*
X246809850Y-108200396D01*
X246847779Y-108231524D01*
X246882476Y-108266221D01*
X246913604Y-108304150D01*
X246940864Y-108344949D01*
X246963995Y-108388222D01*
X246982772Y-108433555D01*
X246997016Y-108480510D01*
X247006588Y-108528635D01*
X247011398Y-108577466D01*
X247011398Y-108602000D01*
X247012000Y-108602000D01*
X247012000Y-109102000D01*
X247011398Y-109102000D01*
X247011398Y-109126534D01*
X247006588Y-109175365D01*
X246997016Y-109223490D01*
X246982772Y-109270445D01*
X246963995Y-109315778D01*
X246940864Y-109359051D01*
X246913604Y-109399850D01*
X246882476Y-109437779D01*
X246847779Y-109472476D01*
X246809850Y-109503604D01*
X246769051Y-109530864D01*
X246725778Y-109553995D01*
X246680445Y-109572772D01*
X246633490Y-109587016D01*
X246585365Y-109596588D01*
X246536534Y-109601398D01*
X246512000Y-109601398D01*
X246512000Y-109602000D01*
X245962000Y-109602000D01*
X245962000Y-108102000D01*
G37*
D22*
X245212000Y-108852000D03*
D14*
G36*
X243912000Y-109601398D02*
G01*
X243887466Y-109601398D01*
X243838635Y-109596588D01*
X243790510Y-109587016D01*
X243743555Y-109572772D01*
X243698222Y-109553995D01*
X243654949Y-109530864D01*
X243614150Y-109503604D01*
X243576221Y-109472476D01*
X243541524Y-109437779D01*
X243510396Y-109399850D01*
X243483136Y-109359051D01*
X243460005Y-109315778D01*
X243441228Y-109270445D01*
X243426984Y-109223490D01*
X243417412Y-109175365D01*
X243412602Y-109126534D01*
X243412602Y-109102000D01*
X243412000Y-109102000D01*
X243412000Y-108602000D01*
X243412602Y-108602000D01*
X243412602Y-108577466D01*
X243417412Y-108528635D01*
X243426984Y-108480510D01*
X243441228Y-108433555D01*
X243460005Y-108388222D01*
X243483136Y-108344949D01*
X243510396Y-108304150D01*
X243541524Y-108266221D01*
X243576221Y-108231524D01*
X243614150Y-108200396D01*
X243654949Y-108173136D01*
X243698222Y-108150005D01*
X243743555Y-108131228D01*
X243790510Y-108116984D01*
X243838635Y-108107412D01*
X243887466Y-108102602D01*
X243912000Y-108102602D01*
X243912000Y-108102000D01*
X244462000Y-108102000D01*
X244462000Y-109602000D01*
X243912000Y-109602000D01*
X243912000Y-109601398D01*
G37*
G36*
G01*
X170653000Y-108585000D02*
X169403000Y-108585000D01*
G75*
G02*
X169153000Y-108335000I0J250000D01*
G01*
X169153000Y-107410000D01*
G75*
G02*
X169403000Y-107160000I250000J0D01*
G01*
X170653000Y-107160000D01*
G75*
G02*
X170903000Y-107410000I0J-250000D01*
G01*
X170903000Y-108335000D01*
G75*
G02*
X170653000Y-108585000I-250000J0D01*
G01*
G37*
G36*
G01*
X170653000Y-111560000D02*
X169403000Y-111560000D01*
G75*
G02*
X169153000Y-111310000I0J250000D01*
G01*
X169153000Y-110385000D01*
G75*
G02*
X169403000Y-110135000I250000J0D01*
G01*
X170653000Y-110135000D01*
G75*
G02*
X170903000Y-110385000I0J-250000D01*
G01*
X170903000Y-111310000D01*
G75*
G02*
X170653000Y-111560000I-250000J0D01*
G01*
G37*
D23*
X208370000Y-98770000D03*
D24*
X208370000Y-96230000D03*
X210910000Y-98770000D03*
X210910000Y-96230000D03*
X213450000Y-98770000D03*
X213450000Y-96230000D03*
X215990000Y-98770000D03*
X215990000Y-96230000D03*
X218530000Y-98770000D03*
X218530000Y-96230000D03*
X221070000Y-98770000D03*
X221070000Y-96230000D03*
X223610000Y-98770000D03*
X223610000Y-96230000D03*
X226150000Y-98770000D03*
X226150000Y-96230000D03*
X228690000Y-98770000D03*
X228690000Y-96230000D03*
X231230000Y-98770000D03*
X231230000Y-96230000D03*
X233770000Y-98770000D03*
X233770000Y-96230000D03*
X236310000Y-98770000D03*
X236310000Y-96230000D03*
X238850000Y-98770000D03*
X238850000Y-96230000D03*
X241390000Y-98770000D03*
X241390000Y-96230000D03*
X243930000Y-98770000D03*
X243930000Y-96230000D03*
X246470000Y-98770000D03*
X246470000Y-96230000D03*
X249010000Y-98770000D03*
X249010000Y-96230000D03*
X251550000Y-98770000D03*
X251550000Y-96230000D03*
X254090000Y-98770000D03*
X254090000Y-96230000D03*
X256630000Y-98770000D03*
X256630000Y-96230000D03*
D11*
X261500000Y-146500000D03*
X168500000Y-146548000D03*
X261500000Y-97500000D03*
X168448000Y-97500000D03*
M02*
